G04 #@! TF.GenerationSoftware,KiCad,Pcbnew,5.99.0-unknown-748bee1bc~104~ubuntu20.04.1*
G04 #@! TF.CreationDate,2020-09-24T12:18:17+09:30*
G04 #@! TF.ProjectId,badge,62616467-652e-46b6-9963-61645f706362,0.1*
G04 #@! TF.SameCoordinates,Original*
G04 #@! TF.FileFunction,Profile,NP*
%FSLAX46Y46*%
G04 Gerber Fmt 4.6, Leading zero omitted, Abs format (unit mm)*
G04 Created by KiCad (PCBNEW 5.99.0-unknown-748bee1bc~104~ubuntu20.04.1) date 2020-09-24 12:18:17*
%MOMM*%
%LPD*%
G01*
G04 APERTURE LIST*
G04 #@! TA.AperFunction,Profile*
%ADD10C,0.100000*%
G04 #@! TD*
G04 APERTURE END LIST*
D10*
X50292145Y-102710948D02*
X50259841Y-102765911D01*
X146344777Y-53519503D02*
X146414235Y-53585725D01*
X93670151Y-150000092D02*
X94959157Y-150000092D01*
X49999994Y-121797891D02*
X49999994Y-123086902D01*
X94959157Y-150000092D02*
X96248162Y-150000092D01*
X98381472Y-56759711D02*
X97104594Y-58649548D01*
X146037097Y-53289486D02*
X146118242Y-53341508D01*
X143727837Y-56543234D02*
X143655267Y-56480374D01*
X118759194Y-121980466D02*
X120357556Y-120357584D01*
X147000017Y-54999948D02*
X146997414Y-55102867D01*
X96884714Y-149896117D02*
X96945026Y-149874781D01*
X50994616Y-147989775D02*
X51143178Y-148178723D01*
X49999994Y-128242948D02*
X49999994Y-129531959D01*
X50303888Y-146717492D02*
X50393540Y-146944456D01*
X150000006Y-64022949D02*
X150000006Y-62733940D01*
X146118242Y-53341508D02*
X146196655Y-53397268D01*
X143456725Y-56272125D02*
X143397352Y-56196571D01*
X50521681Y-102404622D02*
X50479298Y-102452665D01*
X56288996Y-150000092D02*
X57578001Y-150000092D01*
X149774837Y-53514688D02*
X149696112Y-53282498D01*
X143519586Y-53655184D02*
X143585809Y-53585725D01*
X144221534Y-53157110D02*
X144312357Y-53121299D01*
X115637421Y-125298388D02*
X117185699Y-123627517D01*
X143121383Y-55687610D02*
X143089939Y-55594683D01*
X91713452Y-66002162D02*
X90296506Y-67786884D01*
X60519153Y-95798919D02*
X58649642Y-97104509D01*
X50225163Y-146485301D02*
X50303888Y-146717492D01*
X69179050Y-150000092D02*
X70468055Y-150000092D01*
X97547228Y-149520789D02*
X97595271Y-149478405D01*
X49999994Y-126953936D02*
X49999994Y-128242948D01*
X150000006Y-56288893D02*
X150000006Y-54999883D01*
X50971856Y-102036246D02*
X50916024Y-102070962D01*
X149998929Y-96313921D02*
X150000006Y-96248184D01*
X146842848Y-55778433D02*
X146802797Y-55867025D01*
X144897110Y-53002543D02*
X145000031Y-52999941D01*
X85936119Y-150000092D02*
X87225124Y-150000092D01*
X143655267Y-53519503D02*
X143727837Y-53456642D01*
X50658291Y-102268503D02*
X50611202Y-102312497D01*
X150000006Y-91092146D02*
X150000006Y-89803137D01*
X146602691Y-56196571D02*
X146543317Y-56272125D01*
X145867108Y-53197161D02*
X145953343Y-53241329D01*
X52206387Y-149145006D02*
X52409273Y-149275198D01*
X141132992Y-49999908D02*
X139843985Y-49999908D01*
X144897110Y-56997331D02*
X144795540Y-56989608D01*
X50084548Y-103176231D02*
X50067066Y-103237977D01*
X129531937Y-49999908D02*
X128242931Y-49999908D01*
X57578001Y-150000092D02*
X58867007Y-150000092D01*
X144312357Y-53121299D02*
X144405286Y-53089856D01*
X146976972Y-54695364D02*
X146989691Y-54795457D01*
X150000006Y-79491062D02*
X150000006Y-78202052D01*
X97004557Y-149851555D02*
X97063261Y-149826464D01*
X110196847Y-49999908D02*
X108907841Y-49999908D01*
X149961981Y-96636542D02*
X149973497Y-96572972D01*
X49999994Y-105040742D02*
X49999994Y-106329754D01*
X52010312Y-149005471D02*
X52206387Y-149145006D01*
X143397352Y-56196571D02*
X143341591Y-56118159D01*
X146543317Y-53727753D02*
X146602691Y-53803307D01*
X149740162Y-97234011D02*
X149770700Y-97178047D01*
X143121383Y-54312274D02*
X143157193Y-54221450D01*
X108286530Y-133997798D02*
X109703477Y-132213073D01*
X103300452Y-50051462D02*
X103238054Y-50066980D01*
X103054943Y-50125219D02*
X102995413Y-50148445D01*
X145102950Y-53002543D02*
X145204518Y-53010266D01*
X150000006Y-74335024D02*
X150000006Y-73046015D01*
X50067066Y-103237977D02*
X50051548Y-103300375D01*
X143881804Y-56658367D02*
X143803391Y-56602607D01*
X96945026Y-149874781D02*
X97004557Y-149851555D01*
X146118242Y-56658367D02*
X146037097Y-56710389D01*
X150000006Y-57577902D02*
X150000006Y-56288893D01*
X74335071Y-150000092D02*
X75624076Y-150000092D01*
X52409273Y-149275198D02*
X52618654Y-149395730D01*
X143062989Y-54500111D02*
X143089939Y-54405203D01*
X49999994Y-139844050D02*
X49999994Y-141133062D01*
X50361955Y-102604196D02*
X50326192Y-102657028D01*
X49999994Y-129531959D02*
X49999994Y-130820970D01*
X150000006Y-62733940D02*
X150000006Y-61444930D01*
X143397352Y-53803307D02*
X143456725Y-53727753D01*
X143803391Y-56602607D02*
X143727837Y-56543234D01*
X143711004Y-49999908D02*
X142421998Y-49999908D01*
X150000006Y-89803137D02*
X150000006Y-88514127D01*
X150000006Y-69178986D02*
X150000006Y-67889977D01*
X103363458Y-50037933D02*
X103300452Y-50051462D01*
X49999994Y-133398993D02*
X49999994Y-134688005D01*
X150000006Y-58866911D02*
X150000006Y-57577902D01*
X130450385Y-111147412D02*
X132213035Y-109703500D01*
X96823662Y-149915538D02*
X96884714Y-149896117D01*
X150000006Y-66600968D02*
X150000006Y-65311958D01*
X82069103Y-150000092D02*
X83358108Y-150000092D01*
X130820943Y-49999908D02*
X129531937Y-49999908D01*
X58867007Y-150000092D02*
X60156012Y-150000092D01*
X142421998Y-49999908D02*
X141132992Y-49999908D01*
X50479298Y-102452665D02*
X50438533Y-102501971D01*
X121980438Y-118759220D02*
X123627488Y-117185724D01*
X97595271Y-149478405D02*
X97642009Y-149434429D01*
X120508895Y-49999908D02*
X119219889Y-49999908D01*
X97342865Y-149673895D02*
X97395697Y-149638132D01*
X149243014Y-97815046D02*
X149293115Y-97773970D01*
X146717406Y-50303802D02*
X146485214Y-50225077D01*
X50026503Y-103426950D02*
X50017026Y-103491040D01*
X114063865Y-49999908D02*
X112774859Y-49999908D01*
X121797901Y-49999908D02*
X120508895Y-49999908D01*
X146414235Y-56414151D02*
X146344777Y-56480374D01*
X146480457Y-56344693D02*
X146414235Y-56414151D01*
X144695447Y-56976889D02*
X144596957Y-56959301D01*
X150000006Y-75624033D02*
X150000006Y-74335024D01*
X146997414Y-54897027D02*
X147000017Y-54999948D01*
X144221534Y-56842765D02*
X144132941Y-56802713D01*
X53055631Y-149606546D02*
X53282594Y-149696198D01*
X102604276Y-50361864D02*
X102552576Y-50399319D01*
X143000024Y-54999948D02*
X143002626Y-54897027D01*
X149990388Y-96444313D02*
X149995715Y-96379312D01*
X150000006Y-67889977D02*
X150000006Y-66600968D01*
X52834212Y-149506285D02*
X53055631Y-149606546D01*
X102936709Y-50173536D02*
X102878874Y-50200467D01*
X103238054Y-50066980D02*
X103176307Y-50084462D01*
X101618508Y-143240262D02*
X102895385Y-141350422D01*
X97892559Y-149138499D02*
X97928931Y-149084062D01*
X49999994Y-143711085D02*
X49999994Y-145000096D01*
X107618835Y-49999908D02*
X106329829Y-49999908D01*
X73007303Y-85885194D02*
X71289846Y-87381987D01*
X114114711Y-126992728D02*
X115637421Y-125298388D01*
X95799004Y-60519062D02*
X94465051Y-62367902D01*
X102036331Y-50971748D02*
X100847690Y-52920461D01*
X52920565Y-100847604D02*
X50971856Y-102036246D01*
X149275112Y-52409181D02*
X149144920Y-52206296D01*
X61445017Y-150000092D02*
X62734023Y-150000092D01*
X50051548Y-103300375D02*
X50038019Y-103363380D01*
X50757000Y-102184869D02*
X50706898Y-102225946D01*
X96572943Y-149973583D02*
X96636513Y-149962068D01*
X146944369Y-50393454D02*
X146717406Y-50303802D01*
X146937052Y-55499776D02*
X146910101Y-55594683D01*
X106896898Y-135804244D02*
X108286530Y-133997798D01*
X103115256Y-50103883D02*
X103054943Y-50125219D01*
X150000006Y-93670165D02*
X150000006Y-92381156D01*
X145256920Y-50006427D02*
X145000010Y-49999908D01*
X149896031Y-96884745D02*
X149915453Y-96823693D01*
X137265973Y-49999908D02*
X135976967Y-49999908D01*
X146272208Y-53456642D02*
X146344777Y-53519503D01*
X56759807Y-98381386D02*
X54849998Y-99629201D01*
X49999994Y-103751731D02*
X49999994Y-105040742D01*
X50855080Y-147793699D02*
X50994616Y-147989775D01*
X149191445Y-97854597D02*
X149243014Y-97815046D01*
X49999994Y-124375913D02*
X49999994Y-125664925D01*
X150000006Y-83358090D02*
X150000006Y-82069080D01*
X146196655Y-56602607D02*
X146118242Y-56658367D01*
X50125306Y-103054867D02*
X50103970Y-103115179D01*
X146196655Y-53397268D02*
X146272208Y-53456642D01*
X109703477Y-132213073D02*
X111147389Y-130450420D01*
X143727837Y-53456642D02*
X143803391Y-53397268D01*
X145867108Y-56802713D02*
X145778516Y-56842765D01*
X53993586Y-149898329D02*
X54239561Y-149942375D01*
X97687396Y-149388884D02*
X97731390Y-149341796D01*
X123086907Y-49999908D02*
X121797901Y-49999908D01*
X143010350Y-54795457D02*
X143023068Y-54695364D01*
X133398955Y-49999908D02*
X132109949Y-49999908D01*
X117930883Y-49999908D02*
X116641877Y-49999908D01*
X74701640Y-84362485D02*
X73007303Y-85885194D01*
X149520709Y-97547254D02*
X149561474Y-97497948D01*
X146878658Y-54312274D02*
X146910101Y-54405203D01*
X67786969Y-90296423D02*
X66002248Y-91713369D01*
X102107420Y-50861484D02*
X102071048Y-50915919D01*
X143040657Y-55403015D02*
X143023068Y-55304526D01*
X49999994Y-132109982D02*
X49999994Y-133398993D01*
X150000006Y-76913043D02*
X150000006Y-75624033D01*
X50611202Y-102312497D02*
X50565658Y-102357884D01*
X126992696Y-114114735D02*
X128710155Y-112617941D01*
X67890044Y-150000092D02*
X69179050Y-150000092D01*
X50025857Y-145510588D02*
X50057711Y-145760525D01*
X145204518Y-53010266D02*
X145304609Y-53022985D01*
X64023028Y-150000092D02*
X65312033Y-150000092D01*
X97063261Y-149826464D02*
X97121096Y-149799532D01*
X51639860Y-148699636D02*
X51821364Y-148856909D01*
X146037097Y-56710389D02*
X145953343Y-56758546D01*
X146910101Y-55594683D02*
X146878658Y-55687610D01*
X53282594Y-149696198D02*
X53514786Y-149774924D01*
X51821364Y-148856909D02*
X52010312Y-149005471D01*
X78202087Y-150000092D02*
X79491092Y-150000092D01*
X150000006Y-61444930D02*
X150000006Y-60155921D01*
X76913082Y-150000092D02*
X78202087Y-150000092D01*
X102995413Y-50148445D02*
X102936709Y-50173536D01*
X102184954Y-50756900D02*
X102145403Y-50808470D01*
X97773947Y-149293188D02*
X97815023Y-149243086D01*
X143062989Y-55499776D02*
X143040657Y-55403015D01*
X54743080Y-149993574D02*
X54999991Y-150000092D01*
X87382068Y-71289763D02*
X85885276Y-73007221D01*
X88852595Y-69549534D02*
X87382068Y-71289763D01*
X143341591Y-56118159D02*
X143289569Y-56037013D01*
X102357967Y-50565563D02*
X102312580Y-50611106D01*
X146758629Y-54046621D02*
X146802797Y-54132858D01*
X145403098Y-53040573D02*
X145499859Y-53062906D01*
X149638050Y-97395725D02*
X149673812Y-97342894D01*
X148360140Y-51300362D02*
X148178636Y-51143090D01*
X144795540Y-56989608D02*
X144695447Y-56976889D01*
X50326192Y-102657028D02*
X50292145Y-102710948D01*
X119219889Y-49999908D02*
X117930883Y-49999908D01*
X51143178Y-148178723D02*
X51300450Y-148360227D01*
X79491092Y-150000092D02*
X80780098Y-150000092D01*
X139843985Y-49999908D02*
X138554979Y-49999908D01*
X143585809Y-53585725D02*
X143655267Y-53519503D01*
X145760439Y-50057625D02*
X145510502Y-50025771D01*
X149673812Y-97342894D02*
X149707858Y-97288975D01*
X149506198Y-52834118D02*
X149395643Y-52618561D01*
X149851470Y-97004588D02*
X149874695Y-96945058D01*
X149395643Y-52618561D02*
X149275112Y-52409181D01*
X145778516Y-56842765D02*
X145687694Y-56878575D01*
X100847690Y-52920461D02*
X99629287Y-54849898D01*
X83358108Y-150000092D02*
X84647114Y-150000092D01*
X143023068Y-54695364D02*
X143040657Y-54596874D01*
X78019556Y-81240716D02*
X76372508Y-82814210D01*
X49999994Y-108907776D02*
X49999994Y-110196788D01*
X64195806Y-93103000D02*
X62367991Y-94464966D01*
X146976972Y-55304526D02*
X146959384Y-55403015D01*
X103176307Y-50084462D02*
X103115256Y-50103883D01*
X145304609Y-56976889D02*
X145204518Y-56989608D01*
X146959384Y-54596874D02*
X146976972Y-54695364D01*
X50009612Y-103555606D02*
X50004285Y-103620606D01*
X149770700Y-97178047D02*
X149799447Y-97121126D01*
X145953343Y-53241329D02*
X146037097Y-53289486D01*
X50259841Y-102765911D02*
X50229302Y-102821876D01*
X103751817Y-49999908D02*
X103686080Y-50000985D01*
X96248162Y-150000092D02*
X96313897Y-149999015D01*
X97731390Y-149341796D02*
X97773947Y-149293188D01*
X146485214Y-50225077D02*
X146248112Y-50157595D01*
X149341721Y-97731414D02*
X149388808Y-97687420D01*
X146989691Y-54795457D02*
X146997414Y-54897027D01*
X144795540Y-53010266D02*
X144897110Y-53002543D01*
X60156012Y-150000092D02*
X61445017Y-150000092D01*
X149993487Y-54742975D02*
X149974143Y-54489395D01*
X49999994Y-137266027D02*
X49999994Y-138555039D01*
X105040823Y-49999908D02*
X103751817Y-49999908D01*
X149138430Y-97892581D02*
X149191445Y-97854597D01*
X148533884Y-51466028D02*
X148360140Y-51300362D01*
X135976967Y-49999908D02*
X134687961Y-49999908D01*
X115352871Y-49999908D02*
X114063865Y-49999908D01*
X143241412Y-54046621D02*
X143289569Y-53962867D01*
X50101758Y-146006501D02*
X50157681Y-146248198D01*
X96636513Y-149962068D02*
X96699518Y-149948538D01*
X71289846Y-87381987D02*
X69549618Y-88852513D01*
X97497922Y-149561554D02*
X97547228Y-149520789D01*
X145687694Y-56878575D02*
X145594766Y-56910018D01*
X50393540Y-146944456D02*
X50493802Y-147165875D01*
X145687694Y-53121299D02*
X145778516Y-53157110D01*
X132109949Y-49999908D02*
X130820943Y-49999908D01*
X102502052Y-50438441D02*
X102452747Y-50479205D01*
X146344777Y-56480374D02*
X146272208Y-56543234D01*
X102765989Y-50259752D02*
X102711026Y-50292056D01*
X105534930Y-137632064D02*
X106896898Y-135804244D01*
X149932935Y-96761947D02*
X149948452Y-96699548D01*
X143197245Y-55867025D02*
X143157193Y-55778433D01*
X89803135Y-150000092D02*
X91092141Y-150000092D01*
X145594766Y-53089856D02*
X145687694Y-53121299D01*
X96444286Y-149990475D02*
X96508853Y-149983061D01*
X104200976Y-139480906D02*
X105534930Y-137632064D01*
X149799447Y-97121126D02*
X149826379Y-97063292D01*
X49999994Y-112774811D02*
X49999994Y-114063822D01*
X150000006Y-82069080D02*
X150000006Y-80780071D01*
X97121096Y-149799532D02*
X97178017Y-149770784D01*
X144132941Y-53197161D02*
X144221534Y-53157110D01*
X143157193Y-54221450D02*
X143197245Y-54132858D01*
X143157193Y-55778433D02*
X143121383Y-55687610D01*
X143040657Y-54596874D02*
X143062989Y-54500111D01*
X52618654Y-149395730D02*
X52834212Y-149506285D01*
X128710155Y-112617941D02*
X130450385Y-111147412D01*
X49999994Y-130820970D02*
X49999994Y-132109982D01*
X96761916Y-149933021D02*
X96823662Y-149915538D01*
X49999994Y-115352834D02*
X49999994Y-116641845D01*
X145499859Y-53062906D02*
X145594766Y-53089856D01*
X149707858Y-97288975D02*
X149740162Y-97234011D01*
X146658451Y-53881720D02*
X146710472Y-53962867D01*
X150000006Y-96248184D02*
X150000006Y-94959174D01*
X97178017Y-149770784D02*
X97233981Y-149740246D01*
X145000010Y-49999908D02*
X143711004Y-49999908D01*
X149005384Y-52010222D02*
X148856822Y-51821274D01*
X143803391Y-53397268D02*
X143881804Y-53341508D01*
X149842320Y-53751790D02*
X149774837Y-53514688D01*
X146910101Y-54405203D02*
X146937052Y-54500111D01*
X96313897Y-149999015D02*
X96379286Y-149995801D01*
X97642009Y-149434429D02*
X97687396Y-149388884D01*
X106329829Y-49999908D02*
X105040823Y-49999908D01*
X102878874Y-50200467D02*
X102821953Y-50229214D01*
X112774859Y-49999908D02*
X111485853Y-49999908D01*
X53751888Y-149842406D02*
X53993586Y-149898329D01*
X71757060Y-150000092D02*
X73046066Y-150000092D01*
X146997414Y-55102867D02*
X146989691Y-55204435D01*
X145510502Y-50025771D02*
X145256920Y-50006427D01*
X49999994Y-138555039D02*
X49999994Y-139844050D01*
X102404704Y-50521587D02*
X102357967Y-50565563D01*
X137632019Y-105534952D02*
X139480858Y-104200998D01*
X80780098Y-150000092D02*
X82069103Y-150000092D01*
X141350371Y-102895407D02*
X143240208Y-101618529D01*
X103491119Y-50016940D02*
X103427028Y-50026417D01*
X54489498Y-149974229D02*
X54743080Y-149993574D01*
X50057711Y-145760525D02*
X50101758Y-146006501D01*
X144596957Y-56959301D02*
X144500195Y-56936969D01*
X65312033Y-150000092D02*
X66601039Y-150000092D01*
X146710472Y-53962867D02*
X146758629Y-54046621D01*
X102071048Y-50915919D02*
X102036331Y-50971748D01*
X143962950Y-56710389D02*
X143881804Y-56658367D01*
X50565658Y-102357884D02*
X50521681Y-102404622D01*
X144046704Y-56758546D02*
X143962950Y-56710389D01*
X73046066Y-150000092D02*
X74335071Y-150000092D01*
X150000006Y-85936109D02*
X150000006Y-84647099D01*
X50001071Y-103685996D02*
X49999994Y-103751731D01*
X149915453Y-96823693D02*
X149932935Y-96761947D01*
X143002626Y-55102867D02*
X143000024Y-54999948D01*
X149942289Y-54239459D02*
X149898242Y-53993486D01*
X96379286Y-149995801D02*
X96444286Y-149990475D01*
X150000006Y-84647099D02*
X150000006Y-83358090D01*
X124375913Y-49999908D02*
X123086907Y-49999908D01*
X145000031Y-56999933D02*
X144897110Y-56997331D01*
X102552576Y-50399319D02*
X102502052Y-50438441D01*
X143002626Y-54897027D02*
X143010350Y-54795457D01*
X120357556Y-120357584D02*
X121980438Y-118759220D01*
X128242931Y-49999908D02*
X126953925Y-49999908D01*
X85885276Y-73007221D02*
X84362566Y-74701559D01*
X49999994Y-111485799D02*
X49999994Y-112774811D01*
X145499859Y-56936969D02*
X145403098Y-56959301D01*
X97288945Y-149707941D02*
X97342865Y-149673895D01*
X49999994Y-107618765D02*
X49999994Y-108907776D01*
X146248112Y-50157595D02*
X146006414Y-50101672D01*
X103620689Y-50004199D02*
X103555687Y-50009526D01*
X79642436Y-79642355D02*
X78019556Y-81240716D01*
X102895385Y-141350422D02*
X104200976Y-139480906D01*
X92381146Y-150000092D02*
X93670151Y-150000092D01*
X148178636Y-51143090D02*
X147989688Y-50994528D01*
X102226030Y-50706800D02*
X102184954Y-50756900D01*
X81240797Y-78019475D02*
X79642436Y-79642355D01*
X145150019Y-100370714D02*
X147079455Y-99152311D01*
X150000006Y-60155921D02*
X150000006Y-58866911D01*
X150000006Y-73046015D02*
X150000006Y-71757005D01*
X149995715Y-96379312D02*
X149998929Y-96313921D01*
X143341591Y-53881720D02*
X143397352Y-53803307D01*
X149948452Y-96699548D02*
X149961981Y-96636542D01*
X54849998Y-99629201D02*
X52920565Y-100847604D01*
X102821953Y-50229214D02*
X102765989Y-50259752D01*
X146543317Y-56272125D02*
X146480457Y-56344693D01*
X145778516Y-53157110D02*
X145867108Y-53197161D01*
X50229302Y-102821876D02*
X50200555Y-102878797D01*
X143089939Y-55594683D02*
X143062989Y-55499776D01*
X84647114Y-150000092D02*
X85936119Y-150000092D01*
X49999994Y-106329754D02*
X49999994Y-107618765D01*
X88514130Y-150000092D02*
X89803135Y-150000092D01*
X50438533Y-102501971D02*
X50399410Y-102552496D01*
X97963647Y-149028231D02*
X99152289Y-147079516D01*
X144405286Y-56910018D02*
X144312357Y-56878575D01*
X125298357Y-115637446D02*
X126992696Y-114114735D01*
X108907841Y-49999908D02*
X107618835Y-49999908D01*
X112617917Y-128710189D02*
X114114711Y-126992728D01*
X145102950Y-56997331D02*
X145000031Y-56999933D01*
X51300450Y-148360227D02*
X51466117Y-148533970D01*
X54999991Y-150000092D02*
X56288996Y-150000092D01*
X143240208Y-101618529D02*
X145150019Y-100370714D01*
X50808572Y-102145318D02*
X50757000Y-102184869D01*
X126953925Y-49999908D02*
X125664919Y-49999908D01*
X62734023Y-150000092D02*
X64023028Y-150000092D01*
X111485853Y-49999908D02*
X110196847Y-49999908D01*
X144405286Y-53089856D02*
X144500195Y-53062906D01*
X97854575Y-149191515D02*
X97892559Y-149138499D01*
X143585809Y-56414151D02*
X143519586Y-56344693D01*
X150000006Y-70467996D02*
X150000006Y-69178986D01*
X149606460Y-53055536D02*
X149506198Y-52834118D01*
X149874695Y-96945058D02*
X149896031Y-96884745D01*
X50724889Y-147590813D02*
X50855080Y-147793699D01*
X147793613Y-50854993D02*
X147590727Y-50724802D01*
X143456725Y-53727753D02*
X143519586Y-53655184D01*
X139480858Y-104200998D02*
X141350371Y-102895407D01*
X51466117Y-148533970D02*
X51639860Y-148699636D01*
X145594766Y-56910018D02*
X145499859Y-56936969D01*
X50148532Y-102995336D02*
X50125306Y-103054867D01*
X150000006Y-88514127D02*
X150000006Y-87225118D01*
X50399410Y-102552496D02*
X50361955Y-102604196D01*
X49999994Y-123086902D02*
X49999994Y-124375913D01*
X103427028Y-50026417D02*
X103363458Y-50037933D01*
X100370692Y-145150077D02*
X101618508Y-143240262D01*
X49999994Y-114063822D02*
X49999994Y-115352834D01*
X49999994Y-110196788D02*
X49999994Y-111485799D01*
X97815023Y-149243086D02*
X97854575Y-149191515D01*
X149083996Y-97928953D02*
X149138430Y-97892581D01*
X50103970Y-103115179D02*
X50084548Y-103176231D01*
X147989688Y-50994528D02*
X147793613Y-50854993D01*
X54239561Y-149942375D02*
X54489498Y-149974229D01*
X50038019Y-103363380D02*
X50026503Y-103426950D01*
X102711026Y-50292056D02*
X102657107Y-50326102D01*
X149600595Y-97447424D02*
X149638050Y-97395725D01*
X146989691Y-55204435D02*
X146976972Y-55304526D01*
X66601039Y-150000092D02*
X67890044Y-150000092D01*
X50861588Y-102107334D02*
X50808572Y-102145318D01*
X145953343Y-56758546D02*
X145867108Y-56802713D01*
X143519586Y-56344693D02*
X143456725Y-56272125D01*
X50004285Y-103620606D02*
X50001071Y-103685996D01*
X97395697Y-149638132D02*
X97447397Y-149600676D01*
X111147389Y-130450420D02*
X112617917Y-128710189D01*
X49999994Y-117930856D02*
X49999994Y-119219868D01*
X150000006Y-87225118D02*
X150000006Y-85936109D01*
X143962950Y-53289486D02*
X144046704Y-53241329D01*
X87225124Y-150000092D02*
X88514130Y-150000092D01*
X97447397Y-149600676D02*
X97497922Y-149561554D01*
X145204518Y-56989608D02*
X145102950Y-56997331D01*
X149434352Y-97642033D02*
X149478327Y-97595297D01*
X147381346Y-50604270D02*
X147165788Y-50493716D01*
X145000010Y-49999908D02*
X145000010Y-49999908D01*
X133997758Y-108286553D02*
X135804202Y-106896920D01*
X143655267Y-56480374D02*
X143585809Y-56414151D01*
X150000006Y-54999883D02*
X149993487Y-54742975D01*
X49999994Y-125664925D02*
X49999994Y-126953936D01*
X143010350Y-55204435D02*
X143002626Y-55102867D01*
X150000006Y-78202052D02*
X150000006Y-76913043D01*
X103555687Y-50009526D02*
X103491119Y-50016940D01*
X149696112Y-53282498D02*
X149606460Y-53055536D01*
X144132941Y-56802713D02*
X144046704Y-56758546D01*
X145000031Y-52999941D02*
X145102950Y-53002543D01*
X50017026Y-103491040D02*
X50009612Y-103555606D01*
X148856822Y-51821274D02*
X148699550Y-51639771D01*
X70468055Y-150000092D02*
X71757060Y-150000092D01*
X149826379Y-97063292D02*
X149851470Y-97004588D01*
X49999994Y-119219868D02*
X49999994Y-120508879D01*
X97233981Y-149740246D02*
X97288945Y-149707941D01*
X146842848Y-54221450D02*
X146878658Y-54312274D01*
X102312580Y-50611106D02*
X102268587Y-50658193D01*
X149898242Y-53993486D02*
X149842320Y-53751790D01*
X145304609Y-53022985D02*
X145403098Y-53040573D01*
X90296506Y-67786884D02*
X88852595Y-69549534D01*
X49999994Y-142422073D02*
X49999994Y-143711085D01*
X91092141Y-150000092D02*
X92381146Y-150000092D01*
X96508853Y-149983061D02*
X96572943Y-149973583D01*
X69549618Y-88852513D02*
X67786969Y-90296423D01*
X146802797Y-55867025D02*
X146758629Y-55953260D01*
X146878658Y-55687610D02*
X146842848Y-55778433D01*
X149028166Y-97963669D02*
X149083996Y-97928953D01*
X84362566Y-74701559D02*
X82814290Y-76372427D01*
X50916024Y-102070962D02*
X50861588Y-102107334D01*
X144500195Y-56936969D02*
X144405286Y-56910018D01*
X49999994Y-120508879D02*
X49999994Y-121797891D01*
X50604357Y-147381433D02*
X50724889Y-147590813D01*
X102452747Y-50479205D02*
X102404704Y-50521587D01*
X117185699Y-123627517D02*
X118759194Y-121980466D01*
X143197245Y-54132858D02*
X143241412Y-54046621D01*
X123627488Y-117185724D02*
X125298357Y-115637446D01*
X149388808Y-97687420D02*
X149434352Y-97642033D01*
X135804202Y-106896920D02*
X137632019Y-105534952D01*
X147079455Y-99152311D02*
X149028166Y-97963669D01*
X116641877Y-49999908D02*
X115352871Y-49999908D01*
X99152289Y-147079516D02*
X100370692Y-145150077D01*
X102268587Y-50658193D02*
X102226030Y-50706800D01*
X76372508Y-82814210D02*
X74701640Y-84362485D01*
X146272208Y-56543234D02*
X146196655Y-56602607D01*
X150000006Y-80780071D02*
X150000006Y-79491062D01*
X150000006Y-94959174D02*
X150000006Y-93670165D01*
X102145403Y-50808470D02*
X102107420Y-50861484D01*
X102657107Y-50326102D02*
X102604276Y-50361864D01*
X149973497Y-96572972D02*
X149982974Y-96508881D01*
X50006513Y-145257006D02*
X50025857Y-145510588D01*
X58649642Y-97104509D02*
X56759807Y-98381386D01*
X75624076Y-150000092D02*
X76913082Y-150000092D01*
X50173623Y-102936632D02*
X50148532Y-102995336D01*
X146480457Y-53655184D02*
X146543317Y-53727753D01*
X144046704Y-53241329D02*
X144132941Y-53197161D01*
X143289569Y-53962867D02*
X143341591Y-53881720D01*
X146802797Y-54132858D02*
X146842848Y-54221450D01*
X97928931Y-149084062D02*
X97963647Y-149028231D01*
X146959384Y-55403015D02*
X146937052Y-55499776D01*
X94465051Y-62367902D02*
X93103083Y-64195718D01*
X97104594Y-58649548D02*
X95799004Y-60519062D01*
X49999994Y-135977016D02*
X49999994Y-137266027D01*
X50157681Y-146248198D02*
X50225163Y-146485301D01*
X146710472Y-56037013D02*
X146658451Y-56118159D01*
X66002248Y-91713369D02*
X64195806Y-93103000D01*
X132213035Y-109703500D02*
X133997758Y-108286553D01*
X143881804Y-53341508D02*
X143962950Y-53289486D01*
X49999994Y-145000096D02*
X50006513Y-145257006D01*
X150000006Y-71757005D02*
X150000006Y-70467996D01*
X149974143Y-54489395D02*
X149942289Y-54239459D01*
X146758629Y-55953260D02*
X146710472Y-56037013D01*
X148699550Y-51639771D02*
X148533884Y-51466028D01*
X146602691Y-53803307D02*
X146658451Y-53881720D01*
X149478327Y-97595297D02*
X149520709Y-97547254D01*
X149561474Y-97497948D02*
X149600595Y-97447424D01*
X103686080Y-50000985D02*
X103620689Y-50004199D01*
X49999994Y-116641845D02*
X49999994Y-117930856D01*
X144596957Y-53040573D02*
X144695447Y-53022985D01*
X143089939Y-54405203D02*
X143121383Y-54312274D01*
X138554979Y-49999908D02*
X137265973Y-49999908D01*
X144500195Y-53062906D02*
X144596957Y-53040573D01*
X145000031Y-56999933D02*
X145000031Y-56999933D01*
X149144920Y-52206296D02*
X149005384Y-52010222D01*
X143241412Y-55953260D02*
X143197245Y-55867025D01*
X50200555Y-102878797D02*
X50173623Y-102936632D01*
X125664919Y-49999908D02*
X124375913Y-49999908D01*
X144312357Y-56878575D02*
X144221534Y-56842765D01*
X53514786Y-149774924D02*
X53751888Y-149842406D01*
X147590727Y-50724802D02*
X147381346Y-50604270D01*
X134687961Y-49999908D02*
X133398955Y-49999908D01*
X149293115Y-97773970D02*
X149341721Y-97731414D01*
X50493802Y-147165875D02*
X50604357Y-147381433D01*
X146937052Y-54500111D02*
X146959384Y-54596874D01*
X150000006Y-92381156D02*
X150000006Y-91092146D01*
X82814290Y-76372427D02*
X81240797Y-78019475D01*
X146658451Y-56118159D02*
X146602691Y-56196571D01*
X143289569Y-56037013D02*
X143241412Y-55953260D01*
X143023068Y-55304526D02*
X143010350Y-55204435D01*
X49999994Y-141133062D02*
X49999994Y-142422073D01*
X146006414Y-50101672D02*
X145760439Y-50057625D01*
X93103083Y-64195718D02*
X91713452Y-66002162D01*
X144695447Y-53022985D02*
X144795540Y-53010266D01*
X50706898Y-102225946D02*
X50658291Y-102268503D01*
X49999994Y-134688005D02*
X49999994Y-135977016D01*
X99629287Y-54849898D02*
X98381472Y-56759711D01*
X146414235Y-53585725D02*
X146480457Y-53655184D01*
X147165788Y-50493716D02*
X146944369Y-50393454D01*
X150000006Y-65311958D02*
X150000006Y-64022949D01*
X145403098Y-56959301D02*
X145304609Y-56976889D01*
X62367991Y-94464966D02*
X60519153Y-95798919D01*
X96699518Y-149948538D02*
X96761916Y-149933021D01*
X149982974Y-96508881D02*
X149990388Y-96444313D01*
X51666666Y-50000000D02*
G75*
G03*
X51666666Y-50000000I-1666666J0D01*
G01*
X47500000Y-50000000D02*
X52500000Y-50000000D01*
X50000000Y-47500000D02*
X50000000Y-52500000D01*
M02*
