M48
; DRILL file {KiCad 5.99.0-unknown-748bee1bc~104~ubuntu20.04.1} date Thu Sep 24 12:18:32 2020
; FORMAT={-:-/ absolute / inch / decimal}
; #@! TF.CreationDate,2020-09-24T12:18:32+09:30
; #@! TF.GenerationSoftware,Kicad,Pcbnew,5.99.0-unknown-748bee1bc~104~ubuntu20.04.1
; #@! TF.FileFunction,Plated,1,4,PTH
FMAT,2
INCH
T1C0.0118
T2C0.0197
T3C0.0236
T4C0.0400
%
G90
G05
T1
X2.3306Y-4.026
X2.373Y-5.188
X2.3861Y-4.3736
X2.4183Y-5.4911
X2.4203Y-5.5492
X2.4388Y-4.2028
X2.4609Y-3.9193
X2.4723Y-5.1203
X2.4776Y-4.4859
X2.5243Y-4.5268
X2.5499Y-4.3369
X2.5551Y-5.5502
X2.5561Y-5.4931
X2.5624Y-4.9994
X2.5646Y-4.9663
X2.5915Y-5.0335
X2.6191Y-5.0138
X2.6344Y-5.505
X2.6416Y-5.1906
X2.6416Y-5.2906
X2.6585Y-5.5632
X2.6652Y-4.6274
X2.6688Y-3.7748
X2.6791Y-5.4764
X2.7042Y-4.9173
X2.7067Y-5.1112
X2.7113Y-4.9526
X2.7136Y-4.875
X2.7156Y-4.7684
X2.7353Y-4.8969
X2.7402Y-5.1122
X2.7402Y-5.2906
X2.7416Y-5.1906
X2.7638Y-5.3848
X2.7805Y-4.7234
X2.7825Y-4.7589
X2.7881Y-5.7197
X2.7975Y-3.675
X2.8494Y-5.2461
X2.8506Y-5.3617
X2.8789Y-5.2313
X2.8931Y-4.0634
X2.8941Y-4.7523
X2.8979Y-3.9179
X2.9125Y-5.3746
X2.9125Y-5.5556
X2.923Y-5.1985
X2.9278Y-4.7547
X2.9409Y-4.6122
X2.9535Y-5.1877
X2.9567Y-4.7707
X3.0049Y-5.3238
X3.0114Y-5.1463
X3.0217Y-5.3524
X3.0404Y-5.1329
X3.053Y-4.7217
X3.0784Y-3.3173
X3.0837Y-4.7476
X3.1073Y-4.9815
X3.1284Y-3.3702
X3.129Y-5.47
X3.1341Y-4.0697
X3.1348Y-3.2614
X3.1435Y-4.3294
X3.1457Y-4.248
X3.155Y-4.9319
X3.1585Y-5.686
X3.1659Y-4.0704
X3.1762Y-3.4144
X3.1781Y-4.3337
X3.1819Y-4.1267
X3.1821Y-4.8317
X3.1841Y-3.3118
X3.1921Y-3.2108
X3.1991Y-4.9331
X3.2009Y-5.3719
X3.2097Y-4.0028
X3.2265Y-3.4685
X3.2285Y-4.4044
X3.234Y-3.3642
X3.2405Y-3.2577
X3.2417Y-4.0056
X3.2472Y-3.1541
X3.2633Y-5.0322
X3.2711Y-5.4221
X3.2711Y-5.4728
X3.2731Y-4.0439
X3.2731Y-4.449
X3.2745Y-3.5135
X3.2782Y-4.7945
X3.2816Y-3.4083
X3.2886Y-3.3039
X3.2952Y-3.1993
X3.3016Y-4.2423
X3.3016Y-3.0965
X3.3142Y-4.5081
X3.3231Y-3.5612
X3.332Y-3.4626
X3.3336Y-4.2478
X3.335Y-4.2812
X3.3383Y-3.3555
X3.3452Y-3.2522
X3.35Y-3.1431
X3.3552Y-3.0377
X3.3727Y-3.612
X3.3803Y-3.509
X3.387Y-3.4034
X3.3928Y-4.0481
X3.394Y-3.3005
X3.3999Y-3.1955
X3.4049Y-3.0892
X3.4089Y-2.9813
X3.4221Y-3.6623
X3.4283Y-4.0293
X3.4288Y-4.4254
X3.4294Y-3.5583
X3.4331Y-4.6076
X3.4363Y-3.4537
X3.4409Y-5.687
X3.4422Y-4.3425
X3.4423Y-3.3472
X3.4486Y-3.2431
X3.4536Y-3.1366
X3.4547Y-4.2256
X3.4567Y-5.6575
X3.4581Y-3.0304
X3.4587Y-5.6171
X3.4603Y-2.9188
X3.4675Y-4.6447
X3.4702Y-3.7082
X3.4736Y-4.3032
X3.4742Y-3.9639
X3.4776Y-3.6047
X3.4825Y-4.0432
X3.4849Y-3.5014
X3.4914Y-3.3964
X3.497Y-3.29
X3.4972Y-4.0996
X3.5034Y-3.1884
X3.5074Y-3.0795
X3.5099Y-2.9686
X3.5136Y-2.865
X3.5194Y-3.7579
X3.5243Y-4.4664
X3.5276Y-3.6577
X3.5313Y-4.0168
X3.534Y-3.551
X3.5414Y-3.4501
X3.5424Y-4.4357
X3.5462Y-3.3397
X3.549Y-4.0419
X3.5512Y-3.2325
X3.5535Y-4.11
X3.5556Y-4.1678
X3.5569Y-3.1299
X3.5608Y-3.0233
X3.5625Y-2.9113
X3.5643Y-2.8029
X3.5697Y-3.8119
X3.5755Y-3.7025
X3.5793Y-4.5213
X3.5837Y-3.6032
X3.5889Y-3.4932
X3.5963Y-3.3929
X3.6006Y-3.2823
X3.6022Y-4.0878
X3.6059Y-3.1781
X3.6094Y-3.0691
X3.6119Y-2.9598
X3.6134Y-2.8496
X3.6141Y-4.5227
X3.6148Y-4.5582
X3.6149Y-2.7431
X3.618Y-4.1141
X3.6181Y-3.8584
X3.6183Y-4.1845
X3.6249Y-3.7529
X3.6327Y-3.6524
X3.6348Y-4.2162
X3.6379Y-3.5422
X3.645Y-3.4406
X3.6497Y-3.3314
X3.651Y-4.5582
X3.6526Y-4.3226
X3.655Y-3.2265
X3.6597Y-3.1222
X3.6622Y-3.0115
X3.6642Y-2.9021
X3.6642Y-2.7891
X3.6645Y-2.6812
X3.6666Y-3.9052
X3.6672Y-4.2472
X3.6732Y-4.1532
X3.6747Y-3.8055
X3.6781Y-4.4434
X3.6788Y-4.3066
X3.681Y-3.6986
X3.6872Y-3.5923
X3.6932Y-3.4866
X3.6993Y-3.3821
X3.7047Y-3.2773
X3.7094Y-3.1727
X3.7115Y-3.0594
X3.7128Y-2.6165
X3.7139Y-2.9512
X3.7145Y-2.7289
X3.7151Y-2.8416
X3.7155Y-4.2787
X3.7159Y-3.9554
X3.7235Y-3.8537
X3.7297Y-3.7468
X3.7358Y-3.6401
X3.743Y-3.5386
X3.7483Y-3.431
X3.7542Y-3.3278
X3.7549Y-5.748
X3.7587Y-3.2209
X3.761Y-2.5532
X3.7617Y-3.1109
X3.7637Y-4.2089
X3.7642Y-2.6684
X3.7645Y-3.0031
X3.7652Y-4.0054
X3.7658Y-2.893
X3.7662Y-2.7837
X3.7713Y-3.8981
X3.7784Y-3.7946
X3.7804Y-4.2798
X3.7818Y-4.2478
X3.7825Y-4.3474
X3.7856Y-3.6921
X3.7924Y-3.5893
X3.7974Y-3.4797
X3.8024Y-3.3727
X3.8041Y-4.4093
X3.807Y-3.2659
X3.8087Y-2.4903
X3.8114Y-3.1603
X3.8127Y-2.6048
X3.8145Y-4.0558
X3.8146Y-2.7164
X3.8148Y-3.0545
X3.8161Y-2.9433
X3.8166Y-2.8326
X3.8216Y-3.9526
X3.8273Y-3.8437
X3.8326Y-4.3218
X3.8343Y-3.7401
X3.8409Y-3.636
X3.8417Y-4.8937
X3.8431Y-4.9271
X3.846Y-3.5273
X3.8486Y-4.3481
X3.8522Y-3.4239
X3.8528Y-4.416
X3.8558Y-2.4276
X3.8578Y-3.3206
X3.8605Y-2.541
X3.8611Y-3.21
X3.8618Y-4.4754
X3.8629Y-4.1021
X3.8643Y-2.6561
X3.8644Y-3.1024
X3.8659Y-2.7681
X3.8668Y-2.9951
X3.8673Y-2.883
X3.8694Y-3.9969
X3.8774Y-3.8975
X3.8838Y-3.7913
X3.8904Y-3.6871
X3.8964Y-3.581
X3.9001Y-4.3912
X3.9018Y-3.4744
X3.9062Y-3.3657
X3.9086Y-2.4803
X3.9111Y-3.2608
X3.912Y-4.1516
X3.9131Y-2.5945
X3.915Y-3.155
X3.9154Y-2.7057
X3.9172Y-3.0454
X3.9175Y-4.4197
X3.9178Y-2.8215
X3.9178Y-2.9327
X3.9181Y-4.0449
X3.9217Y-5.0907
X3.926Y-3.9449
X3.9316Y-3.8359
X3.9385Y-3.7323
X3.9446Y-3.6267
X3.9502Y-3.5205
X3.9562Y-3.4169
X3.9603Y-3.3085
X3.9605Y-2.5293
X3.9609Y-4.2
X3.9648Y-5.0461
X3.965Y-3.2048
X3.9658Y-2.6487
X3.9669Y-5.4212
X3.9672Y-3.094
X3.9678Y-4.0965
X3.9683Y-2.9824
X3.9686Y-2.7636
X3.969Y-2.873
X3.9752Y-3.9952
X3.9819Y-3.8903
X3.9883Y-3.7846
X3.9946Y-3.679
X4.0Y-3.5715
X4.0062Y-3.4687
X4.0099Y-3.3575
X4.0104Y-4.251
X4.014Y-3.2506
X4.0142Y-2.5858
X4.0159Y-4.1425
X4.0177Y-2.6994
X4.0182Y-3.1472
X4.0192Y-3.0336
X4.0193Y-2.811
X4.0199Y-2.9228
X4.0236Y-4.0416
X4.0295Y-3.9338
X4.0371Y-3.8326
X4.0428Y-5.291
X4.0431Y-3.7257
X4.047Y-4.6772
X4.0501Y-3.6239
X4.0543Y-3.5128
X4.0599Y-4.3024
X4.0608Y-3.4121
X4.065Y-3.3045
X4.0654Y-4.1928
X4.0672Y-2.6395
X4.0676Y-3.1935
X4.0691Y-2.7487
X4.0707Y-3.0874
X4.0712Y-2.8635
X4.0716Y-2.976
X4.0729Y-4.0923
X4.079Y-3.9847
X4.0804Y-4.7148
X4.0811Y-4.6793
X4.0861Y-3.8813
X4.0923Y-3.7751
X4.0988Y-3.6709
X4.1054Y-3.5686
X4.1085Y-4.3492
X4.1099Y-3.4591
X4.114Y-3.3504
X4.1152Y-4.2458
X4.1173Y-4.7127
X4.1185Y-3.2456
X4.1196Y-2.6902
X4.1208Y-3.1354
X4.1213Y-4.1387
X4.1214Y-2.801
X4.1228Y-2.9147
X4.1233Y-3.0294
X4.1288Y-4.0371
X4.1354Y-3.9316
X4.1412Y-3.8235
X4.1472Y-3.7171
X4.1546Y-3.6166
X4.158Y-4.4007
X4.1604Y-3.512
X4.1629Y-4.29
X4.1652Y-3.4054
X4.1684Y-3.2941
X4.1708Y-4.1903
X4.1721Y-3.1882
X4.1723Y-2.7427
X4.1737Y-3.077
X4.1744Y-2.8563
X4.1751Y-2.9688
X4.1775Y-4.0848
X4.184Y-3.979
X4.1905Y-3.8732
X4.1973Y-3.7692
X4.2037Y-3.6642
X4.2066Y-4.4477
X4.2097Y-3.5595
X4.2123Y-4.3402
X4.2133Y-5.1026
X4.2148Y-3.4532
X4.2188Y-3.3444
X4.2193Y-4.2371
X4.223Y-3.2392
X4.2243Y-2.7924
X4.2249Y-3.128
X4.226Y-4.1319
X4.2265Y-2.9081
X4.2269Y-3.0211
X4.2332Y-4.0285
X4.2391Y-3.9205
X4.2471Y-3.8203
X4.2538Y-3.7166
X4.2559Y-4.498
X4.2589Y-3.6073
X4.2619Y-4.3918
X4.2646Y-3.5021
X4.2686Y-4.2878
X4.2698Y-3.3973
X4.2728Y-3.2864
X4.2749Y-4.1809
X4.2763Y-3.18
X4.2774Y-2.8461
X4.2775Y-3.0683
X4.2793Y-2.9625
X4.2822Y-4.0774
X4.2893Y-3.9734
X4.2959Y-3.8678
X4.2975Y-4.9638
X4.3033Y-3.766
X4.3047Y-4.5457
X4.3097Y-3.6617
X4.311Y-4.4415
X4.3151Y-3.5543
X4.3169Y-4.334
X4.3191Y-3.4437
X4.3236Y-4.2289
X4.3241Y-3.3389
X4.328Y-3.2335
X4.3305Y-3.1251
X4.3311Y-2.9025
X4.3312Y-4.1264
X4.3312Y-3.0133
X4.3381Y-4.0213
X4.346Y-3.9206
X4.3523Y-3.8133
X4.3538Y-4.595
X4.3594Y-3.7111
X4.3595Y-4.4885
X4.3654Y-3.6053
X4.3662Y-4.3842
X4.3709Y-3.4997
X4.3729Y-4.2792
X4.3753Y-3.3914
X4.3791Y-3.284
X4.3807Y-4.1777
X4.3807Y-3.1711
X4.3827Y-3.0625
X4.383Y-2.9517
X4.3879Y-4.0733
X4.3952Y-3.9692
X4.4015Y-3.8618
X4.4025Y-4.643
X4.4082Y-3.7568
X4.4084Y-4.5373
X4.4144Y-4.4307
X4.4147Y-3.6521
X4.42Y-3.5449
X4.422Y-4.3286
X4.4261Y-3.4423
X4.4297Y-4.2265
X4.4304Y-3.3355
X4.4334Y-3.2265
X4.4347Y-3.1143
X4.4357Y-4.1172
X4.4369Y-3.0092
X4.4438Y-4.0156
X4.4508Y-3.9104
X4.4517Y-4.6926
X4.4568Y-4.5841
X4.4587Y-3.8093
X4.4635Y-4.48
X4.464Y-3.6998
X4.4706Y-4.3763
X4.4713Y-3.5988
X4.4769Y-3.4934
X4.4785Y-4.2748
X4.4811Y-3.3844
X4.4856Y-3.2803
X4.486Y-4.1705
X4.487Y-3.1664
X4.4895Y-3.061
X4.4926Y-4.063
X4.4996Y-4.7376
X4.501Y-3.9625
X4.5061Y-4.6346
X4.5086Y-3.8602
X4.5125Y-4.5292
X4.5144Y-3.7507
X4.5199Y-4.4264
X4.5214Y-3.6479
X4.5264Y-4.3193
X4.5265Y-3.5397
X4.5321Y-3.4349
X4.5349Y-4.2188
X4.5373Y-3.3323
X4.5404Y-3.2236
X4.5415Y-3.1104
X4.5417Y-4.1118
X4.55Y-4.01
X4.55Y-4.7919
X4.5556Y-4.6854
X4.5579Y-3.9076
X4.5609Y-4.5765
X4.565Y-3.8028
X4.5691Y-4.4766
X4.5713Y-3.6966
X4.5762Y-4.3713
X4.5785Y-3.5951
X4.5832Y-3.4858
X4.5837Y-4.2666
X4.5883Y-3.3807
X4.5916Y-4.163
X4.5928Y-3.2764
X4.5951Y-3.1662
X4.5989Y-4.8401
X4.6004Y-4.0634
X4.6046Y-4.7348
X4.608Y-3.959
X4.6105Y-4.6277
X4.6157Y-3.8561
X4.617Y-4.5215
X4.6215Y-3.7464
X4.6254Y-4.421
X4.6283Y-3.642
X4.6337Y-4.3197
X4.6343Y-3.5368
X4.6405Y-4.2109
X4.6405Y-3.4345
X4.645Y-3.3284
X4.6479Y-3.2192
X4.6495Y-4.1111
X4.6531Y-4.782
X4.6568Y-4.0048
X4.6598Y-4.678
X4.6658Y-3.9061
X4.6659Y-4.5703
X4.6725Y-3.7986
X4.6745Y-4.4705
X4.6798Y-3.6955
X4.6815Y-4.3633
X4.6862Y-3.5902
X4.6897Y-4.2599
X4.6918Y-3.4846
X4.6966Y-3.3778
X4.6991Y-4.161
X4.6997Y-3.2679
X4.7071Y-4.0566
X4.7078Y-4.7235
X4.715Y-3.9526
X4.716Y-4.6238
X4.7222Y-3.8467
X4.7234Y-4.5187
X4.731Y-3.748
X4.7318Y-4.4168
X4.7374Y-3.6413
X4.74Y-4.3129
X4.744Y-3.5385
X4.7485Y-4.2103
X4.7494Y-3.4326
X4.7531Y-3.323
X4.7563Y-4.1045
X4.7643Y-4.0001
X4.7648Y-4.6717
X4.7722Y-4.5669
X4.7736Y-3.9008
X4.7797Y-4.4612
X4.7817Y-3.7984
X4.7879Y-3.6901
X4.7893Y-4.3625
X4.7946Y-3.5858
X4.7969Y-4.2555
X4.8008Y-3.4814
X4.8054Y-3.3738
X4.8061Y-4.1544
X4.8157Y-4.055
X4.8206Y-4.6136
X4.823Y-3.9477
X4.8296Y-4.5133
X4.832Y-3.8472
X4.8386Y-4.4118
X4.8405Y-3.7468
X4.8466Y-4.3056
X4.847Y-3.6398
X4.8537Y-3.5364
X4.8567Y-4.2072
X4.859Y-3.4299
X4.8653Y-4.1032
X4.8746Y-4.0024
X4.878Y-4.5596
X4.8833Y-3.9001
X4.8868Y-4.4571
X4.8916Y-3.7977
X4.896Y-4.3549
X4.8989Y-3.6923
X4.9052Y-3.5857
X4.9064Y-4.2569
X4.9118Y-3.4826
X4.9147Y-4.1508
X4.924Y-4.0491
X4.9336Y-3.9487
X4.9371Y-4.5099
X4.9428Y-3.8488
X4.9465Y-4.4079
X4.9507Y-3.7444
X4.9551Y-4.3027
X4.9578Y-3.6392
X4.9646Y-3.5351
X4.966Y-4.206
X4.9753Y-4.1029
X4.9837Y-3.997
X4.9932Y-3.8966
X4.9951Y-4.4541
X5.0012Y-3.7917
X5.0054Y-4.3542
X5.0099Y-3.6911
X5.015Y-4.2518
X5.0177Y-3.5897
X5.0246Y-4.1491
X5.0349Y-4.0495
X5.0452Y-3.9511
X5.054Y-3.8476
X5.0551Y-4.404
X5.0616Y-3.7411
X5.0647Y-4.3007
X5.0692Y-3.6371
X5.0759Y-4.2029
X5.0862Y-4.1023
X5.0964Y-4.0023
X5.1057Y-3.8993
X5.1151Y-3.7988
X5.1154Y-4.3529
X5.123Y-3.6937
X5.1267Y-4.2549
X5.136Y-4.1494
X5.1477Y-4.0539
X5.1566Y-3.9477
X5.1662Y-3.8463
X5.1758Y-3.7464
X5.1771Y-4.3053
X5.188Y-4.205
X5.1978Y-4.1003
X5.2094Y-4.0038
X5.2186Y-3.899
X5.228Y-3.7966
X5.2386Y-4.2547
X5.2487Y-4.1505
X5.2604Y-4.0525
X5.2711Y-3.9522
X5.2811Y-3.8506
X5.3009Y-4.2052
X5.3125Y-4.1061
X5.3234Y-4.0048
X5.334Y-3.9039
X5.3644Y-4.1587
X5.3762Y-4.0594
X5.3873Y-3.9588
X5.4278Y-4.1088
X5.439Y-4.0071
X5.4918Y-4.06
T4
X5.4252Y-3.621
X5.4959Y-3.5503
X5.4959Y-3.6917
X5.5667Y-3.621
X5.5667Y-3.7624
X5.6374Y-3.6917
T2
G00X2.616Y-5.6193
M15
G01X2.616Y-5.6665
M16
G05
G00X2.9562Y-5.6193
M15
G01X2.9562Y-5.6665
M16
G05
T3
G00X2.616Y-5.7917
M15
G01X2.616Y-5.8232
M16
G05
G00X2.9562Y-5.7917
M15
G01X2.9562Y-5.8232
M16
G05
T0
M30
