G04 #@! TF.GenerationSoftware,KiCad,Pcbnew,(5.99.0-3349-g91c4a681c)*
G04 #@! TF.CreationDate,2020-09-20T22:46:24+02:00*
G04 #@! TF.ProjectId,badge,62616467-652e-46b6-9963-61645f706362,0.1*
G04 #@! TF.SameCoordinates,Original*
G04 #@! TF.FileFunction,Soldermask,Top*
G04 #@! TF.FilePolarity,Negative*
%FSLAX46Y46*%
G04 Gerber Fmt 4.6, Leading zero omitted, Abs format (unit mm)*
G04 Created by KiCad (PCBNEW (5.99.0-3349-g91c4a681c)) date 2020-09-20 22:46:24*
%MOMM*%
%LPD*%
G01*
G04 APERTURE LIST*
%ADD10C,1.727200*%
%ADD11R,1.016000X1.016000*%
%ADD12O,0.200000X0.800000*%
%ADD13O,0.200000X1.000000*%
%ADD14O,0.800000X0.200000*%
%ADD15O,1.000000X0.200000*%
%ADD16R,1.000000X1.000000*%
%ADD17R,0.650000X1.060000*%
%ADD18R,1.060000X0.650000*%
%ADD19R,5.300000X5.300000*%
%ADD20C,0.650000*%
%ADD21R,0.300000X1.750000*%
%ADD22O,0.900000X2.100000*%
%ADD23O,1.000000X1.800000*%
G04 APERTURE END LIST*
G04 #@! TO.C,G\u002A\u002A\u002A*
G36*
X142722968Y-76974448D02*
G01*
X142735500Y-78544563D01*
X142831518Y-78622273D01*
X142935807Y-78676230D01*
X143048432Y-78665310D01*
X143112878Y-78651122D01*
X143158119Y-78663719D01*
X143198358Y-78718064D01*
X143247794Y-78829119D01*
X143279798Y-78909074D01*
X143331932Y-79048329D01*
X143365498Y-79153600D01*
X143373784Y-79203643D01*
X143373155Y-79204623D01*
X143310224Y-79230987D01*
X143182537Y-79259812D01*
X143009801Y-79287657D01*
X142811722Y-79311083D01*
X142714334Y-79319675D01*
X142528546Y-79328975D01*
X142395079Y-79319874D01*
X142282899Y-79288819D01*
X142224289Y-79263573D01*
X142057757Y-79146195D01*
X141970289Y-79018620D01*
X141949605Y-78971778D01*
X141932504Y-78916762D01*
X141918508Y-78845020D01*
X141907139Y-78747999D01*
X141897920Y-78617148D01*
X141890372Y-78443914D01*
X141884018Y-78219744D01*
X141878379Y-77936088D01*
X141872977Y-77584391D01*
X141867667Y-77182334D01*
X141862164Y-76812864D01*
X141855458Y-76469046D01*
X141847848Y-76160281D01*
X141839638Y-75895970D01*
X141831130Y-75685515D01*
X141822626Y-75538318D01*
X141814427Y-75463781D01*
X141812252Y-75457250D01*
X141814980Y-75433317D01*
X141866931Y-75417421D01*
X141978644Y-75408272D01*
X142160659Y-75404577D01*
X142244220Y-75404334D01*
X142710436Y-75404334D01*
X142722968Y-76974448D01*
G37*
G36*
X134628667Y-81542667D02*
G01*
X134837578Y-81542667D01*
X134985961Y-81534228D01*
X135116267Y-81512946D01*
X135155078Y-81501381D01*
X135263667Y-81460096D01*
X135263667Y-82158145D01*
X134628667Y-82126079D01*
X134628667Y-82801479D01*
X134629472Y-83057366D01*
X134632888Y-83242213D01*
X134640419Y-83369638D01*
X134653566Y-83453263D01*
X134673832Y-83506704D01*
X134702720Y-83543582D01*
X134711445Y-83551791D01*
X134823242Y-83601885D01*
X134975853Y-83604184D01*
X135139913Y-83558250D01*
X135140150Y-83558146D01*
X135183432Y-83559935D01*
X135231296Y-83611729D01*
X135292518Y-83725301D01*
X135336402Y-83821394D01*
X135465672Y-84114064D01*
X135151799Y-84183032D01*
X134858017Y-84231925D01*
X134577216Y-84249684D01*
X134328860Y-84236597D01*
X134132411Y-84192951D01*
X134073025Y-84167157D01*
X133981995Y-84110043D01*
X133911830Y-84039496D01*
X133859913Y-83944478D01*
X133823630Y-83813952D01*
X133800366Y-83636884D01*
X133787507Y-83402235D01*
X133782437Y-83098971D01*
X133782000Y-82938810D01*
X133782000Y-82135334D01*
X133274000Y-82135334D01*
X133274000Y-81546892D01*
X133760834Y-81521500D01*
X133785066Y-80696000D01*
X134628667Y-80696000D01*
X134628667Y-81542667D01*
G37*
G36*
X128194000Y-80954529D02*
G01*
X128192669Y-81135739D01*
X128186662Y-81246552D01*
X128172957Y-81301225D01*
X128148532Y-81314011D01*
X128119917Y-81303990D01*
X128053889Y-81291017D01*
X127919321Y-81278475D01*
X127732338Y-81267398D01*
X127509063Y-81258814D01*
X127356240Y-81255138D01*
X126666646Y-81242354D01*
X126678906Y-81614761D01*
X126691167Y-81987167D01*
X127199167Y-81987167D01*
X127409607Y-81984498D01*
X127598919Y-81977245D01*
X127745357Y-81966545D01*
X127823584Y-81954610D01*
X127940000Y-81922054D01*
X127940000Y-82327880D01*
X127939310Y-82514910D01*
X127934773Y-82631700D01*
X127922686Y-82692678D01*
X127899348Y-82712270D01*
X127861057Y-82704903D01*
X127844750Y-82699103D01*
X127766728Y-82685745D01*
X127624155Y-82674783D01*
X127437140Y-82667330D01*
X127225788Y-82664502D01*
X127220334Y-82664500D01*
X126691167Y-82664500D01*
X126679071Y-83101286D01*
X126666975Y-83538071D01*
X127356404Y-83523352D01*
X127594289Y-83516288D01*
X127806094Y-83506281D01*
X127975693Y-83494382D01*
X128086958Y-83481640D01*
X128119917Y-83473620D01*
X128154869Y-83464091D01*
X128176729Y-83485209D01*
X128188517Y-83551269D01*
X128193255Y-83676566D01*
X128194000Y-83824138D01*
X128194000Y-84209667D01*
X126945167Y-84209667D01*
X126629796Y-84208566D01*
X126343673Y-84205452D01*
X126097235Y-84200608D01*
X125900915Y-84194317D01*
X125765148Y-84186862D01*
X125700370Y-84178526D01*
X125696334Y-84175800D01*
X125722878Y-84119924D01*
X125749250Y-84089017D01*
X125763823Y-84032932D01*
X125776264Y-83903460D01*
X125786579Y-83711853D01*
X125794771Y-83469364D01*
X125800846Y-83187246D01*
X125804809Y-82876751D01*
X125806665Y-82549130D01*
X125806418Y-82215638D01*
X125804074Y-81887527D01*
X125799638Y-81576048D01*
X125793113Y-81292455D01*
X125784506Y-81048000D01*
X125773821Y-80853936D01*
X125761063Y-80721514D01*
X125747761Y-80664250D01*
X125693355Y-80569000D01*
X128194000Y-80569000D01*
X128194000Y-80954529D01*
G37*
G36*
X132522413Y-80262248D02*
G01*
X132598053Y-80294550D01*
X132732132Y-80404902D01*
X132814393Y-80556497D01*
X132844572Y-80728207D01*
X132822404Y-80898907D01*
X132747625Y-81047467D01*
X132619972Y-81152762D01*
X132608845Y-81158060D01*
X132463551Y-81195999D01*
X132296631Y-81199708D01*
X132144751Y-81171136D01*
X132061872Y-81128976D01*
X131937988Y-80983857D01*
X131881872Y-80797985D01*
X131877000Y-80708203D01*
X131913875Y-80521504D01*
X132013440Y-80374044D01*
X132159110Y-80275338D01*
X132334297Y-80234900D01*
X132522413Y-80262248D01*
G37*
G36*
X128673605Y-82791500D02*
G01*
X128727783Y-82397678D01*
X128828176Y-82074063D01*
X128975300Y-81819584D01*
X129169676Y-81633171D01*
X129262349Y-81576589D01*
X129461331Y-81506410D01*
X129693809Y-81477353D01*
X129928082Y-81489484D01*
X130132447Y-81542870D01*
X130196781Y-81574640D01*
X130353000Y-81666811D01*
X130352739Y-81107322D01*
X130349113Y-80837855D01*
X130337860Y-80641749D01*
X130317982Y-80507958D01*
X130291750Y-80431417D01*
X130231021Y-80315000D01*
X131197132Y-80315000D01*
X131208983Y-82188250D01*
X131212254Y-82580625D01*
X131216838Y-82948422D01*
X131222512Y-83282665D01*
X131229055Y-83574380D01*
X131236244Y-83814590D01*
X131243859Y-83994322D01*
X131251677Y-84104599D01*
X131257113Y-84135584D01*
X131266784Y-84168450D01*
X131248240Y-84189873D01*
X131188016Y-84202268D01*
X131072648Y-84208051D01*
X130888674Y-84209640D01*
X130844363Y-84209667D01*
X130644792Y-84208591D01*
X130515003Y-84203519D01*
X130440121Y-84191686D01*
X130405268Y-84170326D01*
X130395571Y-84136674D01*
X130395334Y-84126191D01*
X130390583Y-84080317D01*
X130363979Y-84069660D01*
X130296987Y-84096213D01*
X130198528Y-84147358D01*
X130050880Y-84212175D01*
X129899015Y-84243134D01*
X129722278Y-84249317D01*
X129560794Y-84241936D01*
X129420804Y-84225422D01*
X129343145Y-84206706D01*
X129109017Y-84068857D01*
X128920447Y-83865608D01*
X128781379Y-83605291D01*
X128695755Y-83296241D01*
X128678726Y-83085507D01*
X129560767Y-83085507D01*
X129608325Y-83322520D01*
X129704358Y-83490430D01*
X129750757Y-83533887D01*
X129898337Y-83599122D01*
X130070599Y-83592060D01*
X130249512Y-83513509D01*
X130252766Y-83511391D01*
X130292395Y-83482937D01*
X130319928Y-83448824D01*
X130337225Y-83394920D01*
X130346146Y-83307091D01*
X130348550Y-83171207D01*
X130346297Y-82973135D01*
X130343539Y-82821539D01*
X130331834Y-82198834D01*
X130150233Y-82136059D01*
X130028860Y-82099867D01*
X129947443Y-82097715D01*
X129868393Y-82129658D01*
X129856019Y-82136492D01*
X129719314Y-82254327D01*
X129625454Y-82433568D01*
X129571442Y-82680768D01*
X129561754Y-82779673D01*
X129560767Y-83085507D01*
X128678726Y-83085507D01*
X128667516Y-82946789D01*
X128673605Y-82791500D01*
G37*
G36*
X134553051Y-76155750D02*
G01*
X134565167Y-76568500D01*
X134807481Y-76581163D01*
X134956957Y-76580392D01*
X135082492Y-76564887D01*
X135135564Y-76547924D01*
X135176000Y-76530309D01*
X135201195Y-76539645D01*
X135214749Y-76590120D01*
X135220262Y-76695921D01*
X135221332Y-76871236D01*
X135221334Y-76886000D01*
X135220434Y-77066545D01*
X135215337Y-77176613D01*
X135202442Y-77230392D01*
X135178150Y-77242070D01*
X135138862Y-77225835D01*
X135135564Y-77224077D01*
X135046548Y-77200686D01*
X134909292Y-77189566D01*
X134807481Y-77190837D01*
X134565167Y-77203500D01*
X134565167Y-77863848D01*
X134566958Y-78137985D01*
X134574184Y-78339610D01*
X134589620Y-78480836D01*
X134616041Y-78573774D01*
X134656225Y-78630538D01*
X134712947Y-78663240D01*
X134751088Y-78675069D01*
X134840364Y-78675002D01*
X134961622Y-78648964D01*
X134986007Y-78641105D01*
X135143613Y-78586923D01*
X135268103Y-78864387D01*
X135326662Y-79002263D01*
X135365003Y-79107112D01*
X135375632Y-79158207D01*
X135374842Y-79159603D01*
X135327311Y-79179489D01*
X135223604Y-79211974D01*
X135130463Y-79238026D01*
X134890529Y-79287630D01*
X134636551Y-79315865D01*
X134398546Y-79320890D01*
X134206528Y-79300865D01*
X134185076Y-79295971D01*
X133980785Y-79206141D01*
X133833495Y-79054216D01*
X133745904Y-78843062D01*
X133741944Y-78825511D01*
X133726819Y-78712279D01*
X133713890Y-78534008D01*
X133704103Y-78310316D01*
X133698401Y-78060822D01*
X133697334Y-77899916D01*
X133697334Y-77182334D01*
X133231667Y-77182334D01*
X133231667Y-76589667D01*
X133697334Y-76589667D01*
X133697334Y-75743000D01*
X134540934Y-75743000D01*
X134553051Y-76155750D01*
G37*
G36*
X118574810Y-55599172D02*
G01*
X118866820Y-55653529D01*
X119090673Y-55743564D01*
X119346102Y-55927170D01*
X119542955Y-56160102D01*
X119679271Y-56428910D01*
X119753092Y-56720143D01*
X119762457Y-57020351D01*
X119705406Y-57316086D01*
X119579979Y-57593895D01*
X119394692Y-57829975D01*
X119197887Y-58001605D01*
X119000067Y-58113558D01*
X118774651Y-58176897D01*
X118499667Y-58202526D01*
X118233808Y-58200388D01*
X118033684Y-58171549D01*
X117960957Y-58149429D01*
X117758394Y-58041310D01*
X117554891Y-57874918D01*
X117374228Y-57672962D01*
X117242939Y-57463822D01*
X117148816Y-57181967D01*
X117120816Y-56873867D01*
X117159330Y-56566633D01*
X117227186Y-56364065D01*
X117358173Y-56146968D01*
X117544765Y-55941592D01*
X117761981Y-55770988D01*
X117984840Y-55658208D01*
X117996401Y-55654261D01*
X118273962Y-55598542D01*
X118574810Y-55599172D01*
G37*
G36*
X142429543Y-81490904D02*
G01*
X142589508Y-81530277D01*
X142716899Y-81609658D01*
X142836853Y-81740303D01*
X142859884Y-81770521D01*
X142886481Y-81810824D01*
X142907417Y-81859213D01*
X142923633Y-81926287D01*
X142936067Y-82022647D01*
X142945656Y-82158890D01*
X142953339Y-82345616D01*
X142960055Y-82593423D01*
X142966741Y-82912911D01*
X142968334Y-82995572D01*
X142975286Y-83295371D01*
X142983957Y-83568448D01*
X142993784Y-83803012D01*
X143004204Y-83987271D01*
X143014654Y-84109434D01*
X143023749Y-84156750D01*
X143020563Y-84179395D01*
X142969880Y-84194920D01*
X142861587Y-84204397D01*
X142685572Y-84208899D01*
X142524842Y-84209667D01*
X142305105Y-84209066D01*
X142157478Y-84205862D01*
X142069409Y-84197955D01*
X142028343Y-84183244D01*
X142021726Y-84159628D01*
X142035511Y-84127783D01*
X142051695Y-84055835D01*
X142064280Y-83917528D01*
X142073325Y-83728254D01*
X142078884Y-83503408D01*
X142081015Y-83258383D01*
X142079774Y-83008575D01*
X142075218Y-82769376D01*
X142067403Y-82556180D01*
X142056386Y-82384381D01*
X142042223Y-82269373D01*
X142028534Y-82228467D01*
X141934399Y-82186526D01*
X141793859Y-82182706D01*
X141635474Y-82215778D01*
X141551603Y-82249007D01*
X141402000Y-82320348D01*
X141402000Y-83183124D01*
X141404169Y-83481722D01*
X141410350Y-83736357D01*
X141420054Y-83936495D01*
X141432793Y-84071601D01*
X141445823Y-84127783D01*
X141460007Y-84161607D01*
X141451406Y-84184551D01*
X141407455Y-84198723D01*
X141315592Y-84206228D01*
X141163252Y-84209173D01*
X140957500Y-84209667D01*
X140738008Y-84209064D01*
X140590617Y-84205851D01*
X140502765Y-84197921D01*
X140461887Y-84183168D01*
X140455421Y-84159484D01*
X140469177Y-84127783D01*
X140483335Y-84059761D01*
X140494852Y-83922351D01*
X140503764Y-83728704D01*
X140510109Y-83491971D01*
X140513921Y-83225304D01*
X140515237Y-82941855D01*
X140514093Y-82654775D01*
X140510526Y-82377215D01*
X140504572Y-82122328D01*
X140496266Y-81903266D01*
X140485646Y-81733178D01*
X140472747Y-81625218D01*
X140462200Y-81593467D01*
X140457556Y-81570761D01*
X140503896Y-81555566D01*
X140611066Y-81546699D01*
X140788910Y-81542979D01*
X140885534Y-81542667D01*
X141091040Y-81543285D01*
X141226483Y-81547163D01*
X141306466Y-81557340D01*
X141345590Y-81576852D01*
X141358460Y-81608736D01*
X141359667Y-81641282D01*
X141359667Y-81739898D01*
X141621565Y-81610089D01*
X141777928Y-81539361D01*
X141912950Y-81499839D01*
X142065160Y-81483050D01*
X142211873Y-81480281D01*
X142429543Y-81490904D01*
G37*
G36*
X132808334Y-82794283D02*
G01*
X132809852Y-83182416D01*
X132814284Y-83511961D01*
X132821446Y-83777307D01*
X132831152Y-83972845D01*
X132843220Y-84092965D01*
X132852156Y-84127783D01*
X132866340Y-84161607D01*
X132857739Y-84184551D01*
X132813788Y-84198723D01*
X132721925Y-84206228D01*
X132569586Y-84209173D01*
X132363834Y-84209667D01*
X132144341Y-84209064D01*
X131996951Y-84205851D01*
X131909098Y-84197921D01*
X131868220Y-84183168D01*
X131861754Y-84159484D01*
X131875511Y-84127783D01*
X131889283Y-84058758D01*
X131900735Y-83911441D01*
X131909644Y-83692181D01*
X131915788Y-83407327D01*
X131918945Y-83063228D01*
X131919334Y-82876167D01*
X131917712Y-82505522D01*
X131912994Y-82191032D01*
X131905404Y-81939045D01*
X131895162Y-81755910D01*
X131882492Y-81647975D01*
X131875511Y-81624550D01*
X131860881Y-81589510D01*
X131870305Y-81566220D01*
X131916777Y-81552286D01*
X132013294Y-81545315D01*
X132172850Y-81542913D01*
X132320011Y-81542667D01*
X132808334Y-81542667D01*
X132808334Y-82794283D01*
G37*
G36*
X130310667Y-77841283D02*
G01*
X130312185Y-78229416D01*
X130316617Y-78558961D01*
X130323779Y-78824307D01*
X130333486Y-79019845D01*
X130345553Y-79139965D01*
X130354490Y-79174783D01*
X130368891Y-79209197D01*
X130359897Y-79232314D01*
X130314735Y-79246376D01*
X130220631Y-79253626D01*
X130064810Y-79256306D01*
X129888016Y-79256667D01*
X129377720Y-79256667D01*
X129410277Y-79140250D01*
X129418934Y-79067863D01*
X129426725Y-78923221D01*
X129433330Y-78718733D01*
X129438429Y-78466809D01*
X129441704Y-78179859D01*
X129442834Y-77876696D01*
X129441993Y-77517956D01*
X129439193Y-77235167D01*
X129434020Y-77019624D01*
X129426057Y-76862627D01*
X129414889Y-76755471D01*
X129400101Y-76689454D01*
X129384733Y-76659612D01*
X129366237Y-76629763D01*
X129377860Y-76609836D01*
X129431876Y-76597853D01*
X129540561Y-76591836D01*
X129716189Y-76589807D01*
X129818650Y-76589667D01*
X130310667Y-76589667D01*
X130310667Y-77841283D01*
G37*
G36*
X130022584Y-75328446D02*
G01*
X130121658Y-75364932D01*
X130217142Y-75444349D01*
X130222744Y-75449923D01*
X130308169Y-75552196D01*
X130345768Y-75657892D01*
X130353000Y-75779170D01*
X130325138Y-75981115D01*
X130236713Y-76130142D01*
X130098533Y-76230075D01*
X129929407Y-76286220D01*
X129760524Y-76270180D01*
X129641719Y-76222518D01*
X129491526Y-76104046D01*
X129402397Y-75932116D01*
X129379334Y-75762036D01*
X129397744Y-75638178D01*
X129464390Y-75527345D01*
X129523267Y-75463600D01*
X129625390Y-75373816D01*
X129721309Y-75331504D01*
X129852760Y-75319820D01*
X129879844Y-75319667D01*
X130022584Y-75328446D01*
G37*
G36*
X136670036Y-82802084D02*
G01*
X136674206Y-83123269D01*
X136680265Y-83419216D01*
X136687808Y-83678702D01*
X136696429Y-83890506D01*
X136705725Y-84043407D01*
X136715290Y-84126183D01*
X136718113Y-84135584D01*
X136727294Y-84166648D01*
X136710308Y-84187591D01*
X136654400Y-84200385D01*
X136546814Y-84207003D01*
X136374795Y-84209416D01*
X136239010Y-84209667D01*
X135723628Y-84209667D01*
X135758231Y-84114417D01*
X135768442Y-84044325D01*
X135776812Y-83904359D01*
X135783350Y-83708031D01*
X135788065Y-83468855D01*
X135790966Y-83200343D01*
X135792063Y-82916010D01*
X135791363Y-82629369D01*
X135788877Y-82353932D01*
X135784614Y-82103213D01*
X135778582Y-81890725D01*
X135770791Y-81729981D01*
X135761249Y-81634495D01*
X135756554Y-81616750D01*
X135747036Y-81584460D01*
X135765067Y-81563180D01*
X135823886Y-81550645D01*
X135936733Y-81544587D01*
X136116848Y-81542739D01*
X136189256Y-81542667D01*
X136658238Y-81542667D01*
X136670036Y-82802084D01*
G37*
G36*
X138806427Y-78098299D02*
G01*
X138933083Y-77896743D01*
X139129822Y-77736469D01*
X139394193Y-77619823D01*
X139723747Y-77549149D01*
X139905148Y-77532197D01*
X140113920Y-77514512D01*
X140244630Y-77486916D01*
X140303819Y-77442857D01*
X140298024Y-77375783D01*
X140233784Y-77279141D01*
X140199126Y-77237611D01*
X140125756Y-77165721D01*
X140046674Y-77132524D01*
X139927771Y-77126252D01*
X139880813Y-77127795D01*
X139705321Y-77151721D01*
X139525499Y-77200881D01*
X139473104Y-77221513D01*
X139358135Y-77269553D01*
X139297006Y-77282338D01*
X139267173Y-77261131D01*
X139255313Y-77233718D01*
X139224236Y-77155296D01*
X139172649Y-77032078D01*
X139134396Y-76943070D01*
X139039666Y-76724973D01*
X139393801Y-76636153D01*
X139652982Y-76585353D01*
X139926052Y-76555910D01*
X140188288Y-76548673D01*
X140414966Y-76564490D01*
X140559600Y-76596142D01*
X140792278Y-76709832D01*
X140964278Y-76876472D01*
X141032460Y-76984815D01*
X141062991Y-77047173D01*
X141086606Y-77113585D01*
X141104537Y-77196245D01*
X141118022Y-77307347D01*
X141128293Y-77459085D01*
X141136586Y-77663654D01*
X141144136Y-77933248D01*
X141148903Y-78134834D01*
X141156766Y-78417132D01*
X141166597Y-78673802D01*
X141177680Y-78891800D01*
X141189298Y-79058081D01*
X141200737Y-79159600D01*
X141206431Y-79182584D01*
X141215618Y-79215455D01*
X141196642Y-79236881D01*
X141136009Y-79249276D01*
X141020226Y-79255057D01*
X140835798Y-79256641D01*
X140792696Y-79256667D01*
X140593294Y-79255660D01*
X140463638Y-79250738D01*
X140388812Y-79239045D01*
X140353902Y-79217727D01*
X140343994Y-79183931D01*
X140343667Y-79170733D01*
X140340081Y-79116037D01*
X140315400Y-79110631D01*
X140248739Y-79155024D01*
X140223485Y-79173653D01*
X140031389Y-79271862D01*
X139798772Y-79325886D01*
X139560422Y-79330233D01*
X139412059Y-79301780D01*
X139151291Y-79186760D01*
X138956672Y-79019384D01*
X138826091Y-78797386D01*
X138773160Y-78615879D01*
X138757480Y-78407562D01*
X139589273Y-78407562D01*
X139609031Y-78552384D01*
X139688545Y-78657575D01*
X139809978Y-78717389D01*
X139955494Y-78726078D01*
X140107256Y-78677893D01*
X140207978Y-78606952D01*
X140267780Y-78536411D01*
X140293074Y-78448707D01*
X140292978Y-78311389D01*
X140292645Y-78305591D01*
X140280167Y-78092500D01*
X140052698Y-78098714D01*
X139835675Y-78130390D01*
X139685080Y-78210867D01*
X139602969Y-78338776D01*
X139589273Y-78407562D01*
X138757480Y-78407562D01*
X138752303Y-78338793D01*
X138806427Y-78098299D01*
G37*
G36*
X132627933Y-76557726D02*
G01*
X132763113Y-76584241D01*
X132872811Y-76619882D01*
X132931492Y-76657653D01*
X132935334Y-76668580D01*
X132920903Y-76723689D01*
X132883754Y-76829615D01*
X132833098Y-76963057D01*
X132778149Y-77100709D01*
X132728119Y-77219268D01*
X132692222Y-77295432D01*
X132681334Y-77311072D01*
X132631429Y-77304894D01*
X132531037Y-77279886D01*
X132484385Y-77266408D01*
X132357964Y-77237184D01*
X132259062Y-77246126D01*
X132145718Y-77293288D01*
X131982834Y-77372834D01*
X131971304Y-78196916D01*
X131969733Y-78463586D01*
X131972361Y-78706170D01*
X131978716Y-78909569D01*
X131988324Y-79058685D01*
X132000710Y-79138421D01*
X132000852Y-79138832D01*
X132041929Y-79256667D01*
X131531602Y-79256667D01*
X131317167Y-79255786D01*
X131174582Y-79251811D01*
X131091036Y-79242739D01*
X131053719Y-79226569D01*
X131049821Y-79201300D01*
X131057386Y-79182584D01*
X131067460Y-79121768D01*
X131077408Y-78988206D01*
X131086748Y-78793819D01*
X131094998Y-78550526D01*
X131101676Y-78270248D01*
X131106204Y-77973789D01*
X131109409Y-77619557D01*
X131109919Y-77340075D01*
X131107346Y-77125460D01*
X131101301Y-76965826D01*
X131091397Y-76851289D01*
X131077243Y-76771964D01*
X131058452Y-76717967D01*
X131056701Y-76714372D01*
X130994489Y-76589667D01*
X131919334Y-76589667D01*
X131919334Y-76799469D01*
X132118122Y-76673401D01*
X132313584Y-76576745D01*
X132492804Y-76547334D01*
X132627933Y-76557726D01*
G37*
G36*
X136410250Y-80270217D02*
G01*
X136550194Y-80352975D01*
X136674743Y-80516637D01*
X136727524Y-80692044D01*
X136714334Y-80863430D01*
X136640969Y-81015028D01*
X136513226Y-81131071D01*
X136336900Y-81195792D01*
X136237334Y-81204000D01*
X136045402Y-81179034D01*
X135928607Y-81118672D01*
X135819562Y-80986302D01*
X135753789Y-80813416D01*
X135745199Y-80638910D01*
X135749226Y-80617137D01*
X135797340Y-80508993D01*
X135882546Y-80395196D01*
X135903503Y-80373866D01*
X136056083Y-80278709D01*
X136234284Y-80243859D01*
X136410250Y-80270217D01*
G37*
G36*
X137330628Y-82489129D02*
G01*
X137351991Y-82366167D01*
X137387342Y-82260258D01*
X137405973Y-82217849D01*
X137579631Y-81935646D01*
X137810943Y-81715398D01*
X138004703Y-81599158D01*
X138141841Y-81538677D01*
X138267807Y-81503246D01*
X138414945Y-81486573D01*
X138605058Y-81482377D01*
X138951202Y-81512496D01*
X139243645Y-81606172D01*
X139488153Y-81766695D01*
X139690493Y-81997355D01*
X139786530Y-82156500D01*
X139834937Y-82253945D01*
X139867109Y-82343687D01*
X139886323Y-82446658D01*
X139895854Y-82583788D01*
X139898977Y-82776008D01*
X139899167Y-82876167D01*
X139898009Y-83094655D01*
X139892134Y-83249543D01*
X139877943Y-83361890D01*
X139851832Y-83452758D01*
X139810203Y-83543205D01*
X139773515Y-83611023D01*
X139596023Y-83868110D01*
X139382865Y-84055804D01*
X139125665Y-84178637D01*
X138816047Y-84241143D01*
X138589876Y-84251587D01*
X138380385Y-84244451D01*
X138220893Y-84219592D01*
X138077534Y-84170936D01*
X138035613Y-84152193D01*
X137770673Y-83987296D01*
X137556716Y-83760183D01*
X137432337Y-83558927D01*
X137381311Y-83453591D01*
X137348211Y-83356572D01*
X137329175Y-83244840D01*
X137320339Y-83095361D01*
X137317840Y-82885104D01*
X137317819Y-82876167D01*
X137318422Y-82820189D01*
X138184484Y-82820189D01*
X138193906Y-83048640D01*
X138224231Y-83255090D01*
X138266245Y-83390398D01*
X138373600Y-83554847D01*
X138506894Y-83645062D01*
X138656060Y-83657776D01*
X138811033Y-83589723D01*
X138832060Y-83574005D01*
X138944679Y-83436933D01*
X139015984Y-83233401D01*
X139047197Y-82959467D01*
X139048900Y-82875157D01*
X139034291Y-82650447D01*
X138992637Y-82443215D01*
X138930057Y-82273142D01*
X138852670Y-82159912D01*
X138818764Y-82134850D01*
X138649833Y-82085433D01*
X138490291Y-82114318D01*
X138352760Y-82215203D01*
X138249861Y-82381788D01*
X138232864Y-82427401D01*
X138197094Y-82602265D01*
X138184484Y-82820189D01*
X137318422Y-82820189D01*
X137320241Y-82651632D01*
X137330628Y-82489129D01*
G37*
G36*
X136618334Y-77534076D02*
G01*
X136618903Y-77869190D01*
X136622382Y-78128866D01*
X136631427Y-78322331D01*
X136648694Y-78458814D01*
X136676840Y-78547541D01*
X136718522Y-78597741D01*
X136776395Y-78618641D01*
X136853116Y-78619469D01*
X136928640Y-78612017D01*
X137073862Y-78583073D01*
X137200707Y-78537294D01*
X137231556Y-78520127D01*
X137338000Y-78450382D01*
X137337739Y-77636441D01*
X137336055Y-77328530D01*
X137330751Y-77094419D01*
X137321119Y-76923294D01*
X137306450Y-76804339D01*
X137286036Y-76726738D01*
X137276750Y-76706084D01*
X137216021Y-76589667D01*
X138184667Y-76589667D01*
X138184667Y-77814578D01*
X138186077Y-78146998D01*
X138190083Y-78449738D01*
X138196348Y-78711920D01*
X138204536Y-78922663D01*
X138214309Y-79071088D01*
X138225330Y-79146316D01*
X138225952Y-79148078D01*
X138267238Y-79256667D01*
X137823786Y-79256667D01*
X137625581Y-79255531D01*
X137497090Y-79250276D01*
X137423369Y-79238126D01*
X137389475Y-79216308D01*
X137380466Y-79182048D01*
X137380334Y-79174342D01*
X137375534Y-79130858D01*
X137349134Y-79118316D01*
X137283135Y-79138477D01*
X137159537Y-79193103D01*
X137151645Y-79196715D01*
X136946339Y-79267079D01*
X136709899Y-79312095D01*
X136476386Y-79327652D01*
X136279863Y-79309637D01*
X136258500Y-79304534D01*
X136059015Y-79222877D01*
X135914493Y-79090274D01*
X135871848Y-79027313D01*
X135847145Y-78978749D01*
X135827603Y-78916944D01*
X135812324Y-78831088D01*
X135800414Y-78710372D01*
X135790974Y-78543986D01*
X135783109Y-78321120D01*
X135775923Y-78030966D01*
X135771510Y-77817334D01*
X135764319Y-77520074D01*
X135755241Y-77248291D01*
X135744885Y-77014257D01*
X135733863Y-76830244D01*
X135722786Y-76708524D01*
X135714064Y-76663750D01*
X135704631Y-76631493D01*
X135722699Y-76610222D01*
X135781499Y-76597678D01*
X135894262Y-76591605D01*
X136074219Y-76589742D01*
X136148138Y-76589667D01*
X136618334Y-76589667D01*
X136618334Y-77534076D01*
G37*
G36*
X126534854Y-75753584D02*
G01*
X126548203Y-75822525D01*
X126585101Y-75956446D01*
X126641050Y-76141909D01*
X126711550Y-76365477D01*
X126792103Y-76613712D01*
X126878210Y-76873176D01*
X126965371Y-77130432D01*
X127049089Y-77372042D01*
X127124863Y-77584569D01*
X127188195Y-77754574D01*
X127234587Y-77868620D01*
X127257330Y-77911515D01*
X127280324Y-77884921D01*
X127324616Y-77789813D01*
X127385989Y-77638405D01*
X127460223Y-77442912D01*
X127543101Y-77215550D01*
X127630407Y-76968535D01*
X127717920Y-76714080D01*
X127801425Y-76464403D01*
X127876703Y-76231718D01*
X127939536Y-76028240D01*
X127985706Y-75866184D01*
X128010997Y-75757767D01*
X128013983Y-75720146D01*
X127994074Y-75616000D01*
X129085535Y-75616000D01*
X129000288Y-75732417D01*
X128967648Y-75796219D01*
X128909459Y-75930621D01*
X128829240Y-76126701D01*
X128730508Y-76375538D01*
X128616783Y-76668211D01*
X128491582Y-76995798D01*
X128358424Y-77349378D01*
X128286604Y-77542167D01*
X127658168Y-79235500D01*
X127259141Y-79247491D01*
X126860115Y-79259482D01*
X126250577Y-77622614D01*
X126115677Y-77261947D01*
X125986556Y-76919759D01*
X125866912Y-76605628D01*
X125760439Y-76329131D01*
X125670835Y-76099842D01*
X125601796Y-75927340D01*
X125557017Y-75821199D01*
X125547444Y-75800873D01*
X125453849Y-75616000D01*
X126534534Y-75616000D01*
X126534854Y-75753584D01*
G37*
G04 #@! TD*
D10*
G04 #@! TO.C,REF\u002A\u002A*
X107620000Y-93650000D03*
G04 #@! TD*
G04 #@! TO.C,REF\u002A\u002A*
X122860000Y-91110000D03*
G04 #@! TD*
G04 #@! TO.C,REF\u002A\u002A*
X110160000Y-93650000D03*
G04 #@! TD*
G04 #@! TO.C,REF\u002A\u002A*
X105080000Y-80950000D03*
G04 #@! TD*
G04 #@! TO.C,REF\u002A\u002A*
X112700000Y-78410000D03*
G04 #@! TD*
G04 #@! TO.C,REF\u002A\u002A*
X107620000Y-91110000D03*
G04 #@! TD*
G04 #@! TO.C,REF\u002A\u002A*
X115240000Y-93650000D03*
G04 #@! TD*
G04 #@! TO.C,REF\u002A\u002A*
X107620000Y-88570000D03*
G04 #@! TD*
G04 #@! TO.C,REF\u002A\u002A*
X110160000Y-80950000D03*
G04 #@! TD*
G04 #@! TO.C,REF\u002A\u002A*
X105080000Y-91110000D03*
G04 #@! TD*
G04 #@! TO.C,REF\u002A\u002A*
X107620000Y-78410000D03*
G04 #@! TD*
G04 #@! TO.C,REF\u002A\u002A*
X105080000Y-93650000D03*
G04 #@! TD*
G04 #@! TO.C,REF\u002A\u002A*
X105080000Y-88570000D03*
G04 #@! TD*
G04 #@! TO.C,REF\u002A\u002A*
X107620000Y-96190000D03*
G04 #@! TD*
G04 #@! TO.C,REF\u002A\u002A*
X117780000Y-80950000D03*
G04 #@! TD*
G04 #@! TO.C,REF\u002A\u002A*
X107620000Y-83490000D03*
G04 #@! TD*
G04 #@! TO.C,REF\u002A\u002A*
X115240000Y-91110000D03*
G04 #@! TD*
G04 #@! TO.C,REF\u002A\u002A*
X105080000Y-83490000D03*
G04 #@! TD*
G04 #@! TO.C,REF\u002A\u002A*
X117780000Y-91110000D03*
G04 #@! TD*
G04 #@! TO.C,REF\u002A\u002A*
X105080000Y-78410000D03*
G04 #@! TD*
G04 #@! TO.C,REF\u002A\u002A*
X100000000Y-83490000D03*
G04 #@! TD*
G04 #@! TO.C,REF\u002A\u002A*
X107620000Y-80950000D03*
G04 #@! TD*
G04 #@! TO.C,REF\u002A\u002A*
X115240000Y-80950000D03*
G04 #@! TD*
G04 #@! TO.C,REF\u002A\u002A*
X112700000Y-80950000D03*
G04 #@! TD*
G04 #@! TO.C,REF\u002A\u002A*
X120320000Y-91110000D03*
G04 #@! TD*
G04 #@! TO.C,REF\u002A\u002A*
X112700000Y-93650000D03*
G04 #@! TD*
G04 #@! TO.C,REF\u002A\u002A*
X107620000Y-86030000D03*
G04 #@! TD*
G04 #@! TO.C,REF\u002A\u002A*
X112700000Y-75870000D03*
G04 #@! TD*
G04 #@! TO.C,REF\u002A\u002A*
X105080000Y-86030000D03*
G04 #@! TD*
G04 #@! TO.C,REF\u002A\u002A*
X112700000Y-91110000D03*
G04 #@! TD*
G04 #@! TO.C,REF\u002A\u002A*
X102540000Y-83490000D03*
G04 #@! TD*
G04 #@! TO.C,REF\u002A\u002A*
X125400000Y-91110000D03*
G04 #@! TD*
G04 #@! TO.C,D18*
G36*
X126658847Y-109610939D02*
G01*
X127001030Y-109318688D01*
X127293281Y-109660871D01*
X126951098Y-109953122D01*
X126658847Y-109610939D01*
G37*
G36*
X126073334Y-110111014D02*
G01*
X126415517Y-109818763D01*
X126707768Y-110160946D01*
X126365585Y-110453197D01*
X126073334Y-110111014D01*
G37*
G36*
X126573409Y-110696527D02*
G01*
X126915592Y-110404276D01*
X127207843Y-110746459D01*
X126865660Y-111038710D01*
X126573409Y-110696527D01*
G37*
G36*
X127158922Y-110196452D02*
G01*
X127501105Y-109904201D01*
X127793356Y-110246384D01*
X127451173Y-110538635D01*
X127158922Y-110196452D01*
G37*
G04 #@! TD*
G04 #@! TO.C,D10*
G36*
X81228651Y-82091322D02*
G01*
X80910453Y-81773124D01*
X81228651Y-81454926D01*
X81546849Y-81773124D01*
X81228651Y-82091322D01*
G37*
G36*
X81773123Y-82635794D02*
G01*
X81454925Y-82317596D01*
X81773123Y-81999398D01*
X82091321Y-82317596D01*
X81773123Y-82635794D01*
G37*
G36*
X82317595Y-82091322D02*
G01*
X81999397Y-81773124D01*
X82317595Y-81454926D01*
X82635793Y-81773124D01*
X82317595Y-82091322D01*
G37*
G36*
X81773123Y-81546850D02*
G01*
X81454925Y-81228652D01*
X81773123Y-80910454D01*
X82091321Y-81228652D01*
X81773123Y-81546850D01*
G37*
G04 #@! TD*
G04 #@! TO.C,D19*
G36*
X129713079Y-107076209D02*
G01*
X130062795Y-106793015D01*
X130345989Y-107142731D01*
X129996273Y-107425925D01*
X129713079Y-107076209D01*
G37*
G36*
X129114676Y-107560786D02*
G01*
X129464392Y-107277592D01*
X129747586Y-107627308D01*
X129397870Y-107910502D01*
X129114676Y-107560786D01*
G37*
G36*
X129599253Y-108159189D02*
G01*
X129948969Y-107875995D01*
X130232163Y-108225711D01*
X129882447Y-108508905D01*
X129599253Y-108159189D01*
G37*
G36*
X130197656Y-107674612D02*
G01*
X130547372Y-107391418D01*
X130830566Y-107741134D01*
X130480850Y-108024328D01*
X130197656Y-107674612D01*
G37*
G04 #@! TD*
G04 #@! TO.C,D1*
G36*
X103293519Y-54333794D02*
G01*
X102909831Y-54098670D01*
X103144955Y-53714982D01*
X103528643Y-53950106D01*
X103293519Y-54333794D01*
G37*
G36*
X103950052Y-54736117D02*
G01*
X103566364Y-54500993D01*
X103801488Y-54117305D01*
X104185176Y-54352429D01*
X103950052Y-54736117D01*
G37*
G36*
X104352375Y-54079584D02*
G01*
X103968687Y-53844460D01*
X104203811Y-53460772D01*
X104587499Y-53695896D01*
X104352375Y-54079584D01*
G37*
G36*
X103695842Y-53677261D02*
G01*
X103312154Y-53442137D01*
X103547278Y-53058449D01*
X103930966Y-53293573D01*
X103695842Y-53677261D01*
G37*
G04 #@! TD*
G04 #@! TO.C,D20*
G36*
X132832616Y-104622299D02*
G01*
X133189625Y-104348356D01*
X133463568Y-104705365D01*
X133106559Y-104979308D01*
X132832616Y-104622299D01*
G37*
G36*
X132221734Y-105091045D02*
G01*
X132578743Y-104817102D01*
X132852686Y-105174111D01*
X132495677Y-105448054D01*
X132221734Y-105091045D01*
G37*
G36*
X132690480Y-105701927D02*
G01*
X133047489Y-105427984D01*
X133321432Y-105784993D01*
X132964423Y-106058936D01*
X132690480Y-105701927D01*
G37*
G36*
X133301362Y-105233181D02*
G01*
X133658371Y-104959238D01*
X133932314Y-105316247D01*
X133575305Y-105590190D01*
X133301362Y-105233181D01*
G37*
G04 #@! TD*
G04 #@! TO.C,D5*
G36*
X94298074Y-67309520D02*
G01*
X93941065Y-67035577D01*
X94215008Y-66678568D01*
X94572017Y-66952511D01*
X94298074Y-67309520D01*
G37*
G36*
X94908956Y-67778266D02*
G01*
X94551947Y-67504323D01*
X94825890Y-67147314D01*
X95182899Y-67421257D01*
X94908956Y-67778266D01*
G37*
G36*
X95377702Y-67167384D02*
G01*
X95020693Y-66893441D01*
X95294636Y-66536432D01*
X95651645Y-66810375D01*
X95377702Y-67167384D01*
G37*
G36*
X94766820Y-66698638D02*
G01*
X94409811Y-66424695D01*
X94683754Y-66067686D01*
X95040763Y-66341629D01*
X94766820Y-66698638D01*
G37*
G04 #@! TD*
G04 #@! TO.C,D24*
G36*
X145920416Y-95647625D02*
G01*
X146304104Y-95412501D01*
X146539228Y-95796189D01*
X146155540Y-96031313D01*
X145920416Y-95647625D01*
G37*
G36*
X145263883Y-96049948D02*
G01*
X145647571Y-95814824D01*
X145882695Y-96198512D01*
X145499007Y-96433636D01*
X145263883Y-96049948D01*
G37*
G36*
X145666206Y-96706481D02*
G01*
X146049894Y-96471357D01*
X146285018Y-96855045D01*
X145901330Y-97090169D01*
X145666206Y-96706481D01*
G37*
G36*
X146322739Y-96304158D02*
G01*
X146706427Y-96069034D01*
X146941551Y-96452722D01*
X146557863Y-96687846D01*
X146322739Y-96304158D01*
G37*
G04 #@! TD*
G04 #@! TO.C,D23*
G36*
X142561463Y-97762013D02*
G01*
X142938865Y-97516925D01*
X143183953Y-97894327D01*
X142806551Y-98139415D01*
X142561463Y-97762013D01*
G37*
G36*
X141915687Y-98181385D02*
G01*
X142293089Y-97936297D01*
X142538177Y-98313699D01*
X142160775Y-98558787D01*
X141915687Y-98181385D01*
G37*
G36*
X142335059Y-98827161D02*
G01*
X142712461Y-98582073D01*
X142957549Y-98959475D01*
X142580147Y-99204563D01*
X142335059Y-98827161D01*
G37*
G36*
X142980835Y-98407789D02*
G01*
X143358237Y-98162701D01*
X143603325Y-98540103D01*
X143225923Y-98785191D01*
X142980835Y-98407789D01*
G37*
G04 #@! TD*
G04 #@! TO.C,D9*
G36*
X83995573Y-79273883D02*
G01*
X83669155Y-78964123D01*
X83978915Y-78637705D01*
X84305333Y-78947465D01*
X83995573Y-79273883D01*
G37*
G36*
X84554112Y-79803916D02*
G01*
X84227694Y-79494156D01*
X84537454Y-79167738D01*
X84863872Y-79477498D01*
X84554112Y-79803916D01*
G37*
G36*
X85084145Y-79245377D02*
G01*
X84757727Y-78935617D01*
X85067487Y-78609199D01*
X85393905Y-78918959D01*
X85084145Y-79245377D01*
G37*
G36*
X84525606Y-78715344D02*
G01*
X84199188Y-78405584D01*
X84508948Y-78079166D01*
X84835366Y-78388926D01*
X84525606Y-78715344D01*
G37*
G04 #@! TD*
G04 #@! TO.C,D7*
G36*
X89303472Y-73426591D02*
G01*
X88961289Y-73134340D01*
X89253540Y-72792157D01*
X89595723Y-73084408D01*
X89303472Y-73426591D01*
G37*
G36*
X89888985Y-73926666D02*
G01*
X89546802Y-73634415D01*
X89839053Y-73292232D01*
X90181236Y-73584483D01*
X89888985Y-73926666D01*
G37*
G36*
X90389060Y-73341153D02*
G01*
X90046877Y-73048902D01*
X90339128Y-72706719D01*
X90681311Y-72998970D01*
X90389060Y-73341153D01*
G37*
G36*
X89803547Y-72841078D02*
G01*
X89461364Y-72548827D01*
X89753615Y-72206644D01*
X90095798Y-72498895D01*
X89803547Y-72841078D01*
G37*
G04 #@! TD*
G04 #@! TO.C,D6*
G36*
X91840811Y-70400747D02*
G01*
X91491095Y-70117553D01*
X91774289Y-69767837D01*
X92124005Y-70051031D01*
X91840811Y-70400747D01*
G37*
G36*
X92439214Y-70885324D02*
G01*
X92089498Y-70602130D01*
X92372692Y-70252414D01*
X92722408Y-70535608D01*
X92439214Y-70885324D01*
G37*
G36*
X92923791Y-70286921D02*
G01*
X92574075Y-70003727D01*
X92857269Y-69654011D01*
X93206985Y-69937205D01*
X92923791Y-70286921D01*
G37*
G36*
X92325388Y-69802344D02*
G01*
X91975672Y-69519150D01*
X92258866Y-69169434D01*
X92608582Y-69452628D01*
X92325388Y-69802344D01*
G37*
G04 #@! TD*
G04 #@! TO.C,D15*
G36*
X117908678Y-117682404D02*
G01*
X118226876Y-117364206D01*
X118545074Y-117682404D01*
X118226876Y-118000602D01*
X117908678Y-117682404D01*
G37*
G36*
X117364206Y-118226876D02*
G01*
X117682404Y-117908678D01*
X118000602Y-118226876D01*
X117682404Y-118545074D01*
X117364206Y-118226876D01*
G37*
G36*
X117908678Y-118771348D02*
G01*
X118226876Y-118453150D01*
X118545074Y-118771348D01*
X118226876Y-119089546D01*
X117908678Y-118771348D01*
G37*
G36*
X118453150Y-118226876D02*
G01*
X118771348Y-117908678D01*
X119089546Y-118226876D01*
X118771348Y-118545074D01*
X118453150Y-118226876D01*
G37*
G04 #@! TD*
G04 #@! TO.C,D4*
G36*
X96673574Y-64155028D02*
G01*
X96309516Y-63890524D01*
X96574020Y-63526466D01*
X96938078Y-63790970D01*
X96673574Y-64155028D01*
G37*
G36*
X97296517Y-64607623D02*
G01*
X96932459Y-64343119D01*
X97196963Y-63979061D01*
X97561021Y-64243565D01*
X97296517Y-64607623D01*
G37*
G36*
X97749112Y-63984680D02*
G01*
X97385054Y-63720176D01*
X97649558Y-63356118D01*
X98013616Y-63620622D01*
X97749112Y-63984680D01*
G37*
G36*
X97126169Y-63532085D02*
G01*
X96762111Y-63267581D01*
X97026615Y-62903523D01*
X97390673Y-63168027D01*
X97126169Y-63532085D01*
G37*
G04 #@! TD*
G04 #@! TO.C,D16*
G36*
X120754623Y-114915855D02*
G01*
X121081041Y-114606095D01*
X121390801Y-114932513D01*
X121064383Y-115242273D01*
X120754623Y-114915855D01*
G37*
G36*
X120196084Y-115445888D02*
G01*
X120522502Y-115136128D01*
X120832262Y-115462546D01*
X120505844Y-115772306D01*
X120196084Y-115445888D01*
G37*
G36*
X120726117Y-116004427D02*
G01*
X121052535Y-115694667D01*
X121362295Y-116021085D01*
X121035877Y-116330845D01*
X120726117Y-116004427D01*
G37*
G36*
X121284656Y-115474394D02*
G01*
X121611074Y-115164634D01*
X121920834Y-115491052D01*
X121594416Y-115800812D01*
X121284656Y-115474394D01*
G37*
G04 #@! TD*
G04 #@! TO.C,D11*
G36*
X78388927Y-84835366D02*
G01*
X78079167Y-84508948D01*
X78405585Y-84199188D01*
X78715345Y-84525606D01*
X78388927Y-84835366D01*
G37*
G36*
X78918960Y-85393905D02*
G01*
X78609200Y-85067487D01*
X78935618Y-84757727D01*
X79245378Y-85084145D01*
X78918960Y-85393905D01*
G37*
G36*
X79477499Y-84863872D02*
G01*
X79167739Y-84537454D01*
X79494157Y-84227694D01*
X79803917Y-84554112D01*
X79477499Y-84863872D01*
G37*
G36*
X78947466Y-84305333D02*
G01*
X78637706Y-83978915D01*
X78964124Y-83669155D01*
X79273884Y-83995573D01*
X78947466Y-84305333D01*
G37*
G04 #@! TD*
G04 #@! TO.C,D17*
G36*
X123672011Y-112224752D02*
G01*
X124006426Y-111923643D01*
X124307535Y-112258058D01*
X123973120Y-112559167D01*
X123672011Y-112224752D01*
G37*
G36*
X123099790Y-112739983D02*
G01*
X123434205Y-112438874D01*
X123735314Y-112773289D01*
X123400899Y-113074398D01*
X123099790Y-112739983D01*
G37*
G36*
X123615021Y-113312204D02*
G01*
X123949436Y-113011095D01*
X124250545Y-113345510D01*
X123916130Y-113646619D01*
X123615021Y-113312204D01*
G37*
G36*
X124187242Y-112796973D02*
G01*
X124521657Y-112495864D01*
X124822766Y-112830279D01*
X124488351Y-113131388D01*
X124187242Y-112796973D01*
G37*
G04 #@! TD*
G04 #@! TO.C,D14*
G36*
X115136128Y-120522502D02*
G01*
X115445888Y-120196084D01*
X115772306Y-120505844D01*
X115462546Y-120832262D01*
X115136128Y-120522502D01*
G37*
G36*
X114606095Y-121081041D02*
G01*
X114915855Y-120754623D01*
X115242273Y-121064383D01*
X114932513Y-121390801D01*
X114606095Y-121081041D01*
G37*
G36*
X115164634Y-121611074D02*
G01*
X115474394Y-121284656D01*
X115800812Y-121594416D01*
X115491052Y-121920834D01*
X115164634Y-121611074D01*
G37*
G36*
X115694667Y-121052535D02*
G01*
X116004427Y-120726117D01*
X116330845Y-121035877D01*
X116021085Y-121362295D01*
X115694667Y-121052535D01*
G37*
G04 #@! TD*
G04 #@! TO.C,D12*
G36*
X75478343Y-87504136D02*
G01*
X75177234Y-87169721D01*
X75511649Y-86868612D01*
X75812758Y-87203027D01*
X75478343Y-87504136D01*
G37*
G36*
X75993574Y-88076357D02*
G01*
X75692465Y-87741942D01*
X76026880Y-87440833D01*
X76327989Y-87775248D01*
X75993574Y-88076357D01*
G37*
G36*
X76565795Y-87561126D02*
G01*
X76264686Y-87226711D01*
X76599101Y-86925602D01*
X76900210Y-87260017D01*
X76565795Y-87561126D01*
G37*
G36*
X76050564Y-86988905D02*
G01*
X75749455Y-86654490D01*
X76083870Y-86353381D01*
X76384979Y-86687796D01*
X76050564Y-86988905D01*
G37*
G04 #@! TD*
G04 #@! TO.C,D22*
G36*
X139259010Y-99963604D02*
G01*
X139629867Y-99708721D01*
X139884750Y-100079578D01*
X139513893Y-100334461D01*
X139259010Y-99963604D01*
G37*
G36*
X138624433Y-100399737D02*
G01*
X138995290Y-100144854D01*
X139250173Y-100515711D01*
X138879316Y-100770594D01*
X138624433Y-100399737D01*
G37*
G36*
X139060566Y-101034314D02*
G01*
X139431423Y-100779431D01*
X139686306Y-101150288D01*
X139315449Y-101405171D01*
X139060566Y-101034314D01*
G37*
G36*
X139695143Y-100598181D02*
G01*
X140066000Y-100343298D01*
X140320883Y-100714155D01*
X139950026Y-100969038D01*
X139695143Y-100598181D01*
G37*
G04 #@! TD*
G04 #@! TO.C,D13*
G36*
X112438874Y-123434205D02*
G01*
X112739983Y-123099790D01*
X113074398Y-123400899D01*
X112773289Y-123735314D01*
X112438874Y-123434205D01*
G37*
G36*
X111923643Y-124006426D02*
G01*
X112224752Y-123672011D01*
X112559167Y-123973120D01*
X112258058Y-124307535D01*
X111923643Y-124006426D01*
G37*
G36*
X112495864Y-124521657D02*
G01*
X112796973Y-124187242D01*
X113131388Y-124488351D01*
X112830279Y-124822766D01*
X112495864Y-124521657D01*
G37*
G36*
X113011095Y-123949436D02*
G01*
X113312204Y-123615021D01*
X113646619Y-123916130D01*
X113345510Y-124250545D01*
X113011095Y-123949436D01*
G37*
G04 #@! TD*
G04 #@! TO.C,D21*
G36*
X136015320Y-102250888D02*
G01*
X136379378Y-101986384D01*
X136643882Y-102350442D01*
X136279824Y-102614946D01*
X136015320Y-102250888D01*
G37*
G36*
X135392377Y-102703483D02*
G01*
X135756435Y-102438979D01*
X136020939Y-102803037D01*
X135656881Y-103067541D01*
X135392377Y-102703483D01*
G37*
G36*
X135844972Y-103326426D02*
G01*
X136209030Y-103061922D01*
X136473534Y-103425980D01*
X136109476Y-103690484D01*
X135844972Y-103326426D01*
G37*
G36*
X136467915Y-102873831D02*
G01*
X136831973Y-102609327D01*
X137096477Y-102973385D01*
X136732419Y-103237889D01*
X136467915Y-102873831D01*
G37*
G04 #@! TD*
G04 #@! TO.C,D2*
G36*
X101172839Y-57664941D02*
G01*
X100795437Y-57419853D01*
X101040525Y-57042451D01*
X101417927Y-57287539D01*
X101172839Y-57664941D01*
G37*
G36*
X101818615Y-58084313D02*
G01*
X101441213Y-57839225D01*
X101686301Y-57461823D01*
X102063703Y-57706911D01*
X101818615Y-58084313D01*
G37*
G36*
X102237987Y-57438537D02*
G01*
X101860585Y-57193449D01*
X102105673Y-56816047D01*
X102483075Y-57061135D01*
X102237987Y-57438537D01*
G37*
G36*
X101592211Y-57019165D02*
G01*
X101214809Y-56774077D01*
X101459897Y-56396675D01*
X101837299Y-56641763D01*
X101592211Y-57019165D01*
G37*
G04 #@! TD*
G04 #@! TO.C,D3*
G36*
X98965687Y-60939434D02*
G01*
X98594830Y-60684551D01*
X98849713Y-60313694D01*
X99220570Y-60568577D01*
X98965687Y-60939434D01*
G37*
G36*
X99600264Y-61375567D02*
G01*
X99229407Y-61120684D01*
X99484290Y-60749827D01*
X99855147Y-61004710D01*
X99600264Y-61375567D01*
G37*
G36*
X100036397Y-60740990D02*
G01*
X99665540Y-60486107D01*
X99920423Y-60115250D01*
X100291280Y-60370133D01*
X100036397Y-60740990D01*
G37*
G36*
X99401820Y-60304857D02*
G01*
X99030963Y-60049974D01*
X99285846Y-59679117D01*
X99656703Y-59934000D01*
X99401820Y-60304857D01*
G37*
G04 #@! TD*
G04 #@! TO.C,D8*
G36*
X86687795Y-76384979D02*
G01*
X86353380Y-76083870D01*
X86654489Y-75749455D01*
X86988904Y-76050564D01*
X86687795Y-76384979D01*
G37*
G36*
X87260016Y-76900210D02*
G01*
X86925601Y-76599101D01*
X87226710Y-76264686D01*
X87561125Y-76565795D01*
X87260016Y-76900210D01*
G37*
G36*
X87775247Y-76327989D02*
G01*
X87440832Y-76026880D01*
X87741941Y-75692465D01*
X88076356Y-75993574D01*
X87775247Y-76327989D01*
G37*
G36*
X87203026Y-75812758D02*
G01*
X86868611Y-75511649D01*
X87169720Y-75177234D01*
X87504135Y-75478343D01*
X87203026Y-75812758D01*
G37*
G04 #@! TD*
D11*
G04 #@! TO.C,REF\u002A\u002A*
X110795000Y-100635000D03*
G04 #@! TD*
G04 #@! TO.C,REF\u002A\u002A*
X128575000Y-94285000D03*
G04 #@! TD*
G04 #@! TO.C,REF\u002A\u002A*
X115875000Y-96825000D03*
G04 #@! TD*
G04 #@! TO.C,REF\u002A\u002A*
X124765000Y-86665000D03*
G04 #@! TD*
G04 #@! TO.C,REF\u002A\u002A*
X113335000Y-82855000D03*
G04 #@! TD*
G04 #@! TO.C,TP7*
G36*
G01*
X76378000Y-114351000D02*
X76378000Y-113589000D01*
G75*
G02*
X76759000Y-113208000I381000J0D01*
G01*
X77521000Y-113208000D01*
G75*
G02*
X77902000Y-113589000I0J-381000D01*
G01*
X77902000Y-114351000D01*
G75*
G02*
X77521000Y-114732000I-381000J0D01*
G01*
X76759000Y-114732000D01*
G75*
G02*
X76378000Y-114351000I0J381000D01*
G01*
G37*
G04 #@! TD*
G04 #@! TO.C,REF\u002A\u002A*
X98095000Y-98095000D03*
G04 #@! TD*
G04 #@! TO.C,REF\u002A\u002A*
X101905000Y-100635000D03*
G04 #@! TD*
D12*
G04 #@! TO.C,U2*
X103000000Y-117600000D03*
D13*
X103400000Y-117500000D03*
X103800000Y-117500000D03*
X104200000Y-117500000D03*
X104600000Y-117500000D03*
X105000000Y-117500000D03*
X105400000Y-117500000D03*
X105800000Y-117500000D03*
X106200000Y-117500000D03*
X106600000Y-117500000D03*
D12*
X107000000Y-117600000D03*
D14*
X107600000Y-117000000D03*
D15*
X107500000Y-116600000D03*
X107500000Y-116200000D03*
X107500000Y-115800000D03*
X107500000Y-115400000D03*
X107500000Y-115000000D03*
X107500000Y-114600000D03*
X107500000Y-114200000D03*
X107500000Y-113800000D03*
X107500000Y-113400000D03*
D14*
X107600000Y-113000000D03*
D12*
X107000000Y-112400000D03*
D13*
X106600000Y-112500000D03*
X106200000Y-112500000D03*
X105800000Y-112500000D03*
X105400000Y-112500000D03*
X105000000Y-112500000D03*
X104600000Y-112500000D03*
X104200000Y-112500000D03*
X103800000Y-112500000D03*
X103400000Y-112500000D03*
D12*
X103000000Y-112400000D03*
D14*
X102400000Y-113000000D03*
D15*
X102500000Y-113400000D03*
X102500000Y-113800000D03*
X102500000Y-114200000D03*
X102500000Y-114600000D03*
X102500000Y-115000000D03*
X102500000Y-115400000D03*
X102500000Y-115800000D03*
X102500000Y-116200000D03*
X102500000Y-116600000D03*
D14*
X102400000Y-117000000D03*
D16*
X104500000Y-114500000D03*
X105500000Y-114500000D03*
X104500000Y-115500000D03*
X105500000Y-115500000D03*
G04 #@! TD*
D11*
G04 #@! TO.C,REF\u002A\u002A*
X114605000Y-85395000D03*
G04 #@! TD*
G04 #@! TO.C,REF\u002A\u002A*
X117145000Y-77775000D03*
G04 #@! TD*
G04 #@! TO.C,REF\u002A\u002A*
X103175000Y-91745000D03*
G04 #@! TD*
G04 #@! TO.C,REF\u002A\u002A*
X118415000Y-84125000D03*
G04 #@! TD*
G04 #@! TO.C,SW1*
G36*
X66844882Y-95569555D02*
G01*
X66215562Y-94792409D01*
X66992708Y-94163089D01*
X67622028Y-94940235D01*
X66844882Y-95569555D01*
G37*
G36*
X73062050Y-90534991D02*
G01*
X72432730Y-89757845D01*
X73209876Y-89128525D01*
X73839196Y-89905671D01*
X73062050Y-90534991D01*
G37*
G04 #@! TD*
G04 #@! TO.C,REF\u002A\u002A*
X104445000Y-96825000D03*
G04 #@! TD*
G04 #@! TO.C,TP10*
G36*
G01*
X73838000Y-109271000D02*
X73838000Y-108509000D01*
G75*
G02*
X74219000Y-108128000I381000J0D01*
G01*
X74981000Y-108128000D01*
G75*
G02*
X75362000Y-108509000I0J-381000D01*
G01*
X75362000Y-109271000D01*
G75*
G02*
X74981000Y-109652000I-381000J0D01*
G01*
X74219000Y-109652000D01*
G75*
G02*
X73838000Y-109271000I0J381000D01*
G01*
G37*
G04 #@! TD*
G04 #@! TO.C,REF\u002A\u002A*
X109525000Y-79045000D03*
G04 #@! TD*
G04 #@! TO.C,REF\u002A\u002A*
X119685000Y-85395000D03*
G04 #@! TD*
G04 #@! TO.C,TP1*
G36*
G01*
X76378000Y-104191000D02*
X76378000Y-103429000D01*
G75*
G02*
X76759000Y-103048000I381000J0D01*
G01*
X77521000Y-103048000D01*
G75*
G02*
X77902000Y-103429000I0J-381000D01*
G01*
X77902000Y-104191000D01*
G75*
G02*
X77521000Y-104572000I-381000J0D01*
G01*
X76759000Y-104572000D01*
G75*
G02*
X76378000Y-104191000I0J381000D01*
G01*
G37*
G04 #@! TD*
G04 #@! TO.C,REF\u002A\u002A*
X109525000Y-98095000D03*
G04 #@! TD*
G04 #@! TO.C,REF\u002A\u002A*
X136195000Y-90475000D03*
G04 #@! TD*
G04 #@! TO.C,REF\u002A\u002A*
X98095000Y-81585000D03*
G04 #@! TD*
G04 #@! TO.C,REF\u002A\u002A*
X118415000Y-94285000D03*
G04 #@! TD*
G04 #@! TO.C,C4*
G36*
G01*
X99835000Y-114583750D02*
X99835000Y-115096250D01*
G75*
G02*
X99616250Y-115315000I-218750J0D01*
G01*
X99178750Y-115315000D01*
G75*
G02*
X98960000Y-115096250I0J218750D01*
G01*
X98960000Y-114583750D01*
G75*
G02*
X99178750Y-114365000I218750J0D01*
G01*
X99616250Y-114365000D01*
G75*
G02*
X99835000Y-114583750I0J-218750D01*
G01*
G37*
G36*
G01*
X98260000Y-114583750D02*
X98260000Y-115096250D01*
G75*
G02*
X98041250Y-115315000I-218750J0D01*
G01*
X97603750Y-115315000D01*
G75*
G02*
X97385000Y-115096250I0J218750D01*
G01*
X97385000Y-114583750D01*
G75*
G02*
X97603750Y-114365000I218750J0D01*
G01*
X98041250Y-114365000D01*
G75*
G02*
X98260000Y-114583750I0J-218750D01*
G01*
G37*
G04 #@! TD*
G04 #@! TO.C,REF\u002A\u002A*
X113335000Y-86665000D03*
G04 #@! TD*
G04 #@! TO.C,REF\u002A\u002A*
X112065000Y-100635000D03*
G04 #@! TD*
G04 #@! TO.C,REF\u002A\u002A*
X110795000Y-85395000D03*
G04 #@! TD*
G04 #@! TO.C,C2*
G36*
G01*
X83193750Y-100245000D02*
X83706250Y-100245000D01*
G75*
G02*
X83925000Y-100463750I0J-218750D01*
G01*
X83925000Y-100901250D01*
G75*
G02*
X83706250Y-101120000I-218750J0D01*
G01*
X83193750Y-101120000D01*
G75*
G02*
X82975000Y-100901250I0J218750D01*
G01*
X82975000Y-100463750D01*
G75*
G02*
X83193750Y-100245000I218750J0D01*
G01*
G37*
G36*
G01*
X83193750Y-101820000D02*
X83706250Y-101820000D01*
G75*
G02*
X83925000Y-102038750I0J-218750D01*
G01*
X83925000Y-102476250D01*
G75*
G02*
X83706250Y-102695000I-218750J0D01*
G01*
X83193750Y-102695000D01*
G75*
G02*
X82975000Y-102476250I0J218750D01*
G01*
X82975000Y-102038750D01*
G75*
G02*
X83193750Y-101820000I218750J0D01*
G01*
G37*
G04 #@! TD*
G04 #@! TO.C,REF\u002A\u002A*
X120955000Y-95555000D03*
G04 #@! TD*
G04 #@! TO.C,REF\u002A\u002A*
X109525000Y-91745000D03*
G04 #@! TD*
G04 #@! TO.C,REF\u002A\u002A*
X118415000Y-85395000D03*
G04 #@! TD*
G04 #@! TO.C,REF\u002A\u002A*
X123495000Y-94285000D03*
G04 #@! TD*
G04 #@! TO.C,REF\u002A\u002A*
X113335000Y-85395000D03*
G04 #@! TD*
G04 #@! TO.C,REF\u002A\u002A*
X99365000Y-79045000D03*
G04 #@! TD*
G04 #@! TO.C,REF\u002A\u002A*
X128575000Y-89205000D03*
G04 #@! TD*
G04 #@! TO.C,REF\u002A\u002A*
X134925000Y-91745000D03*
G04 #@! TD*
G04 #@! TO.C,REF\u002A\u002A*
X109525000Y-99365000D03*
G04 #@! TD*
G04 #@! TO.C,REF\u002A\u002A*
X98095000Y-84125000D03*
G04 #@! TD*
G04 #@! TO.C,REF\u002A\u002A*
X106985000Y-101905000D03*
G04 #@! TD*
G04 #@! TO.C,REF\u002A\u002A*
X108255000Y-100635000D03*
G04 #@! TD*
G04 #@! TO.C,REF\u002A\u002A*
X112065000Y-89205000D03*
G04 #@! TD*
G04 #@! TO.C,REF\u002A\u002A*
X133655000Y-91745000D03*
G04 #@! TD*
G04 #@! TO.C,REF\u002A\u002A*
X119685000Y-87935000D03*
G04 #@! TD*
G04 #@! TO.C,REF\u002A\u002A*
X119685000Y-94285000D03*
G04 #@! TD*
G04 #@! TO.C,REF\u002A\u002A*
X115875000Y-82855000D03*
G04 #@! TD*
G04 #@! TO.C,REF\u002A\u002A*
X117145000Y-99365000D03*
G04 #@! TD*
G04 #@! TO.C,REF\u002A\u002A*
X110795000Y-90475000D03*
G04 #@! TD*
G04 #@! TO.C,TP18*
G36*
G01*
X73838000Y-114351000D02*
X73838000Y-113589000D01*
G75*
G02*
X74219000Y-113208000I381000J0D01*
G01*
X74981000Y-113208000D01*
G75*
G02*
X75362000Y-113589000I0J-381000D01*
G01*
X75362000Y-114351000D01*
G75*
G02*
X74981000Y-114732000I-381000J0D01*
G01*
X74219000Y-114732000D01*
G75*
G02*
X73838000Y-114351000I0J381000D01*
G01*
G37*
G04 #@! TD*
G04 #@! TO.C,REF\u002A\u002A*
X101905000Y-87935000D03*
G04 #@! TD*
G04 #@! TO.C,REF\u002A\u002A*
X101905000Y-91745000D03*
G04 #@! TD*
G04 #@! TO.C,REF\u002A\u002A*
X99365000Y-86665000D03*
G04 #@! TD*
G04 #@! TO.C,R7*
G36*
G01*
X82585010Y-120452597D02*
X82947403Y-120814990D01*
G75*
G02*
X82947403Y-121124350I-154680J-154680D01*
G01*
X82638044Y-121433709D01*
G75*
G02*
X82328684Y-121433709I-154680J154680D01*
G01*
X81966291Y-121071316D01*
G75*
G02*
X81966291Y-120761956I154680J154680D01*
G01*
X82275650Y-120452597D01*
G75*
G02*
X82585010Y-120452597I154680J-154680D01*
G01*
G37*
G36*
G01*
X81471316Y-121566291D02*
X81833709Y-121928684D01*
G75*
G02*
X81833709Y-122238044I-154680J-154680D01*
G01*
X81524350Y-122547403D01*
G75*
G02*
X81214990Y-122547403I-154680J154680D01*
G01*
X80852597Y-122185010D01*
G75*
G02*
X80852597Y-121875650I154680J154680D01*
G01*
X81161956Y-121566291D01*
G75*
G02*
X81471316Y-121566291I154680J-154680D01*
G01*
G37*
G04 #@! TD*
G04 #@! TO.C,REF\u002A\u002A*
X117145000Y-98095000D03*
G04 #@! TD*
G04 #@! TO.C,REF\u002A\u002A*
X122225000Y-94285000D03*
G04 #@! TD*
G04 #@! TO.C,C11*
G36*
G01*
X61425000Y-120426250D02*
X61425000Y-119913750D01*
G75*
G02*
X61643750Y-119695000I218750J0D01*
G01*
X62081250Y-119695000D01*
G75*
G02*
X62300000Y-119913750I0J-218750D01*
G01*
X62300000Y-120426250D01*
G75*
G02*
X62081250Y-120645000I-218750J0D01*
G01*
X61643750Y-120645000D01*
G75*
G02*
X61425000Y-120426250I0J218750D01*
G01*
G37*
G36*
G01*
X63000000Y-120426250D02*
X63000000Y-119913750D01*
G75*
G02*
X63218750Y-119695000I218750J0D01*
G01*
X63656250Y-119695000D01*
G75*
G02*
X63875000Y-119913750I0J-218750D01*
G01*
X63875000Y-120426250D01*
G75*
G02*
X63656250Y-120645000I-218750J0D01*
G01*
X63218750Y-120645000D01*
G75*
G02*
X63000000Y-120426250I0J218750D01*
G01*
G37*
G04 #@! TD*
G04 #@! TO.C,REF\u002A\u002A*
X100635000Y-81585000D03*
G04 #@! TD*
G04 #@! TO.C,REF\u002A\u002A*
X101905000Y-89205000D03*
G04 #@! TD*
G04 #@! TO.C,D25*
G36*
G01*
X81747403Y-119985010D02*
X81385010Y-120347403D01*
G75*
G02*
X81075650Y-120347403I-154680J154680D01*
G01*
X80766291Y-120038044D01*
G75*
G02*
X80766291Y-119728684I154680J154680D01*
G01*
X81128684Y-119366291D01*
G75*
G02*
X81438044Y-119366291I154680J-154680D01*
G01*
X81747403Y-119675650D01*
G75*
G02*
X81747403Y-119985010I-154680J-154680D01*
G01*
G37*
G36*
G01*
X80633709Y-118871316D02*
X80271316Y-119233709D01*
G75*
G02*
X79961956Y-119233709I-154680J154680D01*
G01*
X79652597Y-118924350D01*
G75*
G02*
X79652597Y-118614990I154680J154680D01*
G01*
X80014990Y-118252597D01*
G75*
G02*
X80324350Y-118252597I154680J-154680D01*
G01*
X80633709Y-118561956D01*
G75*
G02*
X80633709Y-118871316I-154680J-154680D01*
G01*
G37*
G04 #@! TD*
G04 #@! TO.C,REF\u002A\u002A*
X104445000Y-72695000D03*
G04 #@! TD*
G04 #@! TO.C,REF\u002A\u002A*
X99365000Y-87935000D03*
G04 #@! TD*
G04 #@! TO.C,REF\u002A\u002A*
X113335000Y-100635000D03*
G04 #@! TD*
G04 #@! TO.C,TP15*
G36*
G01*
X66218000Y-134671000D02*
X66218000Y-133909000D01*
G75*
G02*
X66599000Y-133528000I381000J0D01*
G01*
X67361000Y-133528000D01*
G75*
G02*
X67742000Y-133909000I0J-381000D01*
G01*
X67742000Y-134671000D01*
G75*
G02*
X67361000Y-135052000I-381000J0D01*
G01*
X66599000Y-135052000D01*
G75*
G02*
X66218000Y-134671000I0J381000D01*
G01*
G37*
G04 #@! TD*
G04 #@! TO.C,REF\u002A\u002A*
X103175000Y-73965000D03*
G04 #@! TD*
G04 #@! TO.C,R17*
G36*
G01*
X61683750Y-124774999D02*
X62196250Y-124774999D01*
G75*
G02*
X62415000Y-124993749I0J-218750D01*
G01*
X62415000Y-125431249D01*
G75*
G02*
X62196250Y-125649999I-218750J0D01*
G01*
X61683750Y-125649999D01*
G75*
G02*
X61465000Y-125431249I0J218750D01*
G01*
X61465000Y-124993749D01*
G75*
G02*
X61683750Y-124774999I218750J0D01*
G01*
G37*
G36*
G01*
X61683750Y-126349999D02*
X62196250Y-126349999D01*
G75*
G02*
X62415000Y-126568749I0J-218750D01*
G01*
X62415000Y-127006249D01*
G75*
G02*
X62196250Y-127224999I-218750J0D01*
G01*
X61683750Y-127224999D01*
G75*
G02*
X61465000Y-127006249I0J218750D01*
G01*
X61465000Y-126568749D01*
G75*
G02*
X61683750Y-126349999I218750J0D01*
G01*
G37*
G04 #@! TD*
G04 #@! TO.C,REF\u002A\u002A*
X120955000Y-93015000D03*
G04 #@! TD*
G04 #@! TO.C,REF\u002A\u002A*
X100635000Y-76505000D03*
G04 #@! TD*
G04 #@! TO.C,REF\u002A\u002A*
X124765000Y-89205000D03*
G04 #@! TD*
G04 #@! TO.C,REF\u002A\u002A*
X109525000Y-90475000D03*
G04 #@! TD*
G04 #@! TO.C,REF\u002A\u002A*
X132385000Y-89205000D03*
G04 #@! TD*
G04 #@! TO.C,REF\u002A\u002A*
X109525000Y-100635000D03*
G04 #@! TD*
G04 #@! TO.C,REF\u002A\u002A*
X104445000Y-98095000D03*
G04 #@! TD*
G04 #@! TO.C,REF\u002A\u002A*
X109525000Y-85395000D03*
G04 #@! TD*
G04 #@! TO.C,REF\u002A\u002A*
X101905000Y-90475000D03*
G04 #@! TD*
D17*
G04 #@! TO.C,U5*
X63900000Y-130290000D03*
X62950000Y-130290000D03*
X62000000Y-130290000D03*
X62000000Y-132490000D03*
X63900000Y-132490000D03*
G04 #@! TD*
G04 #@! TO.C,R14*
G36*
G01*
X67006250Y-116907500D02*
X66493750Y-116907500D01*
G75*
G02*
X66275000Y-116688750I0J218750D01*
G01*
X66275000Y-116251250D01*
G75*
G02*
X66493750Y-116032500I218750J0D01*
G01*
X67006250Y-116032500D01*
G75*
G02*
X67225000Y-116251250I0J-218750D01*
G01*
X67225000Y-116688750D01*
G75*
G02*
X67006250Y-116907500I-218750J0D01*
G01*
G37*
G36*
G01*
X67006250Y-115332500D02*
X66493750Y-115332500D01*
G75*
G02*
X66275000Y-115113750I0J218750D01*
G01*
X66275000Y-114676250D01*
G75*
G02*
X66493750Y-114457500I218750J0D01*
G01*
X67006250Y-114457500D01*
G75*
G02*
X67225000Y-114676250I0J-218750D01*
G01*
X67225000Y-115113750D01*
G75*
G02*
X67006250Y-115332500I-218750J0D01*
G01*
G37*
G04 #@! TD*
G04 #@! TO.C,TP12*
G36*
G01*
X73838000Y-106731000D02*
X73838000Y-105969000D01*
G75*
G02*
X74219000Y-105588000I381000J0D01*
G01*
X74981000Y-105588000D01*
G75*
G02*
X75362000Y-105969000I0J-381000D01*
G01*
X75362000Y-106731000D01*
G75*
G02*
X74981000Y-107112000I-381000J0D01*
G01*
X74219000Y-107112000D01*
G75*
G02*
X73838000Y-106731000I0J381000D01*
G01*
G37*
G04 #@! TD*
G04 #@! TO.C,R4*
G36*
G01*
X99830000Y-117733750D02*
X99830000Y-118246250D01*
G75*
G02*
X99611250Y-118465000I-218750J0D01*
G01*
X99173750Y-118465000D01*
G75*
G02*
X98955000Y-118246250I0J218750D01*
G01*
X98955000Y-117733750D01*
G75*
G02*
X99173750Y-117515000I218750J0D01*
G01*
X99611250Y-117515000D01*
G75*
G02*
X99830000Y-117733750I0J-218750D01*
G01*
G37*
G36*
G01*
X98255000Y-117733750D02*
X98255000Y-118246250D01*
G75*
G02*
X98036250Y-118465000I-218750J0D01*
G01*
X97598750Y-118465000D01*
G75*
G02*
X97380000Y-118246250I0J218750D01*
G01*
X97380000Y-117733750D01*
G75*
G02*
X97598750Y-117515000I218750J0D01*
G01*
X98036250Y-117515000D01*
G75*
G02*
X98255000Y-117733750I0J-218750D01*
G01*
G37*
G04 #@! TD*
D11*
G04 #@! TO.C,REF\u002A\u002A*
X118415000Y-89205000D03*
G04 #@! TD*
G04 #@! TO.C,REF\u002A\u002A*
X114605000Y-82855000D03*
G04 #@! TD*
G04 #@! TO.C,REF\u002A\u002A*
X120955000Y-85395000D03*
G04 #@! TD*
G04 #@! TO.C,REF\u002A\u002A*
X128575000Y-90475000D03*
G04 #@! TD*
G04 #@! TO.C,REF\u002A\u002A*
X103175000Y-89205000D03*
G04 #@! TD*
G04 #@! TO.C,REF\u002A\u002A*
X100635000Y-86665000D03*
G04 #@! TD*
G04 #@! TO.C,REF\u002A\u002A*
X110795000Y-101905000D03*
G04 #@! TD*
G04 #@! TO.C,REF\u002A\u002A*
X101905000Y-95555000D03*
G04 #@! TD*
G04 #@! TO.C,TP8*
G36*
G01*
X86538000Y-127051000D02*
X86538000Y-126289000D01*
G75*
G02*
X86919000Y-125908000I381000J0D01*
G01*
X87681000Y-125908000D01*
G75*
G02*
X88062000Y-126289000I0J-381000D01*
G01*
X88062000Y-127051000D01*
G75*
G02*
X87681000Y-127432000I-381000J0D01*
G01*
X86919000Y-127432000D01*
G75*
G02*
X86538000Y-127051000I0J381000D01*
G01*
G37*
G04 #@! TD*
G04 #@! TO.C,REF\u002A\u002A*
X133655000Y-89205000D03*
G04 #@! TD*
G04 #@! TO.C,REF\u002A\u002A*
X109525000Y-84125000D03*
G04 #@! TD*
G04 #@! TO.C,REF\u002A\u002A*
X103175000Y-98095000D03*
G04 #@! TD*
G04 #@! TO.C,REF\u002A\u002A*
X104445000Y-95555000D03*
G04 #@! TD*
G04 #@! TO.C,REF\u002A\u002A*
X106985000Y-75235000D03*
G04 #@! TD*
G04 #@! TO.C,REF\u002A\u002A*
X115875000Y-89205000D03*
G04 #@! TD*
G04 #@! TO.C,REF\u002A\u002A*
X98095000Y-89205000D03*
G04 #@! TD*
G04 #@! TO.C,REF\u002A\u002A*
X118415000Y-87935000D03*
G04 #@! TD*
G04 #@! TO.C,REF\u002A\u002A*
X104445000Y-103175000D03*
G04 #@! TD*
G04 #@! TO.C,REF\u002A\u002A*
X109525000Y-96825000D03*
G04 #@! TD*
G04 #@! TO.C,REF\u002A\u002A*
X115875000Y-100635000D03*
G04 #@! TD*
G04 #@! TO.C,REF\u002A\u002A*
X101905000Y-94285000D03*
G04 #@! TD*
G04 #@! TO.C,REF\u002A\u002A*
X118415000Y-77775000D03*
G04 #@! TD*
G04 #@! TO.C,REF\u002A\u002A*
X129845000Y-89205000D03*
G04 #@! TD*
G04 #@! TO.C,REF\u002A\u002A*
X113335000Y-87935000D03*
G04 #@! TD*
G04 #@! TO.C,REF\u002A\u002A*
X115875000Y-76505000D03*
G04 #@! TD*
G04 #@! TO.C,REF\u002A\u002A*
X117145000Y-87935000D03*
G04 #@! TD*
G04 #@! TO.C,REF\u002A\u002A*
X100635000Y-90475000D03*
G04 #@! TD*
G04 #@! TO.C,U3*
G36*
G01*
X77060000Y-135235000D02*
X77060000Y-134935000D01*
G75*
G02*
X77210000Y-134785000I150000J0D01*
G01*
X78510000Y-134785000D01*
G75*
G02*
X78660000Y-134935000I0J-150000D01*
G01*
X78660000Y-135235000D01*
G75*
G02*
X78510000Y-135385000I-150000J0D01*
G01*
X77210000Y-135385000D01*
G75*
G02*
X77060000Y-135235000I0J150000D01*
G01*
G37*
G36*
G01*
X77060000Y-136505000D02*
X77060000Y-136205000D01*
G75*
G02*
X77210000Y-136055000I150000J0D01*
G01*
X78510000Y-136055000D01*
G75*
G02*
X78660000Y-136205000I0J-150000D01*
G01*
X78660000Y-136505000D01*
G75*
G02*
X78510000Y-136655000I-150000J0D01*
G01*
X77210000Y-136655000D01*
G75*
G02*
X77060000Y-136505000I0J150000D01*
G01*
G37*
G36*
G01*
X77060000Y-137775000D02*
X77060000Y-137475000D01*
G75*
G02*
X77210000Y-137325000I150000J0D01*
G01*
X78510000Y-137325000D01*
G75*
G02*
X78660000Y-137475000I0J-150000D01*
G01*
X78660000Y-137775000D01*
G75*
G02*
X78510000Y-137925000I-150000J0D01*
G01*
X77210000Y-137925000D01*
G75*
G02*
X77060000Y-137775000I0J150000D01*
G01*
G37*
G36*
G01*
X77060000Y-139045000D02*
X77060000Y-138745000D01*
G75*
G02*
X77210000Y-138595000I150000J0D01*
G01*
X78510000Y-138595000D01*
G75*
G02*
X78660000Y-138745000I0J-150000D01*
G01*
X78660000Y-139045000D01*
G75*
G02*
X78510000Y-139195000I-150000J0D01*
G01*
X77210000Y-139195000D01*
G75*
G02*
X77060000Y-139045000I0J150000D01*
G01*
G37*
G36*
G01*
X84260000Y-139045000D02*
X84260000Y-138745000D01*
G75*
G02*
X84410000Y-138595000I150000J0D01*
G01*
X85710000Y-138595000D01*
G75*
G02*
X85860000Y-138745000I0J-150000D01*
G01*
X85860000Y-139045000D01*
G75*
G02*
X85710000Y-139195000I-150000J0D01*
G01*
X84410000Y-139195000D01*
G75*
G02*
X84260000Y-139045000I0J150000D01*
G01*
G37*
G36*
G01*
X84260000Y-137775000D02*
X84260000Y-137475000D01*
G75*
G02*
X84410000Y-137325000I150000J0D01*
G01*
X85710000Y-137325000D01*
G75*
G02*
X85860000Y-137475000I0J-150000D01*
G01*
X85860000Y-137775000D01*
G75*
G02*
X85710000Y-137925000I-150000J0D01*
G01*
X84410000Y-137925000D01*
G75*
G02*
X84260000Y-137775000I0J150000D01*
G01*
G37*
G36*
G01*
X84260000Y-136505000D02*
X84260000Y-136205000D01*
G75*
G02*
X84410000Y-136055000I150000J0D01*
G01*
X85710000Y-136055000D01*
G75*
G02*
X85860000Y-136205000I0J-150000D01*
G01*
X85860000Y-136505000D01*
G75*
G02*
X85710000Y-136655000I-150000J0D01*
G01*
X84410000Y-136655000D01*
G75*
G02*
X84260000Y-136505000I0J150000D01*
G01*
G37*
G36*
G01*
X84260000Y-135235000D02*
X84260000Y-134935000D01*
G75*
G02*
X84410000Y-134785000I150000J0D01*
G01*
X85710000Y-134785000D01*
G75*
G02*
X85860000Y-134935000I0J-150000D01*
G01*
X85860000Y-135235000D01*
G75*
G02*
X85710000Y-135385000I-150000J0D01*
G01*
X84410000Y-135385000D01*
G75*
G02*
X84260000Y-135235000I0J150000D01*
G01*
G37*
G04 #@! TD*
G04 #@! TO.C,REF\u002A\u002A*
X103175000Y-90475000D03*
G04 #@! TD*
D18*
G04 #@! TO.C,U4*
X66234990Y-110992490D03*
X66234990Y-111942490D03*
X66234990Y-112892490D03*
X68434990Y-112892490D03*
X68434990Y-111942490D03*
X68434990Y-110992490D03*
G04 #@! TD*
D11*
G04 #@! TO.C,REF\u002A\u002A*
X98095000Y-91745000D03*
G04 #@! TD*
G04 #@! TO.C,REF\u002A\u002A*
X110795000Y-98095000D03*
G04 #@! TD*
G04 #@! TO.C,REF\u002A\u002A*
X133655000Y-87935000D03*
G04 #@! TD*
G04 #@! TO.C,REF\u002A\u002A*
X134925000Y-89205000D03*
G04 #@! TD*
G04 #@! TO.C,REF\u002A\u002A*
X100635000Y-98095000D03*
G04 #@! TD*
G04 #@! TO.C,REF\u002A\u002A*
X96825000Y-94285000D03*
G04 #@! TD*
G04 #@! TO.C,REF\u002A\u002A*
X118415000Y-79045000D03*
G04 #@! TD*
G04 #@! TO.C,REF\u002A\u002A*
X101905000Y-98095000D03*
G04 #@! TD*
G04 #@! TO.C,REF\u002A\u002A*
X124765000Y-93015000D03*
G04 #@! TD*
G04 #@! TO.C,REF\u002A\u002A*
X114605000Y-98095000D03*
G04 #@! TD*
G04 #@! TO.C,REF\u002A\u002A*
X114605000Y-89205000D03*
G04 #@! TD*
G04 #@! TO.C,REF\u002A\u002A*
X128575000Y-93015000D03*
G04 #@! TD*
G04 #@! TO.C,REF\u002A\u002A*
X103175000Y-80315000D03*
G04 #@! TD*
G04 #@! TO.C,REF\u002A\u002A*
X109525000Y-87935000D03*
G04 #@! TD*
G04 #@! TO.C,REF\u002A\u002A*
X112065000Y-95555000D03*
G04 #@! TD*
G04 #@! TO.C,REF\u002A\u002A*
X114605000Y-100635000D03*
G04 #@! TD*
G04 #@! TO.C,REF\u002A\u002A*
X137465000Y-93015000D03*
G04 #@! TD*
G04 #@! TO.C,REF\u002A\u002A*
X104445000Y-99365000D03*
G04 #@! TD*
G04 #@! TO.C,REF\u002A\u002A*
X141275000Y-89205000D03*
G04 #@! TD*
G04 #@! TO.C,REF\u002A\u002A*
X112065000Y-98095000D03*
G04 #@! TD*
G04 #@! TO.C,REF\u002A\u002A*
X112065000Y-99365000D03*
G04 #@! TD*
G04 #@! TO.C,REF\u002A\u002A*
X110795000Y-87935000D03*
G04 #@! TD*
G04 #@! TO.C,REF\u002A\u002A*
X112065000Y-82855000D03*
G04 #@! TD*
G04 #@! TO.C,REF\u002A\u002A*
X122225000Y-87935000D03*
G04 #@! TD*
G04 #@! TO.C,IC1*
G36*
G01*
X76687500Y-122150000D02*
X76812500Y-122150000D01*
G75*
G02*
X76875000Y-122212500I0J-62500D01*
G01*
X76875000Y-122887500D01*
G75*
G02*
X76812500Y-122950000I-62500J0D01*
G01*
X76687500Y-122950000D01*
G75*
G02*
X76625000Y-122887500I0J62500D01*
G01*
X76625000Y-122212500D01*
G75*
G02*
X76687500Y-122150000I62500J0D01*
G01*
G37*
G36*
G01*
X76187500Y-122150000D02*
X76312500Y-122150000D01*
G75*
G02*
X76375000Y-122212500I0J-62500D01*
G01*
X76375000Y-122887500D01*
G75*
G02*
X76312500Y-122950000I-62500J0D01*
G01*
X76187500Y-122950000D01*
G75*
G02*
X76125000Y-122887500I0J62500D01*
G01*
X76125000Y-122212500D01*
G75*
G02*
X76187500Y-122150000I62500J0D01*
G01*
G37*
G36*
G01*
X75687500Y-122150000D02*
X75812500Y-122150000D01*
G75*
G02*
X75875000Y-122212500I0J-62500D01*
G01*
X75875000Y-122887500D01*
G75*
G02*
X75812500Y-122950000I-62500J0D01*
G01*
X75687500Y-122950000D01*
G75*
G02*
X75625000Y-122887500I0J62500D01*
G01*
X75625000Y-122212500D01*
G75*
G02*
X75687500Y-122150000I62500J0D01*
G01*
G37*
G36*
G01*
X75187500Y-122150000D02*
X75312500Y-122150000D01*
G75*
G02*
X75375000Y-122212500I0J-62500D01*
G01*
X75375000Y-122887500D01*
G75*
G02*
X75312500Y-122950000I-62500J0D01*
G01*
X75187500Y-122950000D01*
G75*
G02*
X75125000Y-122887500I0J62500D01*
G01*
X75125000Y-122212500D01*
G75*
G02*
X75187500Y-122150000I62500J0D01*
G01*
G37*
G36*
G01*
X74687500Y-122150000D02*
X74812500Y-122150000D01*
G75*
G02*
X74875000Y-122212500I0J-62500D01*
G01*
X74875000Y-122887500D01*
G75*
G02*
X74812500Y-122950000I-62500J0D01*
G01*
X74687500Y-122950000D01*
G75*
G02*
X74625000Y-122887500I0J62500D01*
G01*
X74625000Y-122212500D01*
G75*
G02*
X74687500Y-122150000I62500J0D01*
G01*
G37*
G36*
G01*
X74187500Y-122150000D02*
X74312500Y-122150000D01*
G75*
G02*
X74375000Y-122212500I0J-62500D01*
G01*
X74375000Y-122887500D01*
G75*
G02*
X74312500Y-122950000I-62500J0D01*
G01*
X74187500Y-122950000D01*
G75*
G02*
X74125000Y-122887500I0J62500D01*
G01*
X74125000Y-122212500D01*
G75*
G02*
X74187500Y-122150000I62500J0D01*
G01*
G37*
G36*
G01*
X73687500Y-122150000D02*
X73812500Y-122150000D01*
G75*
G02*
X73875000Y-122212500I0J-62500D01*
G01*
X73875000Y-122887500D01*
G75*
G02*
X73812500Y-122950000I-62500J0D01*
G01*
X73687500Y-122950000D01*
G75*
G02*
X73625000Y-122887500I0J62500D01*
G01*
X73625000Y-122212500D01*
G75*
G02*
X73687500Y-122150000I62500J0D01*
G01*
G37*
G36*
G01*
X73187500Y-122150000D02*
X73312500Y-122150000D01*
G75*
G02*
X73375000Y-122212500I0J-62500D01*
G01*
X73375000Y-122887500D01*
G75*
G02*
X73312500Y-122950000I-62500J0D01*
G01*
X73187500Y-122950000D01*
G75*
G02*
X73125000Y-122887500I0J62500D01*
G01*
X73125000Y-122212500D01*
G75*
G02*
X73187500Y-122150000I62500J0D01*
G01*
G37*
G36*
G01*
X72687500Y-122150000D02*
X72812500Y-122150000D01*
G75*
G02*
X72875000Y-122212500I0J-62500D01*
G01*
X72875000Y-122887500D01*
G75*
G02*
X72812500Y-122950000I-62500J0D01*
G01*
X72687500Y-122950000D01*
G75*
G02*
X72625000Y-122887500I0J62500D01*
G01*
X72625000Y-122212500D01*
G75*
G02*
X72687500Y-122150000I62500J0D01*
G01*
G37*
G36*
G01*
X72187500Y-122150000D02*
X72312500Y-122150000D01*
G75*
G02*
X72375000Y-122212500I0J-62500D01*
G01*
X72375000Y-122887500D01*
G75*
G02*
X72312500Y-122950000I-62500J0D01*
G01*
X72187500Y-122950000D01*
G75*
G02*
X72125000Y-122887500I0J62500D01*
G01*
X72125000Y-122212500D01*
G75*
G02*
X72187500Y-122150000I62500J0D01*
G01*
G37*
G36*
G01*
X71687500Y-122150000D02*
X71812500Y-122150000D01*
G75*
G02*
X71875000Y-122212500I0J-62500D01*
G01*
X71875000Y-122887500D01*
G75*
G02*
X71812500Y-122950000I-62500J0D01*
G01*
X71687500Y-122950000D01*
G75*
G02*
X71625000Y-122887500I0J62500D01*
G01*
X71625000Y-122212500D01*
G75*
G02*
X71687500Y-122150000I62500J0D01*
G01*
G37*
G36*
G01*
X71187500Y-122150000D02*
X71312500Y-122150000D01*
G75*
G02*
X71375000Y-122212500I0J-62500D01*
G01*
X71375000Y-122887500D01*
G75*
G02*
X71312500Y-122950000I-62500J0D01*
G01*
X71187500Y-122950000D01*
G75*
G02*
X71125000Y-122887500I0J62500D01*
G01*
X71125000Y-122212500D01*
G75*
G02*
X71187500Y-122150000I62500J0D01*
G01*
G37*
G36*
G01*
X70212500Y-123125000D02*
X70887500Y-123125000D01*
G75*
G02*
X70950000Y-123187500I0J-62500D01*
G01*
X70950000Y-123312500D01*
G75*
G02*
X70887500Y-123375000I-62500J0D01*
G01*
X70212500Y-123375000D01*
G75*
G02*
X70150000Y-123312500I0J62500D01*
G01*
X70150000Y-123187500D01*
G75*
G02*
X70212500Y-123125000I62500J0D01*
G01*
G37*
G36*
G01*
X70212500Y-123625000D02*
X70887500Y-123625000D01*
G75*
G02*
X70950000Y-123687500I0J-62500D01*
G01*
X70950000Y-123812500D01*
G75*
G02*
X70887500Y-123875000I-62500J0D01*
G01*
X70212500Y-123875000D01*
G75*
G02*
X70150000Y-123812500I0J62500D01*
G01*
X70150000Y-123687500D01*
G75*
G02*
X70212500Y-123625000I62500J0D01*
G01*
G37*
G36*
G01*
X70212500Y-124125000D02*
X70887500Y-124125000D01*
G75*
G02*
X70950000Y-124187500I0J-62500D01*
G01*
X70950000Y-124312500D01*
G75*
G02*
X70887500Y-124375000I-62500J0D01*
G01*
X70212500Y-124375000D01*
G75*
G02*
X70150000Y-124312500I0J62500D01*
G01*
X70150000Y-124187500D01*
G75*
G02*
X70212500Y-124125000I62500J0D01*
G01*
G37*
G36*
G01*
X70212500Y-124625000D02*
X70887500Y-124625000D01*
G75*
G02*
X70950000Y-124687500I0J-62500D01*
G01*
X70950000Y-124812500D01*
G75*
G02*
X70887500Y-124875000I-62500J0D01*
G01*
X70212500Y-124875000D01*
G75*
G02*
X70150000Y-124812500I0J62500D01*
G01*
X70150000Y-124687500D01*
G75*
G02*
X70212500Y-124625000I62500J0D01*
G01*
G37*
G36*
G01*
X70212500Y-125125000D02*
X70887500Y-125125000D01*
G75*
G02*
X70950000Y-125187500I0J-62500D01*
G01*
X70950000Y-125312500D01*
G75*
G02*
X70887500Y-125375000I-62500J0D01*
G01*
X70212500Y-125375000D01*
G75*
G02*
X70150000Y-125312500I0J62500D01*
G01*
X70150000Y-125187500D01*
G75*
G02*
X70212500Y-125125000I62500J0D01*
G01*
G37*
G36*
G01*
X70212500Y-125625000D02*
X70887500Y-125625000D01*
G75*
G02*
X70950000Y-125687500I0J-62500D01*
G01*
X70950000Y-125812500D01*
G75*
G02*
X70887500Y-125875000I-62500J0D01*
G01*
X70212500Y-125875000D01*
G75*
G02*
X70150000Y-125812500I0J62500D01*
G01*
X70150000Y-125687500D01*
G75*
G02*
X70212500Y-125625000I62500J0D01*
G01*
G37*
G36*
G01*
X70212500Y-126125000D02*
X70887500Y-126125000D01*
G75*
G02*
X70950000Y-126187500I0J-62500D01*
G01*
X70950000Y-126312500D01*
G75*
G02*
X70887500Y-126375000I-62500J0D01*
G01*
X70212500Y-126375000D01*
G75*
G02*
X70150000Y-126312500I0J62500D01*
G01*
X70150000Y-126187500D01*
G75*
G02*
X70212500Y-126125000I62500J0D01*
G01*
G37*
G36*
G01*
X70212500Y-126625000D02*
X70887500Y-126625000D01*
G75*
G02*
X70950000Y-126687500I0J-62500D01*
G01*
X70950000Y-126812500D01*
G75*
G02*
X70887500Y-126875000I-62500J0D01*
G01*
X70212500Y-126875000D01*
G75*
G02*
X70150000Y-126812500I0J62500D01*
G01*
X70150000Y-126687500D01*
G75*
G02*
X70212500Y-126625000I62500J0D01*
G01*
G37*
G36*
G01*
X70212500Y-127125000D02*
X70887500Y-127125000D01*
G75*
G02*
X70950000Y-127187500I0J-62500D01*
G01*
X70950000Y-127312500D01*
G75*
G02*
X70887500Y-127375000I-62500J0D01*
G01*
X70212500Y-127375000D01*
G75*
G02*
X70150000Y-127312500I0J62500D01*
G01*
X70150000Y-127187500D01*
G75*
G02*
X70212500Y-127125000I62500J0D01*
G01*
G37*
G36*
G01*
X70212500Y-127625000D02*
X70887500Y-127625000D01*
G75*
G02*
X70950000Y-127687500I0J-62500D01*
G01*
X70950000Y-127812500D01*
G75*
G02*
X70887500Y-127875000I-62500J0D01*
G01*
X70212500Y-127875000D01*
G75*
G02*
X70150000Y-127812500I0J62500D01*
G01*
X70150000Y-127687500D01*
G75*
G02*
X70212500Y-127625000I62500J0D01*
G01*
G37*
G36*
G01*
X70212500Y-128125000D02*
X70887500Y-128125000D01*
G75*
G02*
X70950000Y-128187500I0J-62500D01*
G01*
X70950000Y-128312500D01*
G75*
G02*
X70887500Y-128375000I-62500J0D01*
G01*
X70212500Y-128375000D01*
G75*
G02*
X70150000Y-128312500I0J62500D01*
G01*
X70150000Y-128187500D01*
G75*
G02*
X70212500Y-128125000I62500J0D01*
G01*
G37*
G36*
G01*
X70212500Y-128625000D02*
X70887500Y-128625000D01*
G75*
G02*
X70950000Y-128687500I0J-62500D01*
G01*
X70950000Y-128812500D01*
G75*
G02*
X70887500Y-128875000I-62500J0D01*
G01*
X70212500Y-128875000D01*
G75*
G02*
X70150000Y-128812500I0J62500D01*
G01*
X70150000Y-128687500D01*
G75*
G02*
X70212500Y-128625000I62500J0D01*
G01*
G37*
G36*
G01*
X71187500Y-129050000D02*
X71312500Y-129050000D01*
G75*
G02*
X71375000Y-129112500I0J-62500D01*
G01*
X71375000Y-129787500D01*
G75*
G02*
X71312500Y-129850000I-62500J0D01*
G01*
X71187500Y-129850000D01*
G75*
G02*
X71125000Y-129787500I0J62500D01*
G01*
X71125000Y-129112500D01*
G75*
G02*
X71187500Y-129050000I62500J0D01*
G01*
G37*
G36*
G01*
X71687500Y-129050000D02*
X71812500Y-129050000D01*
G75*
G02*
X71875000Y-129112500I0J-62500D01*
G01*
X71875000Y-129787500D01*
G75*
G02*
X71812500Y-129850000I-62500J0D01*
G01*
X71687500Y-129850000D01*
G75*
G02*
X71625000Y-129787500I0J62500D01*
G01*
X71625000Y-129112500D01*
G75*
G02*
X71687500Y-129050000I62500J0D01*
G01*
G37*
G36*
G01*
X72187500Y-129050000D02*
X72312500Y-129050000D01*
G75*
G02*
X72375000Y-129112500I0J-62500D01*
G01*
X72375000Y-129787500D01*
G75*
G02*
X72312500Y-129850000I-62500J0D01*
G01*
X72187500Y-129850000D01*
G75*
G02*
X72125000Y-129787500I0J62500D01*
G01*
X72125000Y-129112500D01*
G75*
G02*
X72187500Y-129050000I62500J0D01*
G01*
G37*
G36*
G01*
X72687500Y-129050000D02*
X72812500Y-129050000D01*
G75*
G02*
X72875000Y-129112500I0J-62500D01*
G01*
X72875000Y-129787500D01*
G75*
G02*
X72812500Y-129850000I-62500J0D01*
G01*
X72687500Y-129850000D01*
G75*
G02*
X72625000Y-129787500I0J62500D01*
G01*
X72625000Y-129112500D01*
G75*
G02*
X72687500Y-129050000I62500J0D01*
G01*
G37*
G36*
G01*
X73187500Y-129050000D02*
X73312500Y-129050000D01*
G75*
G02*
X73375000Y-129112500I0J-62500D01*
G01*
X73375000Y-129787500D01*
G75*
G02*
X73312500Y-129850000I-62500J0D01*
G01*
X73187500Y-129850000D01*
G75*
G02*
X73125000Y-129787500I0J62500D01*
G01*
X73125000Y-129112500D01*
G75*
G02*
X73187500Y-129050000I62500J0D01*
G01*
G37*
G36*
G01*
X73687500Y-129050000D02*
X73812500Y-129050000D01*
G75*
G02*
X73875000Y-129112500I0J-62500D01*
G01*
X73875000Y-129787500D01*
G75*
G02*
X73812500Y-129850000I-62500J0D01*
G01*
X73687500Y-129850000D01*
G75*
G02*
X73625000Y-129787500I0J62500D01*
G01*
X73625000Y-129112500D01*
G75*
G02*
X73687500Y-129050000I62500J0D01*
G01*
G37*
G36*
G01*
X74187500Y-129050000D02*
X74312500Y-129050000D01*
G75*
G02*
X74375000Y-129112500I0J-62500D01*
G01*
X74375000Y-129787500D01*
G75*
G02*
X74312500Y-129850000I-62500J0D01*
G01*
X74187500Y-129850000D01*
G75*
G02*
X74125000Y-129787500I0J62500D01*
G01*
X74125000Y-129112500D01*
G75*
G02*
X74187500Y-129050000I62500J0D01*
G01*
G37*
G36*
G01*
X74687500Y-129050000D02*
X74812500Y-129050000D01*
G75*
G02*
X74875000Y-129112500I0J-62500D01*
G01*
X74875000Y-129787500D01*
G75*
G02*
X74812500Y-129850000I-62500J0D01*
G01*
X74687500Y-129850000D01*
G75*
G02*
X74625000Y-129787500I0J62500D01*
G01*
X74625000Y-129112500D01*
G75*
G02*
X74687500Y-129050000I62500J0D01*
G01*
G37*
G36*
G01*
X75187500Y-129050000D02*
X75312500Y-129050000D01*
G75*
G02*
X75375000Y-129112500I0J-62500D01*
G01*
X75375000Y-129787500D01*
G75*
G02*
X75312500Y-129850000I-62500J0D01*
G01*
X75187500Y-129850000D01*
G75*
G02*
X75125000Y-129787500I0J62500D01*
G01*
X75125000Y-129112500D01*
G75*
G02*
X75187500Y-129050000I62500J0D01*
G01*
G37*
G36*
G01*
X75687500Y-129050000D02*
X75812500Y-129050000D01*
G75*
G02*
X75875000Y-129112500I0J-62500D01*
G01*
X75875000Y-129787500D01*
G75*
G02*
X75812500Y-129850000I-62500J0D01*
G01*
X75687500Y-129850000D01*
G75*
G02*
X75625000Y-129787500I0J62500D01*
G01*
X75625000Y-129112500D01*
G75*
G02*
X75687500Y-129050000I62500J0D01*
G01*
G37*
G36*
G01*
X76187500Y-129050000D02*
X76312500Y-129050000D01*
G75*
G02*
X76375000Y-129112500I0J-62500D01*
G01*
X76375000Y-129787500D01*
G75*
G02*
X76312500Y-129850000I-62500J0D01*
G01*
X76187500Y-129850000D01*
G75*
G02*
X76125000Y-129787500I0J62500D01*
G01*
X76125000Y-129112500D01*
G75*
G02*
X76187500Y-129050000I62500J0D01*
G01*
G37*
G36*
G01*
X76687500Y-129050000D02*
X76812500Y-129050000D01*
G75*
G02*
X76875000Y-129112500I0J-62500D01*
G01*
X76875000Y-129787500D01*
G75*
G02*
X76812500Y-129850000I-62500J0D01*
G01*
X76687500Y-129850000D01*
G75*
G02*
X76625000Y-129787500I0J62500D01*
G01*
X76625000Y-129112500D01*
G75*
G02*
X76687500Y-129050000I62500J0D01*
G01*
G37*
G36*
G01*
X77112500Y-128625000D02*
X77787500Y-128625000D01*
G75*
G02*
X77850000Y-128687500I0J-62500D01*
G01*
X77850000Y-128812500D01*
G75*
G02*
X77787500Y-128875000I-62500J0D01*
G01*
X77112500Y-128875000D01*
G75*
G02*
X77050000Y-128812500I0J62500D01*
G01*
X77050000Y-128687500D01*
G75*
G02*
X77112500Y-128625000I62500J0D01*
G01*
G37*
G36*
G01*
X77112500Y-128125000D02*
X77787500Y-128125000D01*
G75*
G02*
X77850000Y-128187500I0J-62500D01*
G01*
X77850000Y-128312500D01*
G75*
G02*
X77787500Y-128375000I-62500J0D01*
G01*
X77112500Y-128375000D01*
G75*
G02*
X77050000Y-128312500I0J62500D01*
G01*
X77050000Y-128187500D01*
G75*
G02*
X77112500Y-128125000I62500J0D01*
G01*
G37*
G36*
G01*
X77112500Y-127625000D02*
X77787500Y-127625000D01*
G75*
G02*
X77850000Y-127687500I0J-62500D01*
G01*
X77850000Y-127812500D01*
G75*
G02*
X77787500Y-127875000I-62500J0D01*
G01*
X77112500Y-127875000D01*
G75*
G02*
X77050000Y-127812500I0J62500D01*
G01*
X77050000Y-127687500D01*
G75*
G02*
X77112500Y-127625000I62500J0D01*
G01*
G37*
G36*
G01*
X77112500Y-127125000D02*
X77787500Y-127125000D01*
G75*
G02*
X77850000Y-127187500I0J-62500D01*
G01*
X77850000Y-127312500D01*
G75*
G02*
X77787500Y-127375000I-62500J0D01*
G01*
X77112500Y-127375000D01*
G75*
G02*
X77050000Y-127312500I0J62500D01*
G01*
X77050000Y-127187500D01*
G75*
G02*
X77112500Y-127125000I62500J0D01*
G01*
G37*
G36*
G01*
X77112500Y-126625000D02*
X77787500Y-126625000D01*
G75*
G02*
X77850000Y-126687500I0J-62500D01*
G01*
X77850000Y-126812500D01*
G75*
G02*
X77787500Y-126875000I-62500J0D01*
G01*
X77112500Y-126875000D01*
G75*
G02*
X77050000Y-126812500I0J62500D01*
G01*
X77050000Y-126687500D01*
G75*
G02*
X77112500Y-126625000I62500J0D01*
G01*
G37*
G36*
G01*
X77112500Y-126125000D02*
X77787500Y-126125000D01*
G75*
G02*
X77850000Y-126187500I0J-62500D01*
G01*
X77850000Y-126312500D01*
G75*
G02*
X77787500Y-126375000I-62500J0D01*
G01*
X77112500Y-126375000D01*
G75*
G02*
X77050000Y-126312500I0J62500D01*
G01*
X77050000Y-126187500D01*
G75*
G02*
X77112500Y-126125000I62500J0D01*
G01*
G37*
G36*
G01*
X77112500Y-125625000D02*
X77787500Y-125625000D01*
G75*
G02*
X77850000Y-125687500I0J-62500D01*
G01*
X77850000Y-125812500D01*
G75*
G02*
X77787500Y-125875000I-62500J0D01*
G01*
X77112500Y-125875000D01*
G75*
G02*
X77050000Y-125812500I0J62500D01*
G01*
X77050000Y-125687500D01*
G75*
G02*
X77112500Y-125625000I62500J0D01*
G01*
G37*
G36*
G01*
X77112500Y-125125000D02*
X77787500Y-125125000D01*
G75*
G02*
X77850000Y-125187500I0J-62500D01*
G01*
X77850000Y-125312500D01*
G75*
G02*
X77787500Y-125375000I-62500J0D01*
G01*
X77112500Y-125375000D01*
G75*
G02*
X77050000Y-125312500I0J62500D01*
G01*
X77050000Y-125187500D01*
G75*
G02*
X77112500Y-125125000I62500J0D01*
G01*
G37*
G36*
G01*
X77112500Y-124625000D02*
X77787500Y-124625000D01*
G75*
G02*
X77850000Y-124687500I0J-62500D01*
G01*
X77850000Y-124812500D01*
G75*
G02*
X77787500Y-124875000I-62500J0D01*
G01*
X77112500Y-124875000D01*
G75*
G02*
X77050000Y-124812500I0J62500D01*
G01*
X77050000Y-124687500D01*
G75*
G02*
X77112500Y-124625000I62500J0D01*
G01*
G37*
G36*
G01*
X77112500Y-124125000D02*
X77787500Y-124125000D01*
G75*
G02*
X77850000Y-124187500I0J-62500D01*
G01*
X77850000Y-124312500D01*
G75*
G02*
X77787500Y-124375000I-62500J0D01*
G01*
X77112500Y-124375000D01*
G75*
G02*
X77050000Y-124312500I0J62500D01*
G01*
X77050000Y-124187500D01*
G75*
G02*
X77112500Y-124125000I62500J0D01*
G01*
G37*
G36*
G01*
X77112500Y-123625000D02*
X77787500Y-123625000D01*
G75*
G02*
X77850000Y-123687500I0J-62500D01*
G01*
X77850000Y-123812500D01*
G75*
G02*
X77787500Y-123875000I-62500J0D01*
G01*
X77112500Y-123875000D01*
G75*
G02*
X77050000Y-123812500I0J62500D01*
G01*
X77050000Y-123687500D01*
G75*
G02*
X77112500Y-123625000I62500J0D01*
G01*
G37*
G36*
G01*
X77112500Y-123125000D02*
X77787500Y-123125000D01*
G75*
G02*
X77850000Y-123187500I0J-62500D01*
G01*
X77850000Y-123312500D01*
G75*
G02*
X77787500Y-123375000I-62500J0D01*
G01*
X77112500Y-123375000D01*
G75*
G02*
X77050000Y-123312500I0J62500D01*
G01*
X77050000Y-123187500D01*
G75*
G02*
X77112500Y-123125000I62500J0D01*
G01*
G37*
D19*
X74000000Y-126000000D03*
G04 #@! TD*
D11*
G04 #@! TO.C,REF\u002A\u002A*
X114605000Y-84125000D03*
G04 #@! TD*
G04 #@! TO.C,REF\u002A\u002A*
X109525000Y-82855000D03*
G04 #@! TD*
G04 #@! TO.C,REF\u002A\u002A*
X114605000Y-96825000D03*
G04 #@! TD*
G04 #@! TO.C,REF\u002A\u002A*
X101905000Y-77775000D03*
G04 #@! TD*
G04 #@! TO.C,REF\u002A\u002A*
X119685000Y-96825000D03*
G04 #@! TD*
G04 #@! TO.C,REF\u002A\u002A*
X136195000Y-89205000D03*
G04 #@! TD*
G04 #@! TO.C,C6*
G36*
G01*
X67525000Y-124993750D02*
X67525000Y-125506250D01*
G75*
G02*
X67306250Y-125725000I-218750J0D01*
G01*
X66868750Y-125725000D01*
G75*
G02*
X66650000Y-125506250I0J218750D01*
G01*
X66650000Y-124993750D01*
G75*
G02*
X66868750Y-124775000I218750J0D01*
G01*
X67306250Y-124775000D01*
G75*
G02*
X67525000Y-124993750I0J-218750D01*
G01*
G37*
G36*
G01*
X65950000Y-124993750D02*
X65950000Y-125506250D01*
G75*
G02*
X65731250Y-125725000I-218750J0D01*
G01*
X65293750Y-125725000D01*
G75*
G02*
X65075000Y-125506250I0J218750D01*
G01*
X65075000Y-124993750D01*
G75*
G02*
X65293750Y-124775000I218750J0D01*
G01*
X65731250Y-124775000D01*
G75*
G02*
X65950000Y-124993750I0J-218750D01*
G01*
G37*
G04 #@! TD*
G04 #@! TO.C,REF\u002A\u002A*
X109525000Y-101905000D03*
G04 #@! TD*
G04 #@! TO.C,REF\u002A\u002A*
X119685000Y-100635000D03*
G04 #@! TD*
G04 #@! TO.C,REF\u002A\u002A*
X117145000Y-84125000D03*
G04 #@! TD*
G04 #@! TO.C,REF\u002A\u002A*
X137465000Y-91745000D03*
G04 #@! TD*
G04 #@! TO.C,REF\u002A\u002A*
X119685000Y-82855000D03*
G04 #@! TD*
G04 #@! TO.C,TP9*
G36*
G01*
X86538000Y-129591000D02*
X86538000Y-128829000D01*
G75*
G02*
X86919000Y-128448000I381000J0D01*
G01*
X87681000Y-128448000D01*
G75*
G02*
X88062000Y-128829000I0J-381000D01*
G01*
X88062000Y-129591000D01*
G75*
G02*
X87681000Y-129972000I-381000J0D01*
G01*
X86919000Y-129972000D01*
G75*
G02*
X86538000Y-129591000I0J381000D01*
G01*
G37*
G04 #@! TD*
G04 #@! TO.C,REF\u002A\u002A*
X106985000Y-103175000D03*
G04 #@! TD*
G04 #@! TO.C,C10*
G36*
G01*
X64175000Y-133933750D02*
X64175000Y-134446250D01*
G75*
G02*
X63956250Y-134665000I-218750J0D01*
G01*
X63518750Y-134665000D01*
G75*
G02*
X63300000Y-134446250I0J218750D01*
G01*
X63300000Y-133933750D01*
G75*
G02*
X63518750Y-133715000I218750J0D01*
G01*
X63956250Y-133715000D01*
G75*
G02*
X64175000Y-133933750I0J-218750D01*
G01*
G37*
G36*
G01*
X62600000Y-133933750D02*
X62600000Y-134446250D01*
G75*
G02*
X62381250Y-134665000I-218750J0D01*
G01*
X61943750Y-134665000D01*
G75*
G02*
X61725000Y-134446250I0J218750D01*
G01*
X61725000Y-133933750D01*
G75*
G02*
X61943750Y-133715000I218750J0D01*
G01*
X62381250Y-133715000D01*
G75*
G02*
X62600000Y-133933750I0J-218750D01*
G01*
G37*
G04 #@! TD*
G04 #@! TO.C,REF\u002A\u002A*
X101905000Y-96825000D03*
G04 #@! TD*
G04 #@! TO.C,REF\u002A\u002A*
X138735000Y-91745000D03*
G04 #@! TD*
G04 #@! TO.C,REF\u002A\u002A*
X100635000Y-91745000D03*
G04 #@! TD*
G04 #@! TO.C,REF\u002A\u002A*
X123495000Y-89205000D03*
G04 #@! TD*
G04 #@! TO.C,REF\u002A\u002A*
X109525000Y-76505000D03*
G04 #@! TD*
G04 #@! TO.C,REF\u002A\u002A*
X113335000Y-99365000D03*
G04 #@! TD*
G04 #@! TO.C,REF\u002A\u002A*
X134925000Y-90475000D03*
G04 #@! TD*
G04 #@! TO.C,REF\u002A\u002A*
X122225000Y-93015000D03*
G04 #@! TD*
G04 #@! TO.C,REF\u002A\u002A*
X104445000Y-104445000D03*
G04 #@! TD*
G04 #@! TO.C,R18*
G36*
G01*
X67475000Y-121813750D02*
X67475000Y-122326250D01*
G75*
G02*
X67256250Y-122545000I-218750J0D01*
G01*
X66818750Y-122545000D01*
G75*
G02*
X66600000Y-122326250I0J218750D01*
G01*
X66600000Y-121813750D01*
G75*
G02*
X66818750Y-121595000I218750J0D01*
G01*
X67256250Y-121595000D01*
G75*
G02*
X67475000Y-121813750I0J-218750D01*
G01*
G37*
G36*
G01*
X65900000Y-121813750D02*
X65900000Y-122326250D01*
G75*
G02*
X65681250Y-122545000I-218750J0D01*
G01*
X65243750Y-122545000D01*
G75*
G02*
X65025000Y-122326250I0J218750D01*
G01*
X65025000Y-121813750D01*
G75*
G02*
X65243750Y-121595000I218750J0D01*
G01*
X65681250Y-121595000D01*
G75*
G02*
X65900000Y-121813750I0J-218750D01*
G01*
G37*
G04 #@! TD*
G04 #@! TO.C,REF\u002A\u002A*
X129845000Y-91745000D03*
G04 #@! TD*
G04 #@! TO.C,REF\u002A\u002A*
X98095000Y-87935000D03*
G04 #@! TD*
G04 #@! TO.C,REF\u002A\u002A*
X103175000Y-103175000D03*
G04 #@! TD*
G04 #@! TO.C,REF\u002A\u002A*
X106985000Y-99365000D03*
G04 #@! TD*
G04 #@! TO.C,REF\u002A\u002A*
X99365000Y-80315000D03*
G04 #@! TD*
G04 #@! TO.C,REF\u002A\u002A*
X117145000Y-86665000D03*
G04 #@! TD*
G04 #@! TO.C,REF\u002A\u002A*
X122225000Y-98095000D03*
G04 #@! TD*
G04 #@! TO.C,REF\u002A\u002A*
X120955000Y-86665000D03*
G04 #@! TD*
G04 #@! TO.C,REF\u002A\u002A*
X128575000Y-91745000D03*
G04 #@! TD*
G04 #@! TO.C,REF\u002A\u002A*
X98095000Y-90475000D03*
G04 #@! TD*
G04 #@! TO.C,REF\u002A\u002A*
X118415000Y-98095000D03*
G04 #@! TD*
G04 #@! TO.C,REF\u002A\u002A*
X112065000Y-86665000D03*
G04 #@! TD*
G04 #@! TO.C,REF\u002A\u002A*
X118415000Y-86665000D03*
G04 #@! TD*
G04 #@! TO.C,REF\u002A\u002A*
X123495000Y-86665000D03*
G04 #@! TD*
G04 #@! TO.C,REF\u002A\u002A*
X99365000Y-99365000D03*
G04 #@! TD*
G04 #@! TO.C,REF\u002A\u002A*
X99365000Y-90475000D03*
G04 #@! TD*
G04 #@! TO.C,REF\u002A\u002A*
X120955000Y-89205000D03*
G04 #@! TD*
G04 #@! TO.C,REF\u002A\u002A*
X103175000Y-99365000D03*
G04 #@! TD*
G04 #@! TO.C,REF\u002A\u002A*
X131115000Y-94285000D03*
G04 #@! TD*
G04 #@! TO.C,C7*
G36*
G01*
X74456250Y-120025000D02*
X73943750Y-120025000D01*
G75*
G02*
X73725000Y-119806250I0J218750D01*
G01*
X73725000Y-119368750D01*
G75*
G02*
X73943750Y-119150000I218750J0D01*
G01*
X74456250Y-119150000D01*
G75*
G02*
X74675000Y-119368750I0J-218750D01*
G01*
X74675000Y-119806250D01*
G75*
G02*
X74456250Y-120025000I-218750J0D01*
G01*
G37*
G36*
G01*
X74456250Y-118450000D02*
X73943750Y-118450000D01*
G75*
G02*
X73725000Y-118231250I0J218750D01*
G01*
X73725000Y-117793750D01*
G75*
G02*
X73943750Y-117575000I218750J0D01*
G01*
X74456250Y-117575000D01*
G75*
G02*
X74675000Y-117793750I0J-218750D01*
G01*
X74675000Y-118231250D01*
G75*
G02*
X74456250Y-118450000I-218750J0D01*
G01*
G37*
G04 #@! TD*
G04 #@! TO.C,REF\u002A\u002A*
X99365000Y-89205000D03*
G04 #@! TD*
G04 #@! TO.C,REF\u002A\u002A*
X112065000Y-101905000D03*
G04 #@! TD*
G04 #@! TO.C,REF\u002A\u002A*
X105715000Y-100635000D03*
G04 #@! TD*
G04 #@! TO.C,REF\u002A\u002A*
X120955000Y-77775000D03*
G04 #@! TD*
D18*
G04 #@! TO.C,U6*
X61934990Y-110992490D03*
X61934990Y-111942490D03*
X61934990Y-112892490D03*
X64134990Y-112892490D03*
X64134990Y-111942490D03*
X64134990Y-110992490D03*
G04 #@! TD*
D11*
G04 #@! TO.C,REF\u002A\u002A*
X115875000Y-85395000D03*
G04 #@! TD*
G04 #@! TO.C,REF\u002A\u002A*
X123495000Y-95555000D03*
G04 #@! TD*
G04 #@! TO.C,REF\u002A\u002A*
X103175000Y-87935000D03*
G04 #@! TD*
G04 #@! TO.C,REF\u002A\u002A*
X127305000Y-91745000D03*
G04 #@! TD*
G04 #@! TO.C,TP5*
G36*
G01*
X76378000Y-109271000D02*
X76378000Y-108509000D01*
G75*
G02*
X76759000Y-108128000I381000J0D01*
G01*
X77521000Y-108128000D01*
G75*
G02*
X77902000Y-108509000I0J-381000D01*
G01*
X77902000Y-109271000D01*
G75*
G02*
X77521000Y-109652000I-381000J0D01*
G01*
X76759000Y-109652000D01*
G75*
G02*
X76378000Y-109271000I0J381000D01*
G01*
G37*
G04 #@! TD*
G04 #@! TO.C,REF\u002A\u002A*
X103175000Y-85395000D03*
G04 #@! TD*
G04 #@! TO.C,C5*
G36*
G01*
X79525000Y-126606250D02*
X79525000Y-126093750D01*
G75*
G02*
X79743750Y-125875000I218750J0D01*
G01*
X80181250Y-125875000D01*
G75*
G02*
X80400000Y-126093750I0J-218750D01*
G01*
X80400000Y-126606250D01*
G75*
G02*
X80181250Y-126825000I-218750J0D01*
G01*
X79743750Y-126825000D01*
G75*
G02*
X79525000Y-126606250I0J218750D01*
G01*
G37*
G36*
G01*
X81100000Y-126606250D02*
X81100000Y-126093750D01*
G75*
G02*
X81318750Y-125875000I218750J0D01*
G01*
X81756250Y-125875000D01*
G75*
G02*
X81975000Y-126093750I0J-218750D01*
G01*
X81975000Y-126606250D01*
G75*
G02*
X81756250Y-126825000I-218750J0D01*
G01*
X81318750Y-126825000D01*
G75*
G02*
X81100000Y-126606250I0J218750D01*
G01*
G37*
G04 #@! TD*
G04 #@! TO.C,REF\u002A\u002A*
X126035000Y-93015000D03*
G04 #@! TD*
G04 #@! TO.C,REF\u002A\u002A*
X117145000Y-95555000D03*
G04 #@! TD*
G04 #@! TO.C,REF\u002A\u002A*
X109525000Y-86665000D03*
G04 #@! TD*
G04 #@! TO.C,REF\u002A\u002A*
X108255000Y-101905000D03*
G04 #@! TD*
G04 #@! TO.C,REF\u002A\u002A*
X105715000Y-101905000D03*
G04 #@! TD*
G04 #@! TO.C,TP16*
G36*
G01*
X66218000Y-132131000D02*
X66218000Y-131369000D01*
G75*
G02*
X66599000Y-130988000I381000J0D01*
G01*
X67361000Y-130988000D01*
G75*
G02*
X67742000Y-131369000I0J-381000D01*
G01*
X67742000Y-132131000D01*
G75*
G02*
X67361000Y-132512000I-381000J0D01*
G01*
X66599000Y-132512000D01*
G75*
G02*
X66218000Y-132131000I0J381000D01*
G01*
G37*
G04 #@! TD*
G04 #@! TO.C,REF\u002A\u002A*
X105715000Y-95555000D03*
G04 #@! TD*
G04 #@! TO.C,REF\u002A\u002A*
X127305000Y-90475000D03*
G04 #@! TD*
G04 #@! TO.C,REF\u002A\u002A*
X112065000Y-87935000D03*
G04 #@! TD*
G04 #@! TO.C,REF\u002A\u002A*
X101905000Y-80315000D03*
G04 #@! TD*
G04 #@! TO.C,REF\u002A\u002A*
X98095000Y-95555000D03*
G04 #@! TD*
G04 #@! TO.C,REF\u002A\u002A*
X115875000Y-103175000D03*
G04 #@! TD*
D18*
G04 #@! TO.C,U7*
X67350000Y-120220000D03*
X67350000Y-119270000D03*
X67350000Y-118320000D03*
X65150000Y-118320000D03*
X65150000Y-120220000D03*
G04 #@! TD*
D11*
G04 #@! TO.C,REF\u002A\u002A*
X100635000Y-94285000D03*
G04 #@! TD*
G04 #@! TO.C,REF\u002A\u002A*
X132385000Y-91745000D03*
G04 #@! TD*
G04 #@! TO.C,REF\u002A\u002A*
X114605000Y-86665000D03*
G04 #@! TD*
G04 #@! TO.C,REF\u002A\u002A*
X99365000Y-96825000D03*
G04 #@! TD*
G04 #@! TO.C,REF\u002A\u002A*
X129845000Y-94285000D03*
G04 #@! TD*
G04 #@! TO.C,TP11*
G36*
G01*
X86538000Y-132131000D02*
X86538000Y-131369000D01*
G75*
G02*
X86919000Y-130988000I381000J0D01*
G01*
X87681000Y-130988000D01*
G75*
G02*
X88062000Y-131369000I0J-381000D01*
G01*
X88062000Y-132131000D01*
G75*
G02*
X87681000Y-132512000I-381000J0D01*
G01*
X86919000Y-132512000D01*
G75*
G02*
X86538000Y-132131000I0J381000D01*
G01*
G37*
G04 #@! TD*
G04 #@! TO.C,REF\u002A\u002A*
X127305000Y-89205000D03*
G04 #@! TD*
G04 #@! TO.C,REF\u002A\u002A*
X126035000Y-94285000D03*
G04 #@! TD*
G04 #@! TO.C,REF\u002A\u002A*
X118415000Y-99365000D03*
G04 #@! TD*
G04 #@! TO.C,REF\u002A\u002A*
X110795000Y-76505000D03*
G04 #@! TD*
G04 #@! TO.C,TP14*
G36*
G01*
X68758000Y-132131000D02*
X68758000Y-131369000D01*
G75*
G02*
X69139000Y-130988000I381000J0D01*
G01*
X69901000Y-130988000D01*
G75*
G02*
X70282000Y-131369000I0J-381000D01*
G01*
X70282000Y-132131000D01*
G75*
G02*
X69901000Y-132512000I-381000J0D01*
G01*
X69139000Y-132512000D01*
G75*
G02*
X68758000Y-132131000I0J381000D01*
G01*
G37*
G04 #@! TD*
G04 #@! TO.C,REF\u002A\u002A*
X100635000Y-93015000D03*
G04 #@! TD*
G04 #@! TO.C,REF\u002A\u002A*
X126035000Y-95555000D03*
G04 #@! TD*
G04 #@! TO.C,REF\u002A\u002A*
X122225000Y-96825000D03*
G04 #@! TD*
G04 #@! TO.C,REF\u002A\u002A*
X113335000Y-101905000D03*
G04 #@! TD*
G04 #@! TO.C,R10*
G36*
G01*
X91321857Y-109445750D02*
X91684250Y-109808143D01*
G75*
G02*
X91684250Y-110117503I-154680J-154680D01*
G01*
X91374891Y-110426862D01*
G75*
G02*
X91065531Y-110426862I-154680J154680D01*
G01*
X90703138Y-110064469D01*
G75*
G02*
X90703138Y-109755109I154680J154680D01*
G01*
X91012497Y-109445750D01*
G75*
G02*
X91321857Y-109445750I154680J-154680D01*
G01*
G37*
G36*
G01*
X90208163Y-110559444D02*
X90570556Y-110921837D01*
G75*
G02*
X90570556Y-111231197I-154680J-154680D01*
G01*
X90261197Y-111540556D01*
G75*
G02*
X89951837Y-111540556I-154680J154680D01*
G01*
X89589444Y-111178163D01*
G75*
G02*
X89589444Y-110868803I154680J154680D01*
G01*
X89898803Y-110559444D01*
G75*
G02*
X90208163Y-110559444I154680J-154680D01*
G01*
G37*
G04 #@! TD*
G04 #@! TO.C,REF\u002A\u002A*
X131115000Y-89205000D03*
G04 #@! TD*
G04 #@! TO.C,REF\u002A\u002A*
X120955000Y-82855000D03*
G04 #@! TD*
G04 #@! TO.C,REF\u002A\u002A*
X98095000Y-82855000D03*
G04 #@! TD*
G04 #@! TO.C,REF\u002A\u002A*
X101905000Y-79045000D03*
G04 #@! TD*
G04 #@! TO.C,REF\u002A\u002A*
X113335000Y-98095000D03*
G04 #@! TD*
G04 #@! TO.C,REF\u002A\u002A*
X131115000Y-91745000D03*
G04 #@! TD*
G04 #@! TO.C,REF\u002A\u002A*
X109525000Y-95555000D03*
G04 #@! TD*
G04 #@! TO.C,REF\u002A\u002A*
X105715000Y-96825000D03*
G04 #@! TD*
G04 #@! TO.C,REF\u002A\u002A*
X119685000Y-80315000D03*
G04 #@! TD*
G04 #@! TO.C,REF\u002A\u002A*
X103175000Y-75235000D03*
G04 #@! TD*
G04 #@! TO.C,REF\u002A\u002A*
X137465000Y-89205000D03*
G04 #@! TD*
G04 #@! TO.C,REF\u002A\u002A*
X127305000Y-94285000D03*
G04 #@! TD*
G04 #@! TO.C,R11*
G36*
G01*
X81985000Y-129543750D02*
X81985000Y-130056250D01*
G75*
G02*
X81766250Y-130275000I-218750J0D01*
G01*
X81328750Y-130275000D01*
G75*
G02*
X81110000Y-130056250I0J218750D01*
G01*
X81110000Y-129543750D01*
G75*
G02*
X81328750Y-129325000I218750J0D01*
G01*
X81766250Y-129325000D01*
G75*
G02*
X81985000Y-129543750I0J-218750D01*
G01*
G37*
G36*
G01*
X80410000Y-129543750D02*
X80410000Y-130056250D01*
G75*
G02*
X80191250Y-130275000I-218750J0D01*
G01*
X79753750Y-130275000D01*
G75*
G02*
X79535000Y-130056250I0J218750D01*
G01*
X79535000Y-129543750D01*
G75*
G02*
X79753750Y-129325000I218750J0D01*
G01*
X80191250Y-129325000D01*
G75*
G02*
X80410000Y-129543750I0J-218750D01*
G01*
G37*
G04 #@! TD*
G04 #@! TO.C,REF\u002A\u002A*
X103175000Y-76505000D03*
G04 #@! TD*
G04 #@! TO.C,TP4*
G36*
G01*
X86538000Y-124511000D02*
X86538000Y-123749000D01*
G75*
G02*
X86919000Y-123368000I381000J0D01*
G01*
X87681000Y-123368000D01*
G75*
G02*
X88062000Y-123749000I0J-381000D01*
G01*
X88062000Y-124511000D01*
G75*
G02*
X87681000Y-124892000I-381000J0D01*
G01*
X86919000Y-124892000D01*
G75*
G02*
X86538000Y-124511000I0J381000D01*
G01*
G37*
G04 #@! TD*
G04 #@! TO.C,REF\u002A\u002A*
X103175000Y-93015000D03*
G04 #@! TD*
G04 #@! TO.C,REF\u002A\u002A*
X115875000Y-95555000D03*
G04 #@! TD*
G04 #@! TO.C,REF\u002A\u002A*
X110795000Y-82855000D03*
G04 #@! TD*
G04 #@! TO.C,REF\u002A\u002A*
X98095000Y-85395000D03*
G04 #@! TD*
G04 #@! TO.C,REF\u002A\u002A*
X100635000Y-100635000D03*
G04 #@! TD*
G04 #@! TO.C,REF\u002A\u002A*
X132385000Y-93015000D03*
G04 #@! TD*
G04 #@! TO.C,REF\u002A\u002A*
X114605000Y-99365000D03*
G04 #@! TD*
G04 #@! TO.C,REF\u002A\u002A*
X115875000Y-101905000D03*
G04 #@! TD*
G04 #@! TO.C,REF\u002A\u002A*
X100635000Y-79045000D03*
G04 #@! TD*
G04 #@! TO.C,REF\u002A\u002A*
X119685000Y-98095000D03*
G04 #@! TD*
G04 #@! TO.C,C9*
G36*
G01*
X64175000Y-128333750D02*
X64175000Y-128846250D01*
G75*
G02*
X63956250Y-129065000I-218750J0D01*
G01*
X63518750Y-129065000D01*
G75*
G02*
X63300000Y-128846250I0J218750D01*
G01*
X63300000Y-128333750D01*
G75*
G02*
X63518750Y-128115000I218750J0D01*
G01*
X63956250Y-128115000D01*
G75*
G02*
X64175000Y-128333750I0J-218750D01*
G01*
G37*
G36*
G01*
X62600000Y-128333750D02*
X62600000Y-128846250D01*
G75*
G02*
X62381250Y-129065000I-218750J0D01*
G01*
X61943750Y-129065000D01*
G75*
G02*
X61725000Y-128846250I0J218750D01*
G01*
X61725000Y-128333750D01*
G75*
G02*
X61943750Y-128115000I218750J0D01*
G01*
X62381250Y-128115000D01*
G75*
G02*
X62600000Y-128333750I0J-218750D01*
G01*
G37*
G04 #@! TD*
G04 #@! TO.C,REF\u002A\u002A*
X105715000Y-75235000D03*
G04 #@! TD*
G04 #@! TO.C,REF\u002A\u002A*
X114605000Y-95555000D03*
G04 #@! TD*
G04 #@! TO.C,REF\u002A\u002A*
X114605000Y-77775000D03*
G04 #@! TD*
G04 #@! TO.C,REF\u002A\u002A*
X103175000Y-81585000D03*
G04 #@! TD*
G04 #@! TO.C,REF\u002A\u002A*
X115875000Y-87935000D03*
G04 #@! TD*
G04 #@! TO.C,REF\u002A\u002A*
X117145000Y-96825000D03*
G04 #@! TD*
G04 #@! TO.C,REF\u002A\u002A*
X133655000Y-90475000D03*
G04 #@! TD*
G04 #@! TO.C,REF\u002A\u002A*
X112065000Y-85395000D03*
G04 #@! TD*
G04 #@! TO.C,REF\u002A\u002A*
X122225000Y-89205000D03*
G04 #@! TD*
G04 #@! TO.C,REF\u002A\u002A*
X106985000Y-100635000D03*
G04 #@! TD*
G04 #@! TO.C,REF\u002A\u002A*
X118415000Y-100635000D03*
G04 #@! TD*
G04 #@! TO.C,REF\u002A\u002A*
X109525000Y-77775000D03*
G04 #@! TD*
G04 #@! TO.C,REF\u002A\u002A*
X105715000Y-76505000D03*
G04 #@! TD*
G04 #@! TO.C,REF\u002A\u002A*
X134925000Y-93015000D03*
G04 #@! TD*
G04 #@! TO.C,REF\u002A\u002A*
X118415000Y-82855000D03*
G04 #@! TD*
G04 #@! TO.C,REF\u002A\u002A*
X104445000Y-75235000D03*
G04 #@! TD*
G04 #@! TO.C,REF\u002A\u002A*
X100635000Y-77775000D03*
G04 #@! TD*
G04 #@! TO.C,REF\u002A\u002A*
X103175000Y-86665000D03*
G04 #@! TD*
G04 #@! TO.C,REF\u002A\u002A*
X104445000Y-73965000D03*
G04 #@! TD*
G04 #@! TO.C,REF\u002A\u002A*
X131115000Y-87935000D03*
G04 #@! TD*
G04 #@! TO.C,R12*
G36*
G01*
X61409990Y-109398740D02*
X61409990Y-108886240D01*
G75*
G02*
X61628740Y-108667490I218750J0D01*
G01*
X62066240Y-108667490D01*
G75*
G02*
X62284990Y-108886240I0J-218750D01*
G01*
X62284990Y-109398740D01*
G75*
G02*
X62066240Y-109617490I-218750J0D01*
G01*
X61628740Y-109617490D01*
G75*
G02*
X61409990Y-109398740I0J218750D01*
G01*
G37*
G36*
G01*
X62984990Y-109398740D02*
X62984990Y-108886240D01*
G75*
G02*
X63203740Y-108667490I218750J0D01*
G01*
X63641240Y-108667490D01*
G75*
G02*
X63859990Y-108886240I0J-218750D01*
G01*
X63859990Y-109398740D01*
G75*
G02*
X63641240Y-109617490I-218750J0D01*
G01*
X63203740Y-109617490D01*
G75*
G02*
X62984990Y-109398740I0J218750D01*
G01*
G37*
G04 #@! TD*
G04 #@! TO.C,REF\u002A\u002A*
X115875000Y-77775000D03*
G04 #@! TD*
G04 #@! TO.C,REF\u002A\u002A*
X106985000Y-76505000D03*
G04 #@! TD*
G04 #@! TO.C,REF\u002A\u002A*
X115875000Y-99365000D03*
G04 #@! TD*
G04 #@! TO.C,REF\u002A\u002A*
X100635000Y-89205000D03*
G04 #@! TD*
G04 #@! TO.C,REF\u002A\u002A*
X117145000Y-85395000D03*
G04 #@! TD*
G04 #@! TO.C,R6*
G36*
G01*
X74425000Y-137293750D02*
X74425000Y-137806250D01*
G75*
G02*
X74206250Y-138025000I-218750J0D01*
G01*
X73768750Y-138025000D01*
G75*
G02*
X73550000Y-137806250I0J218750D01*
G01*
X73550000Y-137293750D01*
G75*
G02*
X73768750Y-137075000I218750J0D01*
G01*
X74206250Y-137075000D01*
G75*
G02*
X74425000Y-137293750I0J-218750D01*
G01*
G37*
G36*
G01*
X72850000Y-137293750D02*
X72850000Y-137806250D01*
G75*
G02*
X72631250Y-138025000I-218750J0D01*
G01*
X72193750Y-138025000D01*
G75*
G02*
X71975000Y-137806250I0J218750D01*
G01*
X71975000Y-137293750D01*
G75*
G02*
X72193750Y-137075000I218750J0D01*
G01*
X72631250Y-137075000D01*
G75*
G02*
X72850000Y-137293750I0J-218750D01*
G01*
G37*
G04 #@! TD*
G04 #@! TO.C,REF\u002A\u002A*
X118415000Y-96825000D03*
G04 #@! TD*
G04 #@! TO.C,C12*
G36*
G01*
X68893750Y-118045000D02*
X69406250Y-118045000D01*
G75*
G02*
X69625000Y-118263750I0J-218750D01*
G01*
X69625000Y-118701250D01*
G75*
G02*
X69406250Y-118920000I-218750J0D01*
G01*
X68893750Y-118920000D01*
G75*
G02*
X68675000Y-118701250I0J218750D01*
G01*
X68675000Y-118263750D01*
G75*
G02*
X68893750Y-118045000I218750J0D01*
G01*
G37*
G36*
G01*
X68893750Y-119620000D02*
X69406250Y-119620000D01*
G75*
G02*
X69625000Y-119838750I0J-218750D01*
G01*
X69625000Y-120276250D01*
G75*
G02*
X69406250Y-120495000I-218750J0D01*
G01*
X68893750Y-120495000D01*
G75*
G02*
X68675000Y-120276250I0J218750D01*
G01*
X68675000Y-119838750D01*
G75*
G02*
X68893750Y-119620000I218750J0D01*
G01*
G37*
G04 #@! TD*
G04 #@! TO.C,C3*
G36*
G01*
X99835000Y-116143750D02*
X99835000Y-116656250D01*
G75*
G02*
X99616250Y-116875000I-218750J0D01*
G01*
X99178750Y-116875000D01*
G75*
G02*
X98960000Y-116656250I0J218750D01*
G01*
X98960000Y-116143750D01*
G75*
G02*
X99178750Y-115925000I218750J0D01*
G01*
X99616250Y-115925000D01*
G75*
G02*
X99835000Y-116143750I0J-218750D01*
G01*
G37*
G36*
G01*
X98260000Y-116143750D02*
X98260000Y-116656250D01*
G75*
G02*
X98041250Y-116875000I-218750J0D01*
G01*
X97603750Y-116875000D01*
G75*
G02*
X97385000Y-116656250I0J218750D01*
G01*
X97385000Y-116143750D01*
G75*
G02*
X97603750Y-115925000I218750J0D01*
G01*
X98041250Y-115925000D01*
G75*
G02*
X98260000Y-116143750I0J-218750D01*
G01*
G37*
G04 #@! TD*
G04 #@! TO.C,R5*
G36*
G01*
X67175000Y-137756250D02*
X67175000Y-137243750D01*
G75*
G02*
X67393750Y-137025000I218750J0D01*
G01*
X67831250Y-137025000D01*
G75*
G02*
X68050000Y-137243750I0J-218750D01*
G01*
X68050000Y-137756250D01*
G75*
G02*
X67831250Y-137975000I-218750J0D01*
G01*
X67393750Y-137975000D01*
G75*
G02*
X67175000Y-137756250I0J218750D01*
G01*
G37*
G36*
G01*
X68750000Y-137756250D02*
X68750000Y-137243750D01*
G75*
G02*
X68968750Y-137025000I218750J0D01*
G01*
X69406250Y-137025000D01*
G75*
G02*
X69625000Y-137243750I0J-218750D01*
G01*
X69625000Y-137756250D01*
G75*
G02*
X69406250Y-137975000I-218750J0D01*
G01*
X68968750Y-137975000D01*
G75*
G02*
X68750000Y-137756250I0J218750D01*
G01*
G37*
G04 #@! TD*
G04 #@! TO.C,REF\u002A\u002A*
X100635000Y-85395000D03*
G04 #@! TD*
G04 #@! TO.C,REF\u002A\u002A*
X114605000Y-101905000D03*
G04 #@! TD*
G04 #@! TO.C,REF\u002A\u002A*
X136195000Y-91745000D03*
G04 #@! TD*
G04 #@! TO.C,TP6*
G36*
G01*
X76378000Y-111811000D02*
X76378000Y-111049000D01*
G75*
G02*
X76759000Y-110668000I381000J0D01*
G01*
X77521000Y-110668000D01*
G75*
G02*
X77902000Y-111049000I0J-381000D01*
G01*
X77902000Y-111811000D01*
G75*
G02*
X77521000Y-112192000I-381000J0D01*
G01*
X76759000Y-112192000D01*
G75*
G02*
X76378000Y-111811000I0J381000D01*
G01*
G37*
G04 #@! TD*
G04 #@! TO.C,REF\u002A\u002A*
X115875000Y-86665000D03*
G04 #@! TD*
G04 #@! TO.C,C1*
G36*
G01*
X81633750Y-100265000D02*
X82146250Y-100265000D01*
G75*
G02*
X82365000Y-100483750I0J-218750D01*
G01*
X82365000Y-100921250D01*
G75*
G02*
X82146250Y-101140000I-218750J0D01*
G01*
X81633750Y-101140000D01*
G75*
G02*
X81415000Y-100921250I0J218750D01*
G01*
X81415000Y-100483750D01*
G75*
G02*
X81633750Y-100265000I218750J0D01*
G01*
G37*
G36*
G01*
X81633750Y-101840000D02*
X82146250Y-101840000D01*
G75*
G02*
X82365000Y-102058750I0J-218750D01*
G01*
X82365000Y-102496250D01*
G75*
G02*
X82146250Y-102715000I-218750J0D01*
G01*
X81633750Y-102715000D01*
G75*
G02*
X81415000Y-102496250I0J218750D01*
G01*
X81415000Y-102058750D01*
G75*
G02*
X81633750Y-101840000I218750J0D01*
G01*
G37*
G04 #@! TD*
G04 #@! TO.C,REF\u002A\u002A*
X133655000Y-93015000D03*
G04 #@! TD*
G04 #@! TO.C,REF\u002A\u002A*
X98095000Y-94285000D03*
G04 #@! TD*
G04 #@! TO.C,REF\u002A\u002A*
X131115000Y-93015000D03*
G04 #@! TD*
G04 #@! TO.C,REF\u002A\u002A*
X119685000Y-84125000D03*
G04 #@! TD*
G04 #@! TO.C,R16*
G36*
G01*
X61425000Y-118626250D02*
X61425000Y-118113750D01*
G75*
G02*
X61643750Y-117895000I218750J0D01*
G01*
X62081250Y-117895000D01*
G75*
G02*
X62300000Y-118113750I0J-218750D01*
G01*
X62300000Y-118626250D01*
G75*
G02*
X62081250Y-118845000I-218750J0D01*
G01*
X61643750Y-118845000D01*
G75*
G02*
X61425000Y-118626250I0J218750D01*
G01*
G37*
G36*
G01*
X63000000Y-118626250D02*
X63000000Y-118113750D01*
G75*
G02*
X63218750Y-117895000I218750J0D01*
G01*
X63656250Y-117895000D01*
G75*
G02*
X63875000Y-118113750I0J-218750D01*
G01*
X63875000Y-118626250D01*
G75*
G02*
X63656250Y-118845000I-218750J0D01*
G01*
X63218750Y-118845000D01*
G75*
G02*
X63000000Y-118626250I0J218750D01*
G01*
G37*
G04 #@! TD*
G04 #@! TO.C,REF\u002A\u002A*
X108255000Y-98095000D03*
G04 #@! TD*
G04 #@! TO.C,REF\u002A\u002A*
X115875000Y-84125000D03*
G04 #@! TD*
G04 #@! TO.C,REF\u002A\u002A*
X103175000Y-77775000D03*
G04 #@! TD*
G04 #@! TO.C,REF\u002A\u002A*
X103175000Y-79045000D03*
G04 #@! TD*
G04 #@! TO.C,REF\u002A\u002A*
X120955000Y-94285000D03*
G04 #@! TD*
G04 #@! TO.C,REF\u002A\u002A*
X124765000Y-95555000D03*
G04 #@! TD*
G04 #@! TO.C,REF\u002A\u002A*
X103175000Y-100635000D03*
G04 #@! TD*
G04 #@! TO.C,SW5*
G36*
X84163604Y-117816295D02*
G01*
X84870711Y-118523402D01*
X83668630Y-119725483D01*
X82961523Y-119018376D01*
X84163604Y-117816295D01*
G37*
G36*
X88618376Y-113361523D02*
G01*
X89325483Y-114068630D01*
X88123402Y-115270711D01*
X87416295Y-114563604D01*
X88618376Y-113361523D01*
G37*
G36*
X85931370Y-110674517D02*
G01*
X86638477Y-111381624D01*
X85436396Y-112583705D01*
X84729289Y-111876598D01*
X85931370Y-110674517D01*
G37*
G36*
X81476598Y-115129289D02*
G01*
X82183705Y-115836396D01*
X80981624Y-117038477D01*
X80274517Y-116331370D01*
X81476598Y-115129289D01*
G37*
G04 #@! TD*
G04 #@! TO.C,R2*
G36*
G01*
X84753750Y-100245000D02*
X85266250Y-100245000D01*
G75*
G02*
X85485000Y-100463750I0J-218750D01*
G01*
X85485000Y-100901250D01*
G75*
G02*
X85266250Y-101120000I-218750J0D01*
G01*
X84753750Y-101120000D01*
G75*
G02*
X84535000Y-100901250I0J218750D01*
G01*
X84535000Y-100463750D01*
G75*
G02*
X84753750Y-100245000I218750J0D01*
G01*
G37*
G36*
G01*
X84753750Y-101820000D02*
X85266250Y-101820000D01*
G75*
G02*
X85485000Y-102038750I0J-218750D01*
G01*
X85485000Y-102476250D01*
G75*
G02*
X85266250Y-102695000I-218750J0D01*
G01*
X84753750Y-102695000D01*
G75*
G02*
X84535000Y-102476250I0J218750D01*
G01*
X84535000Y-102038750D01*
G75*
G02*
X84753750Y-101820000I218750J0D01*
G01*
G37*
G04 #@! TD*
G04 #@! TO.C,REF\u002A\u002A*
X119685000Y-95555000D03*
G04 #@! TD*
G04 #@! TO.C,REF\u002A\u002A*
X113335000Y-95555000D03*
G04 #@! TD*
G04 #@! TO.C,REF\u002A\u002A*
X117145000Y-76505000D03*
G04 #@! TD*
G04 #@! TO.C,REF\u002A\u002A*
X108255000Y-99365000D03*
G04 #@! TD*
G04 #@! TO.C,R13*
G36*
G01*
X64509990Y-109398740D02*
X64509990Y-108886240D01*
G75*
G02*
X64728740Y-108667490I218750J0D01*
G01*
X65166240Y-108667490D01*
G75*
G02*
X65384990Y-108886240I0J-218750D01*
G01*
X65384990Y-109398740D01*
G75*
G02*
X65166240Y-109617490I-218750J0D01*
G01*
X64728740Y-109617490D01*
G75*
G02*
X64509990Y-109398740I0J218750D01*
G01*
G37*
G36*
G01*
X66084990Y-109398740D02*
X66084990Y-108886240D01*
G75*
G02*
X66303740Y-108667490I218750J0D01*
G01*
X66741240Y-108667490D01*
G75*
G02*
X66959990Y-108886240I0J-218750D01*
G01*
X66959990Y-109398740D01*
G75*
G02*
X66741240Y-109617490I-218750J0D01*
G01*
X66303740Y-109617490D01*
G75*
G02*
X66084990Y-109398740I0J218750D01*
G01*
G37*
G04 #@! TD*
G04 #@! TO.C,REF\u002A\u002A*
X110795000Y-84125000D03*
G04 #@! TD*
G04 #@! TO.C,REF\u002A\u002A*
X101905000Y-85395000D03*
G04 #@! TD*
G04 #@! TO.C,REF\u002A\u002A*
X103175000Y-96825000D03*
G04 #@! TD*
G04 #@! TO.C,REF\u002A\u002A*
X104445000Y-101905000D03*
G04 #@! TD*
G04 #@! TO.C,REF\u002A\u002A*
X98095000Y-93015000D03*
G04 #@! TD*
G04 #@! TO.C,REF\u002A\u002A*
X110795000Y-91745000D03*
G04 #@! TD*
G04 #@! TO.C,REF\u002A\u002A*
X101905000Y-101905000D03*
G04 #@! TD*
G04 #@! TO.C,REF\u002A\u002A*
X140005000Y-89205000D03*
G04 #@! TD*
G04 #@! TO.C,REF\u002A\u002A*
X117145000Y-82855000D03*
G04 #@! TD*
G04 #@! TO.C,REF\u002A\u002A*
X106985000Y-98095000D03*
G04 #@! TD*
G04 #@! TO.C,REF\u002A\u002A*
X119685000Y-93015000D03*
G04 #@! TD*
G04 #@! TO.C,REF\u002A\u002A*
X112065000Y-103175000D03*
G04 #@! TD*
G04 #@! TO.C,REF\u002A\u002A*
X105715000Y-98095000D03*
G04 #@! TD*
G04 #@! TO.C,SW2*
G36*
X58210646Y-101682629D02*
G01*
X57637070Y-100863477D01*
X58456222Y-100289901D01*
X59029798Y-101109053D01*
X58210646Y-101682629D01*
G37*
G36*
X64763862Y-97094017D02*
G01*
X64190286Y-96274865D01*
X65009438Y-95701289D01*
X65583014Y-96520441D01*
X64763862Y-97094017D01*
G37*
G04 #@! TD*
G04 #@! TO.C,REF\u002A\u002A*
X100635000Y-96825000D03*
G04 #@! TD*
G04 #@! TO.C,REF\u002A\u002A*
X115875000Y-98095000D03*
G04 #@! TD*
G04 #@! TO.C,R9*
G36*
G01*
X90119775Y-108243668D02*
X90482168Y-108606061D01*
G75*
G02*
X90482168Y-108915421I-154680J-154680D01*
G01*
X90172809Y-109224780D01*
G75*
G02*
X89863449Y-109224780I-154680J154680D01*
G01*
X89501056Y-108862387D01*
G75*
G02*
X89501056Y-108553027I154680J154680D01*
G01*
X89810415Y-108243668D01*
G75*
G02*
X90119775Y-108243668I154680J-154680D01*
G01*
G37*
G36*
G01*
X89006081Y-109357362D02*
X89368474Y-109719755D01*
G75*
G02*
X89368474Y-110029115I-154680J-154680D01*
G01*
X89059115Y-110338474D01*
G75*
G02*
X88749755Y-110338474I-154680J154680D01*
G01*
X88387362Y-109976081D01*
G75*
G02*
X88387362Y-109666721I154680J154680D01*
G01*
X88696721Y-109357362D01*
G75*
G02*
X89006081Y-109357362I154680J-154680D01*
G01*
G37*
G04 #@! TD*
G04 #@! TO.C,REF\u002A\u002A*
X96825000Y-95555000D03*
G04 #@! TD*
G04 #@! TO.C,REF\u002A\u002A*
X117145000Y-93015000D03*
G04 #@! TD*
G04 #@! TO.C,REF\u002A\u002A*
X129845000Y-87935000D03*
G04 #@! TD*
G04 #@! TO.C,R15*
G36*
G01*
X65406250Y-116907500D02*
X64893750Y-116907500D01*
G75*
G02*
X64675000Y-116688750I0J218750D01*
G01*
X64675000Y-116251250D01*
G75*
G02*
X64893750Y-116032500I218750J0D01*
G01*
X65406250Y-116032500D01*
G75*
G02*
X65625000Y-116251250I0J-218750D01*
G01*
X65625000Y-116688750D01*
G75*
G02*
X65406250Y-116907500I-218750J0D01*
G01*
G37*
G36*
G01*
X65406250Y-115332500D02*
X64893750Y-115332500D01*
G75*
G02*
X64675000Y-115113750I0J218750D01*
G01*
X64675000Y-114676250D01*
G75*
G02*
X64893750Y-114457500I218750J0D01*
G01*
X65406250Y-114457500D01*
G75*
G02*
X65625000Y-114676250I0J-218750D01*
G01*
X65625000Y-115113750D01*
G75*
G02*
X65406250Y-115332500I-218750J0D01*
G01*
G37*
G04 #@! TD*
G04 #@! TO.C,REF\u002A\u002A*
X117145000Y-94285000D03*
G04 #@! TD*
G04 #@! TO.C,REF\u002A\u002A*
X100635000Y-95555000D03*
G04 #@! TD*
G04 #@! TO.C,REF\u002A\u002A*
X113335000Y-103175000D03*
G04 #@! TD*
G04 #@! TO.C,REF\u002A\u002A*
X122225000Y-95555000D03*
G04 #@! TD*
G04 #@! TO.C,R8*
G36*
G01*
X79085010Y-117052597D02*
X79447403Y-117414990D01*
G75*
G02*
X79447403Y-117724350I-154680J-154680D01*
G01*
X79138044Y-118033709D01*
G75*
G02*
X78828684Y-118033709I-154680J154680D01*
G01*
X78466291Y-117671316D01*
G75*
G02*
X78466291Y-117361956I154680J154680D01*
G01*
X78775650Y-117052597D01*
G75*
G02*
X79085010Y-117052597I154680J-154680D01*
G01*
G37*
G36*
G01*
X77971316Y-118166291D02*
X78333709Y-118528684D01*
G75*
G02*
X78333709Y-118838044I-154680J-154680D01*
G01*
X78024350Y-119147403D01*
G75*
G02*
X77714990Y-119147403I-154680J154680D01*
G01*
X77352597Y-118785010D01*
G75*
G02*
X77352597Y-118475650I154680J154680D01*
G01*
X77661956Y-118166291D01*
G75*
G02*
X77971316Y-118166291I154680J-154680D01*
G01*
G37*
G04 #@! TD*
G04 #@! TO.C,C8*
G36*
G01*
X70059990Y-108886240D02*
X70059990Y-109398740D01*
G75*
G02*
X69841240Y-109617490I-218750J0D01*
G01*
X69403740Y-109617490D01*
G75*
G02*
X69184990Y-109398740I0J218750D01*
G01*
X69184990Y-108886240D01*
G75*
G02*
X69403740Y-108667490I218750J0D01*
G01*
X69841240Y-108667490D01*
G75*
G02*
X70059990Y-108886240I0J-218750D01*
G01*
G37*
G36*
G01*
X68484990Y-108886240D02*
X68484990Y-109398740D01*
G75*
G02*
X68266240Y-109617490I-218750J0D01*
G01*
X67828740Y-109617490D01*
G75*
G02*
X67609990Y-109398740I0J218750D01*
G01*
X67609990Y-108886240D01*
G75*
G02*
X67828740Y-108667490I218750J0D01*
G01*
X68266240Y-108667490D01*
G75*
G02*
X68484990Y-108886240I0J-218750D01*
G01*
G37*
G04 #@! TD*
G04 #@! TO.C,REF\u002A\u002A*
X122225000Y-86665000D03*
G04 #@! TD*
G04 #@! TO.C,REF\u002A\u002A*
X108255000Y-103175000D03*
G04 #@! TD*
G04 #@! TO.C,REF\u002A\u002A*
X124765000Y-94285000D03*
G04 #@! TD*
G04 #@! TO.C,REF\u002A\u002A*
X131115000Y-90475000D03*
G04 #@! TD*
G04 #@! TO.C,REF\u002A\u002A*
X123495000Y-93015000D03*
G04 #@! TD*
G04 #@! TO.C,REF\u002A\u002A*
X110795000Y-95555000D03*
G04 #@! TD*
G04 #@! TO.C,REF\u002A\u002A*
X119685000Y-81585000D03*
G04 #@! TD*
G04 #@! TO.C,REF\u002A\u002A*
X103175000Y-94285000D03*
G04 #@! TD*
G04 #@! TO.C,REF\u002A\u002A*
X109525000Y-103175000D03*
G04 #@! TD*
G04 #@! TO.C,REF\u002A\u002A*
X114605000Y-87935000D03*
G04 #@! TD*
G04 #@! TO.C,REF\u002A\u002A*
X100635000Y-80315000D03*
G04 #@! TD*
G04 #@! TO.C,REF\u002A\u002A*
X138735000Y-89205000D03*
G04 #@! TD*
G04 #@! TO.C,REF\u002A\u002A*
X114605000Y-103175000D03*
G04 #@! TD*
G04 #@! TO.C,TP3*
G36*
G01*
X76378000Y-106731000D02*
X76378000Y-105969000D01*
G75*
G02*
X76759000Y-105588000I381000J0D01*
G01*
X77521000Y-105588000D01*
G75*
G02*
X77902000Y-105969000I0J-381000D01*
G01*
X77902000Y-106731000D01*
G75*
G02*
X77521000Y-107112000I-381000J0D01*
G01*
X76759000Y-107112000D01*
G75*
G02*
X76378000Y-106731000I0J381000D01*
G01*
G37*
G04 #@! TD*
G04 #@! TO.C,REF\u002A\u002A*
X117145000Y-103175000D03*
G04 #@! TD*
G04 #@! TO.C,REF\u002A\u002A*
X110795000Y-99365000D03*
G04 #@! TD*
G04 #@! TO.C,REF\u002A\u002A*
X110795000Y-86665000D03*
G04 #@! TD*
G04 #@! TO.C,REF\u002A\u002A*
X117145000Y-100635000D03*
G04 #@! TD*
G04 #@! TO.C,REF\u002A\u002A*
X105715000Y-99365000D03*
G04 #@! TD*
G04 #@! TO.C,REF\u002A\u002A*
X119685000Y-86665000D03*
G04 #@! TD*
G04 #@! TO.C,REF\u002A\u002A*
X119685000Y-89205000D03*
G04 #@! TD*
G04 #@! TO.C,REF\u002A\u002A*
X99365000Y-93015000D03*
G04 #@! TD*
D20*
G04 #@! TO.C,J1*
X67760000Y-143740000D03*
X73540000Y-143740000D03*
D21*
X67300000Y-142400000D03*
X68100000Y-142400000D03*
X69400000Y-142400000D03*
X70400000Y-142400000D03*
X70900000Y-142400000D03*
X71900000Y-142400000D03*
X73200000Y-142400000D03*
X74000000Y-142400000D03*
X73700000Y-142400000D03*
X72900000Y-142400000D03*
X72400000Y-142400000D03*
X71400000Y-142400000D03*
X69900000Y-142400000D03*
X68900000Y-142400000D03*
X68400000Y-142400000D03*
X67600000Y-142400000D03*
D22*
X66330000Y-143240000D03*
D23*
X66330000Y-147420000D03*
D22*
X74970000Y-143240000D03*
D23*
X74970000Y-147420000D03*
G04 #@! TD*
D11*
G04 #@! TO.C,REF\u002A\u002A*
X99365000Y-98095000D03*
G04 #@! TD*
G04 #@! TO.C,REF\u002A\u002A*
X98095000Y-86665000D03*
G04 #@! TD*
G04 #@! TO.C,REF\u002A\u002A*
X110795000Y-96825000D03*
G04 #@! TD*
G04 #@! TO.C,REF\u002A\u002A*
X115875000Y-79045000D03*
G04 #@! TD*
G04 #@! TO.C,REF\u002A\u002A*
X129845000Y-90475000D03*
G04 #@! TD*
G04 #@! TO.C,REF\u002A\u002A*
X95555000Y-95555000D03*
G04 #@! TD*
G04 #@! TO.C,REF\u002A\u002A*
X122225000Y-82855000D03*
G04 #@! TD*
G04 #@! TO.C,REF\u002A\u002A*
X96825000Y-96825000D03*
G04 #@! TD*
G04 #@! TO.C,REF\u002A\u002A*
X120955000Y-87935000D03*
G04 #@! TD*
G04 #@! TO.C,REF\u002A\u002A*
X126035000Y-89205000D03*
G04 #@! TD*
G04 #@! TO.C,REF\u002A\u002A*
X113335000Y-89205000D03*
G04 #@! TD*
G04 #@! TO.C,REF\u002A\u002A*
X120955000Y-98095000D03*
G04 #@! TD*
G04 #@! TO.C,REF\u002A\u002A*
X112065000Y-84125000D03*
G04 #@! TD*
G04 #@! TO.C,REF\u002A\u002A*
X101905000Y-86665000D03*
G04 #@! TD*
G04 #@! TO.C,REF\u002A\u002A*
X110795000Y-89205000D03*
G04 #@! TD*
G04 #@! TO.C,REF\u002A\u002A*
X98095000Y-96825000D03*
G04 #@! TD*
G04 #@! TO.C,REF\u002A\u002A*
X123495000Y-98095000D03*
G04 #@! TD*
G04 #@! TO.C,TP2*
G36*
G01*
X86538000Y-121971000D02*
X86538000Y-121209000D01*
G75*
G02*
X86919000Y-120828000I381000J0D01*
G01*
X87681000Y-120828000D01*
G75*
G02*
X88062000Y-121209000I0J-381000D01*
G01*
X88062000Y-121971000D01*
G75*
G02*
X87681000Y-122352000I-381000J0D01*
G01*
X86919000Y-122352000D01*
G75*
G02*
X86538000Y-121971000I0J381000D01*
G01*
G37*
G04 #@! TD*
G04 #@! TO.C,REF\u002A\u002A*
X114605000Y-79045000D03*
G04 #@! TD*
G04 #@! TO.C,REF\u002A\u002A*
X118415000Y-93015000D03*
G04 #@! TD*
G04 #@! TO.C,REF\u002A\u002A*
X110795000Y-77775000D03*
G04 #@! TD*
G04 #@! TO.C,REF\u002A\u002A*
X120955000Y-96825000D03*
G04 #@! TD*
G04 #@! TO.C,REF\u002A\u002A*
X119685000Y-79045000D03*
G04 #@! TD*
G04 #@! TO.C,REF\u002A\u002A*
X117145000Y-79045000D03*
G04 #@! TD*
G04 #@! TO.C,REF\u002A\u002A*
X99365000Y-81585000D03*
G04 #@! TD*
G04 #@! TO.C,REF\u002A\u002A*
X103175000Y-101905000D03*
G04 #@! TD*
G04 #@! TO.C,REF\u002A\u002A*
X100635000Y-87935000D03*
G04 #@! TD*
G04 #@! TO.C,REF\u002A\u002A*
X99365000Y-95555000D03*
G04 #@! TD*
G04 #@! TO.C,REF\u002A\u002A*
X99365000Y-91745000D03*
G04 #@! TD*
G04 #@! TO.C,SW4*
G36*
X103479559Y-134416986D02*
G01*
X104298711Y-134990562D01*
X103725135Y-135809714D01*
X102905983Y-135236138D01*
X103479559Y-134416986D01*
G37*
G36*
X98890947Y-140970202D02*
G01*
X99710099Y-141543778D01*
X99136523Y-142362930D01*
X98317371Y-141789354D01*
X98890947Y-140970202D01*
G37*
G04 #@! TD*
G04 #@! TO.C,REF\u002A\u002A*
X122225000Y-85395000D03*
G04 #@! TD*
G04 #@! TO.C,REF\u002A\u002A*
X105715000Y-103175000D03*
G04 #@! TD*
G04 #@! TO.C,REF\u002A\u002A*
X101905000Y-81585000D03*
G04 #@! TD*
G04 #@! TO.C,REF\u002A\u002A*
X110795000Y-79045000D03*
G04 #@! TD*
G04 #@! TO.C,REF\u002A\u002A*
X109525000Y-89205000D03*
G04 #@! TD*
G04 #@! TO.C,REF\u002A\u002A*
X103175000Y-95555000D03*
G04 #@! TD*
G04 #@! TO.C,REF\u002A\u002A*
X129845000Y-93015000D03*
G04 #@! TD*
G04 #@! TO.C,REF\u002A\u002A*
X113335000Y-96825000D03*
G04 #@! TD*
G04 #@! TO.C,D26*
G36*
G01*
X61683750Y-121475000D02*
X62196250Y-121475000D01*
G75*
G02*
X62415000Y-121693750I0J-218750D01*
G01*
X62415000Y-122131250D01*
G75*
G02*
X62196250Y-122350000I-218750J0D01*
G01*
X61683750Y-122350000D01*
G75*
G02*
X61465000Y-122131250I0J218750D01*
G01*
X61465000Y-121693750D01*
G75*
G02*
X61683750Y-121475000I218750J0D01*
G01*
G37*
G36*
G01*
X61683750Y-123050000D02*
X62196250Y-123050000D01*
G75*
G02*
X62415000Y-123268750I0J-218750D01*
G01*
X62415000Y-123706250D01*
G75*
G02*
X62196250Y-123925000I-218750J0D01*
G01*
X61683750Y-123925000D01*
G75*
G02*
X61465000Y-123706250I0J218750D01*
G01*
X61465000Y-123268750D01*
G75*
G02*
X61683750Y-123050000I218750J0D01*
G01*
G37*
G04 #@! TD*
G04 #@! TO.C,REF\u002A\u002A*
X112065000Y-96825000D03*
G04 #@! TD*
G04 #@! TO.C,REF\u002A\u002A*
X120955000Y-84125000D03*
G04 #@! TD*
G04 #@! TO.C,REF\u002A\u002A*
X117145000Y-89205000D03*
G04 #@! TD*
G04 #@! TO.C,REF\u002A\u002A*
X99365000Y-94285000D03*
G04 #@! TD*
G04 #@! TO.C,REF\u002A\u002A*
X110795000Y-103175000D03*
G04 #@! TD*
D14*
G04 #@! TO.C,U1*
X87600000Y-97000000D03*
D15*
X87500000Y-96600000D03*
X87500000Y-96200000D03*
X87500000Y-95800000D03*
X87500000Y-95400000D03*
X87500000Y-95000000D03*
X87500000Y-94600000D03*
X87500000Y-94200000D03*
X87500000Y-93800000D03*
X87500000Y-93400000D03*
D14*
X87600000Y-93000000D03*
D12*
X87000000Y-92400000D03*
D13*
X86600000Y-92500000D03*
X86200000Y-92500000D03*
X85800000Y-92500000D03*
X85400000Y-92500000D03*
X85000000Y-92500000D03*
X84600000Y-92500000D03*
X84200000Y-92500000D03*
X83800000Y-92500000D03*
X83400000Y-92500000D03*
D12*
X83000000Y-92400000D03*
D14*
X82400000Y-93000000D03*
D15*
X82500000Y-93400000D03*
X82500000Y-93800000D03*
X82500000Y-94200000D03*
X82500000Y-94600000D03*
X82500000Y-95000000D03*
X82500000Y-95400000D03*
X82500000Y-95800000D03*
X82500000Y-96200000D03*
X82500000Y-96600000D03*
D14*
X82400000Y-97000000D03*
D12*
X83000000Y-97600000D03*
D13*
X83400000Y-97500000D03*
X83800000Y-97500000D03*
X84200000Y-97500000D03*
X84600000Y-97500000D03*
X85000000Y-97500000D03*
X85400000Y-97500000D03*
X85800000Y-97500000D03*
X86200000Y-97500000D03*
X86600000Y-97500000D03*
D12*
X87000000Y-97600000D03*
D16*
X85500000Y-95500000D03*
X85500000Y-94500000D03*
X84500000Y-95500000D03*
X84500000Y-94500000D03*
G04 #@! TD*
D11*
G04 #@! TO.C,REF\u002A\u002A*
X108255000Y-75235000D03*
G04 #@! TD*
G04 #@! TO.C,REF\u002A\u002A*
X101905000Y-93015000D03*
G04 #@! TD*
G04 #@! TO.C,REF\u002A\u002A*
X132385000Y-87935000D03*
G04 #@! TD*
G04 #@! TO.C,SW3*
G36*
X110094329Y-126160804D02*
G01*
X110871475Y-126790124D01*
X110242155Y-127567270D01*
X109465009Y-126937950D01*
X110094329Y-126160804D01*
G37*
G36*
X105059765Y-132377972D02*
G01*
X105836911Y-133007292D01*
X105207591Y-133784438D01*
X104430445Y-133155118D01*
X105059765Y-132377972D01*
G37*
G04 #@! TD*
G04 #@! TO.C,REF\u002A\u002A*
X101905000Y-99365000D03*
G04 #@! TD*
G04 #@! TO.C,TP13*
G36*
G01*
X68758000Y-134671000D02*
X68758000Y-133909000D01*
G75*
G02*
X69139000Y-133528000I381000J0D01*
G01*
X69901000Y-133528000D01*
G75*
G02*
X70282000Y-133909000I0J-381000D01*
G01*
X70282000Y-134671000D01*
G75*
G02*
X69901000Y-135052000I-381000J0D01*
G01*
X69139000Y-135052000D01*
G75*
G02*
X68758000Y-134671000I0J381000D01*
G01*
G37*
G04 #@! TD*
G04 #@! TO.C,REF\u002A\u002A*
X104445000Y-76505000D03*
G04 #@! TD*
G04 #@! TO.C,REF\u002A\u002A*
X113335000Y-84125000D03*
G04 #@! TD*
G04 #@! TO.C,REF\u002A\u002A*
X104445000Y-100635000D03*
G04 #@! TD*
G04 #@! TO.C,REF\u002A\u002A*
X99365000Y-85395000D03*
G04 #@! TD*
G04 #@! TO.C,REF\u002A\u002A*
X100635000Y-99365000D03*
G04 #@! TD*
G04 #@! TO.C,REF\u002A\u002A*
X127305000Y-93015000D03*
G04 #@! TD*
G04 #@! TO.C,REF\u002A\u002A*
X136195000Y-93015000D03*
G04 #@! TD*
G04 #@! TO.C,REF\u002A\u002A*
X119685000Y-77775000D03*
G04 #@! TD*
G04 #@! TO.C,REF\u002A\u002A*
X108255000Y-76505000D03*
G04 #@! TD*
G04 #@! TO.C,TP17*
G36*
G01*
X73838000Y-111811000D02*
X73838000Y-111049000D01*
G75*
G02*
X74219000Y-110668000I381000J0D01*
G01*
X74981000Y-110668000D01*
G75*
G02*
X75362000Y-111049000I0J-381000D01*
G01*
X75362000Y-111811000D01*
G75*
G02*
X74981000Y-112192000I-381000J0D01*
G01*
X74219000Y-112192000D01*
G75*
G02*
X73838000Y-111811000I0J381000D01*
G01*
G37*
G04 #@! TD*
G04 #@! TO.C,REF\u002A\u002A*
X132385000Y-90475000D03*
G04 #@! TD*
G04 #@! TO.C,REF\u002A\u002A*
X118415000Y-95555000D03*
G04 #@! TD*
G04 #@! TO.C,X1*
G36*
G01*
X94740916Y-101751835D02*
X94740916Y-101751835D01*
G75*
G02*
X94740916Y-102973149I-610657J-610657D01*
G01*
X94740916Y-102973149D01*
G75*
G02*
X93519602Y-102973149I-610657J610657D01*
G01*
X93519602Y-102973149D01*
G75*
G02*
X93519602Y-101751835I610657J610657D01*
G01*
X93519602Y-101751835D01*
G75*
G02*
X94740916Y-101751835I610657J-610657D01*
G01*
G37*
G36*
X92334207Y-102937228D02*
G01*
X93555522Y-104158543D01*
X92334207Y-105379858D01*
X91112892Y-104158543D01*
X92334207Y-102937228D01*
G37*
G36*
G01*
X96536967Y-103547886D02*
X96536967Y-103547886D01*
G75*
G02*
X96536967Y-104769200I-610657J-610657D01*
G01*
X96536967Y-104769200D01*
G75*
G02*
X95315653Y-104769200I-610657J610657D01*
G01*
X95315653Y-104769200D01*
G75*
G02*
X95315653Y-103547886I610657J610657D01*
G01*
X95315653Y-103547886D01*
G75*
G02*
X96536967Y-103547886I610657J-610657D01*
G01*
G37*
G36*
G01*
X94740916Y-105343937D02*
X94740916Y-105343937D01*
G75*
G02*
X94740916Y-106565251I-610657J-610657D01*
G01*
X94740916Y-106565251D01*
G75*
G02*
X93519602Y-106565251I-610657J610657D01*
G01*
X93519602Y-106565251D01*
G75*
G02*
X93519602Y-105343937I610657J610657D01*
G01*
X93519602Y-105343937D01*
G75*
G02*
X94740916Y-105343937I610657J-610657D01*
G01*
G37*
D10*
X97722361Y-105954594D03*
X95926310Y-107750645D03*
G04 #@! TD*
M02*
