G04 #@! TF.GenerationSoftware,KiCad,Pcbnew,(5.99.0-3349-g91c4a681c)*
G04 #@! TF.CreationDate,2020-09-20T22:46:24+02:00*
G04 #@! TF.ProjectId,badge,62616467-652e-46b6-9963-61645f706362,0.1*
G04 #@! TF.SameCoordinates,Original*
G04 #@! TF.FileFunction,Legend,Bot*
G04 #@! TF.FilePolarity,Positive*
%FSLAX46Y46*%
G04 Gerber Fmt 4.6, Leading zero omitted, Abs format (unit mm)*
G04 Created by KiCad (PCBNEW (5.99.0-3349-g91c4a681c)) date 2020-09-20 22:46:24*
%MOMM*%
%LPD*%
G01*
G04 APERTURE LIST*
%ADD10C,0.350000*%
%ADD11C,0.200000*%
%ADD12C,0.250000*%
%ADD13C,0.150000*%
%ADD14C,0.120000*%
%ADD15C,1.727200*%
%ADD16C,0.650000*%
%ADD17O,0.900000X2.100000*%
%ADD18O,1.000000X1.800000*%
%ADD19R,1.016000X1.016000*%
%ADD20R,0.800000X3.000000*%
%ADD21R,0.900000X1.700000*%
G04 APERTURE END LIST*
D10*
X144412861Y-71345518D02*
X144547548Y-71345518D01*
X144749579Y-71412861D01*
X144884266Y-71547548D01*
X144951609Y-71749579D01*
X144951609Y-71884266D01*
X144884266Y-72086296D01*
X144749579Y-72220983D01*
X144547548Y-72288327D01*
X144412861Y-72288327D01*
X144210831Y-72220983D01*
X144076144Y-72086296D01*
X144008800Y-71884266D01*
X144008800Y-71749579D01*
X144547548Y-71210831D02*
X144008800Y-71749579D01*
X143874113Y-71749579D01*
X143806770Y-71682235D01*
X143739426Y-71480205D01*
X143806770Y-71278174D01*
X144143487Y-70941457D01*
X144480205Y-70874113D01*
X144816922Y-70941457D01*
X145153640Y-71143487D01*
X145355670Y-71480205D01*
X145423014Y-71816922D01*
X145355670Y-72153640D01*
X145153640Y-72490357D01*
X144816922Y-72692388D01*
X144480205Y-72759731D01*
X144143487Y-72692388D01*
X143806770Y-72490357D01*
X143604739Y-72153640D01*
X143537396Y-71816922D01*
X143941457Y-70335365D02*
X143402709Y-69796617D01*
X144210831Y-69661930D02*
X142998648Y-70874113D01*
X142796617Y-70941457D01*
X142594587Y-70874113D01*
X142459900Y-70739426D01*
X141988495Y-70268022D02*
X143402709Y-68853808D01*
X141382403Y-69661930D02*
X142123182Y-68921151D01*
X142325213Y-68853808D01*
X142527243Y-68921151D01*
X142729274Y-69123182D01*
X142796617Y-69325213D01*
X142796617Y-69459900D01*
X140506938Y-68786464D02*
X140708968Y-68853808D01*
X140843655Y-68853808D01*
X141045686Y-68786464D01*
X141449747Y-68382403D01*
X141517090Y-68180373D01*
X141517090Y-68045686D01*
X141449747Y-67843655D01*
X141247716Y-67641625D01*
X141045686Y-67574281D01*
X140910999Y-67574281D01*
X140708968Y-67641625D01*
X140304907Y-68045686D01*
X140237564Y-68247716D01*
X140237564Y-68382403D01*
X140304907Y-68584434D01*
X140506938Y-68786464D01*
X139429442Y-67708968D02*
X140372251Y-66766159D01*
X140237564Y-66900846D02*
X140237564Y-66766159D01*
X140170220Y-66564129D01*
X139968190Y-66362098D01*
X139766159Y-66294755D01*
X139564129Y-66362098D01*
X138823350Y-67102877D01*
X139564129Y-66362098D02*
X139631472Y-66160068D01*
X139564129Y-65958037D01*
X139362098Y-65756007D01*
X139160068Y-65688663D01*
X138958037Y-65756007D01*
X138217259Y-66496785D01*
X136937732Y-65217259D02*
X137678511Y-64476480D01*
X137880541Y-64409137D01*
X138082572Y-64476480D01*
X138351946Y-64745854D01*
X138419289Y-64947885D01*
X137005076Y-65149915D02*
X137072419Y-65351946D01*
X137409137Y-65688663D01*
X137611167Y-65756007D01*
X137813198Y-65688663D01*
X137947885Y-65553976D01*
X138015228Y-65351946D01*
X137947885Y-65149915D01*
X137611167Y-64813198D01*
X137543824Y-64611167D01*
X136398984Y-64543824D02*
X136196954Y-64476480D01*
X135927580Y-64207106D01*
X135860236Y-64005076D01*
X135927580Y-63803045D01*
X135994923Y-63735702D01*
X136196954Y-63668358D01*
X136398984Y-63735702D01*
X136601015Y-63937732D01*
X136803045Y-64005076D01*
X137005076Y-63937732D01*
X137072419Y-63870389D01*
X137139763Y-63668358D01*
X137072419Y-63466328D01*
X136870389Y-63264297D01*
X136668358Y-63196954D01*
X136264297Y-62658206D02*
X135725549Y-62119458D01*
X135119458Y-63398984D02*
X136331641Y-62186801D01*
X136398984Y-61984771D01*
X136331641Y-61782740D01*
X136196954Y-61648053D01*
X134109305Y-62388832D02*
X134311336Y-62456175D01*
X134513366Y-62388832D01*
X135725549Y-61176649D01*
X133907275Y-60301183D02*
X132964466Y-61243992D01*
X134513366Y-60907275D02*
X133772588Y-61648053D01*
X133570557Y-61715397D01*
X133368527Y-61648053D01*
X133166496Y-61446023D01*
X133099153Y-61243992D01*
X133099153Y-61109305D01*
X132291031Y-60570557D02*
X133233840Y-59627748D01*
X133099153Y-59762435D02*
X133099153Y-59627748D01*
X133031809Y-59425718D01*
X132829779Y-59223687D01*
X132627748Y-59156344D01*
X132425718Y-59223687D01*
X131684939Y-59964466D01*
X132425718Y-59223687D02*
X132493061Y-59021657D01*
X132425718Y-58819626D01*
X132223687Y-58617596D01*
X132021657Y-58550252D01*
X131819626Y-58617596D01*
X131078848Y-59358374D01*
X130405412Y-58684939D02*
X131348222Y-57742130D01*
X131213535Y-57876817D02*
X131213535Y-57742130D01*
X131146191Y-57540099D01*
X130944161Y-57338069D01*
X130742130Y-57270725D01*
X130540099Y-57338069D01*
X129799321Y-58078848D01*
X130540099Y-57338069D02*
X130607443Y-57136038D01*
X130540099Y-56934008D01*
X130338069Y-56731977D01*
X130136038Y-56664634D01*
X129934008Y-56731977D01*
X129193229Y-57472756D01*
X128048390Y-56193229D02*
X128115733Y-56395260D01*
X128385107Y-56664634D01*
X128587138Y-56731977D01*
X128789168Y-56664634D01*
X129327916Y-56125886D01*
X129395260Y-55923855D01*
X129327916Y-55721825D01*
X129058542Y-55452451D01*
X128856512Y-55385107D01*
X128654481Y-55452451D01*
X128519794Y-55587138D01*
X129058542Y-56395260D01*
X127307611Y-55587138D02*
X128250420Y-54644329D01*
X127981046Y-54913703D02*
X128048390Y-54711672D01*
X128048390Y-54576985D01*
X127981046Y-54374955D01*
X127846359Y-54240268D01*
D11*
X57378752Y-103424228D02*
X56616847Y-103424228D01*
X88241438Y-144383523D02*
X88193819Y-144240666D01*
X88193819Y-144002571D01*
X88241438Y-143907333D01*
X88289057Y-143859714D01*
X88384295Y-143812095D01*
X88479533Y-143812095D01*
X88574771Y-143859714D01*
X88622390Y-143907333D01*
X88670009Y-144002571D01*
X88717628Y-144193047D01*
X88765247Y-144288285D01*
X88812866Y-144335904D01*
X88908104Y-144383523D01*
X89003342Y-144383523D01*
X89098580Y-144335904D01*
X89146200Y-144288285D01*
X89193819Y-144193047D01*
X89193819Y-143954952D01*
X89146200Y-143812095D01*
X89193819Y-143478761D02*
X88193819Y-143240666D01*
X88908104Y-143050190D01*
X88193819Y-142859714D01*
X89193819Y-142621619D01*
X88193819Y-142240666D02*
X89193819Y-142240666D01*
X89193819Y-142002571D01*
X89146200Y-141859714D01*
X89050961Y-141764476D01*
X88955723Y-141716857D01*
X88765247Y-141669238D01*
X88622390Y-141669238D01*
X88431914Y-141716857D01*
X88336676Y-141764476D01*
X88241438Y-141859714D01*
X88193819Y-142002571D01*
X88193819Y-142240666D01*
X88289057Y-140669238D02*
X88241438Y-140716857D01*
X88193819Y-140859714D01*
X88193819Y-140954952D01*
X88241438Y-141097809D01*
X88336676Y-141193047D01*
X88431914Y-141240666D01*
X88622390Y-141288285D01*
X88765247Y-141288285D01*
X88955723Y-141240666D01*
X89050961Y-141193047D01*
X89146200Y-141097809D01*
X89193819Y-140954952D01*
X89193819Y-140859714D01*
X89146200Y-140716857D01*
X89098580Y-140669238D01*
X88193819Y-139764476D02*
X88193819Y-140240666D01*
X89193819Y-140240666D01*
X88193819Y-139431142D02*
X89193819Y-139431142D01*
X88193819Y-138859714D02*
X88765247Y-139288285D01*
X89193819Y-138859714D02*
X88622390Y-139431142D01*
X91990800Y-144599400D02*
X91990800Y-143599400D01*
X90708419Y-143789876D02*
X91184609Y-144123209D01*
X90708419Y-144361304D02*
X91708419Y-144361304D01*
X91708419Y-143980352D01*
X91660800Y-143885114D01*
X91613180Y-143837495D01*
X91517942Y-143789876D01*
X91375085Y-143789876D01*
X91279847Y-143837495D01*
X91232228Y-143885114D01*
X91184609Y-143980352D01*
X91184609Y-144361304D01*
X91990800Y-143599400D02*
X91990800Y-142694638D01*
X91232228Y-143361304D02*
X91232228Y-143027971D01*
X90708419Y-142885114D02*
X90708419Y-143361304D01*
X91708419Y-143361304D01*
X91708419Y-142885114D01*
X91990800Y-142694638D02*
X91990800Y-141742257D01*
X90756038Y-142504161D02*
X90708419Y-142361304D01*
X90708419Y-142123209D01*
X90756038Y-142027971D01*
X90803657Y-141980352D01*
X90898895Y-141932733D01*
X90994133Y-141932733D01*
X91089371Y-141980352D01*
X91136990Y-142027971D01*
X91184609Y-142123209D01*
X91232228Y-142313685D01*
X91279847Y-142408923D01*
X91327466Y-142456542D01*
X91422704Y-142504161D01*
X91517942Y-142504161D01*
X91613180Y-142456542D01*
X91660800Y-142408923D01*
X91708419Y-142313685D01*
X91708419Y-142075590D01*
X91660800Y-141932733D01*
X91990800Y-141742257D02*
X91990800Y-140837495D01*
X91232228Y-141504161D02*
X91232228Y-141170828D01*
X90708419Y-141027971D02*
X90708419Y-141504161D01*
X91708419Y-141504161D01*
X91708419Y-141027971D01*
X91990800Y-140837495D02*
X91990800Y-140075590D01*
X91708419Y-140742257D02*
X91708419Y-140170828D01*
X90708419Y-140456542D02*
X91708419Y-140456542D01*
X81548419Y-144478761D02*
X80548419Y-144145428D01*
X81548419Y-143812095D01*
X80643657Y-142907333D02*
X80596038Y-142954952D01*
X80548419Y-143097809D01*
X80548419Y-143193047D01*
X80596038Y-143335904D01*
X80691276Y-143431142D01*
X80786514Y-143478761D01*
X80976990Y-143526380D01*
X81119847Y-143526380D01*
X81310323Y-143478761D01*
X81405561Y-143431142D01*
X81500800Y-143335904D01*
X81548419Y-143193047D01*
X81548419Y-143097809D01*
X81500800Y-142954952D01*
X81453180Y-142907333D01*
X80643657Y-141907333D02*
X80596038Y-141954952D01*
X80548419Y-142097809D01*
X80548419Y-142193047D01*
X80596038Y-142335904D01*
X80691276Y-142431142D01*
X80786514Y-142478761D01*
X80976990Y-142526380D01*
X81119847Y-142526380D01*
X81310323Y-142478761D01*
X81405561Y-142431142D01*
X81500800Y-142335904D01*
X81548419Y-142193047D01*
X81548419Y-142097809D01*
X81500800Y-141954952D01*
X81453180Y-141907333D01*
X84088419Y-144478761D02*
X83088419Y-144145428D01*
X84088419Y-143812095D01*
X84088419Y-143478761D02*
X83278895Y-143478761D01*
X83183657Y-143431142D01*
X83136038Y-143383523D01*
X83088419Y-143288285D01*
X83088419Y-143097809D01*
X83136038Y-143002571D01*
X83183657Y-142954952D01*
X83278895Y-142907333D01*
X84088419Y-142907333D01*
X83136038Y-142478761D02*
X83088419Y-142335904D01*
X83088419Y-142097809D01*
X83136038Y-142002571D01*
X83183657Y-141954952D01*
X83278895Y-141907333D01*
X83374133Y-141907333D01*
X83469371Y-141954952D01*
X83516990Y-142002571D01*
X83564609Y-142097809D01*
X83612228Y-142288285D01*
X83659847Y-142383523D01*
X83707466Y-142431142D01*
X83802704Y-142478761D01*
X83897942Y-142478761D01*
X83993180Y-142431142D01*
X84040800Y-142383523D01*
X84088419Y-142288285D01*
X84088419Y-142050190D01*
X84040800Y-141907333D01*
X83612228Y-141145428D02*
X83564609Y-141002571D01*
X83516990Y-140954952D01*
X83421752Y-140907333D01*
X83278895Y-140907333D01*
X83183657Y-140954952D01*
X83136038Y-141002571D01*
X83088419Y-141097809D01*
X83088419Y-141478761D01*
X84088419Y-141478761D01*
X84088419Y-141145428D01*
X84040800Y-141050190D01*
X83993180Y-141002571D01*
X83897942Y-140954952D01*
X83802704Y-140954952D01*
X83707466Y-141002571D01*
X83659847Y-141050190D01*
X83612228Y-141145428D01*
X83612228Y-141478761D01*
X85701438Y-144383523D02*
X85653819Y-144240666D01*
X85653819Y-144002571D01*
X85701438Y-143907333D01*
X85749057Y-143859714D01*
X85844295Y-143812095D01*
X85939533Y-143812095D01*
X86034771Y-143859714D01*
X86082390Y-143907333D01*
X86130009Y-144002571D01*
X86177628Y-144193047D01*
X86225247Y-144288285D01*
X86272866Y-144335904D01*
X86368104Y-144383523D01*
X86463342Y-144383523D01*
X86558580Y-144335904D01*
X86606200Y-144288285D01*
X86653819Y-144193047D01*
X86653819Y-143954952D01*
X86606200Y-143812095D01*
X86653819Y-143478761D02*
X85653819Y-143240666D01*
X86368104Y-143050190D01*
X85653819Y-142859714D01*
X86653819Y-142621619D01*
X85653819Y-142240666D02*
X86653819Y-142240666D01*
X86653819Y-142002571D01*
X86606200Y-141859714D01*
X86510961Y-141764476D01*
X86415723Y-141716857D01*
X86225247Y-141669238D01*
X86082390Y-141669238D01*
X85891914Y-141716857D01*
X85796676Y-141764476D01*
X85701438Y-141859714D01*
X85653819Y-142002571D01*
X85653819Y-142240666D01*
X85653819Y-141240666D02*
X86653819Y-141240666D01*
X86653819Y-140574000D02*
X86653819Y-140383523D01*
X86606200Y-140288285D01*
X86510961Y-140193047D01*
X86320485Y-140145428D01*
X85987152Y-140145428D01*
X85796676Y-140193047D01*
X85701438Y-140288285D01*
X85653819Y-140383523D01*
X85653819Y-140574000D01*
X85701438Y-140669238D01*
X85796676Y-140764476D01*
X85987152Y-140812095D01*
X86320485Y-140812095D01*
X86510961Y-140764476D01*
X86606200Y-140669238D01*
X86653819Y-140574000D01*
D12*
X136330289Y-76276414D02*
X136438038Y-76276414D01*
X136599663Y-76330289D01*
X136707412Y-76438038D01*
X136761287Y-76599663D01*
X136761287Y-76707412D01*
X136707412Y-76869037D01*
X136599663Y-76976786D01*
X136438038Y-77030661D01*
X136330289Y-77030661D01*
X136168664Y-76976786D01*
X136060915Y-76869037D01*
X136007040Y-76707412D01*
X136007040Y-76599663D01*
X136438038Y-76168664D02*
X136007040Y-76599663D01*
X135899290Y-76599663D01*
X135845416Y-76545788D01*
X135791541Y-76384164D01*
X135845416Y-76222539D01*
X136114790Y-75953165D01*
X136384164Y-75899290D01*
X136653538Y-75953165D01*
X136922912Y-76114790D01*
X137084536Y-76384164D01*
X137138411Y-76653538D01*
X137084536Y-76922912D01*
X136922912Y-77192286D01*
X136653538Y-77353910D01*
X136384164Y-77407785D01*
X136114790Y-77353910D01*
X135845416Y-77192286D01*
X135683791Y-76922912D01*
X135629916Y-76653538D01*
X135953165Y-75468292D02*
X135522167Y-75037294D01*
X136168664Y-74929544D02*
X135198918Y-75899290D01*
X135037294Y-75953165D01*
X134875669Y-75899290D01*
X134767920Y-75791541D01*
X134390796Y-75414417D02*
X135522167Y-74283046D01*
X133905923Y-74929544D02*
X134498545Y-74336921D01*
X134660170Y-74283046D01*
X134821794Y-74336921D01*
X134983419Y-74498545D01*
X135037294Y-74660170D01*
X135037294Y-74767920D01*
X133205550Y-74229171D02*
X133367175Y-74283046D01*
X133474924Y-74283046D01*
X133636549Y-74229171D01*
X133959797Y-73905923D01*
X134013672Y-73744298D01*
X134013672Y-73636549D01*
X133959797Y-73474924D01*
X133798173Y-73313300D01*
X133636549Y-73259425D01*
X133528799Y-73259425D01*
X133367175Y-73313300D01*
X133043926Y-73636549D01*
X132990051Y-73798173D01*
X132990051Y-73905923D01*
X133043926Y-74067547D01*
X133205550Y-74229171D01*
X132343553Y-73367175D02*
X133097801Y-72612927D01*
X132990051Y-72720677D02*
X132990051Y-72612927D01*
X132936176Y-72451303D01*
X132774552Y-72289679D01*
X132612927Y-72235804D01*
X132451303Y-72289679D01*
X131858680Y-72882301D01*
X132451303Y-72289679D02*
X132505178Y-72128054D01*
X132451303Y-71966430D01*
X132289679Y-71804805D01*
X132128054Y-71750931D01*
X131966430Y-71804805D01*
X131373807Y-72397428D01*
X130350186Y-71373807D02*
X130942809Y-70781184D01*
X131104433Y-70727309D01*
X131266057Y-70781184D01*
X131481557Y-70996683D01*
X131535431Y-71158308D01*
X130404061Y-71319932D02*
X130457935Y-71481557D01*
X130727309Y-71750931D01*
X130888934Y-71804805D01*
X131050558Y-71750931D01*
X131158308Y-71643181D01*
X131212183Y-71481557D01*
X131158308Y-71319932D01*
X130888934Y-71050558D01*
X130835059Y-70888934D01*
X129919187Y-70835059D02*
X129757563Y-70781184D01*
X129542064Y-70565685D01*
X129488189Y-70404061D01*
X129542064Y-70242436D01*
X129595938Y-70188561D01*
X129757563Y-70134687D01*
X129919187Y-70188561D01*
X130080812Y-70350186D01*
X130242436Y-70404061D01*
X130404061Y-70350186D01*
X130457935Y-70296311D01*
X130511810Y-70134687D01*
X130457935Y-69973062D01*
X130296311Y-69811438D01*
X130134687Y-69757563D01*
X129811438Y-69326564D02*
X129380439Y-68895566D01*
X128895566Y-69919187D02*
X129865312Y-68949441D01*
X129919187Y-68787816D01*
X129865312Y-68626192D01*
X129757563Y-68518442D01*
X128087444Y-69111065D02*
X128249068Y-69164940D01*
X128410693Y-69111065D01*
X129380439Y-68141319D01*
X127925820Y-67440946D02*
X127171572Y-68195194D01*
X128410693Y-67925820D02*
X127818070Y-68518442D01*
X127656446Y-68572317D01*
X127494821Y-68518442D01*
X127333197Y-68356818D01*
X127279322Y-68195194D01*
X127279322Y-68087444D01*
X126632824Y-67656446D02*
X127387072Y-66902198D01*
X127279322Y-67009948D02*
X127279322Y-66902198D01*
X127225447Y-66740574D01*
X127063823Y-66578950D01*
X126902198Y-66525075D01*
X126740574Y-66578950D01*
X126147951Y-67171572D01*
X126740574Y-66578950D02*
X126794449Y-66417325D01*
X126740574Y-66255701D01*
X126578950Y-66094076D01*
X126417325Y-66040202D01*
X126255701Y-66094076D01*
X125663078Y-66686699D01*
X125124330Y-66147951D02*
X125878577Y-65393704D01*
X125770828Y-65501454D02*
X125770828Y-65393704D01*
X125716953Y-65232079D01*
X125555328Y-65070455D01*
X125393704Y-65016580D01*
X125232079Y-65070455D01*
X124639457Y-65663078D01*
X125232079Y-65070455D02*
X125285954Y-64908831D01*
X125232079Y-64747206D01*
X125070455Y-64585582D01*
X124908831Y-64531707D01*
X124747206Y-64585582D01*
X124154583Y-65178205D01*
X123238712Y-64154583D02*
X123292587Y-64316208D01*
X123508086Y-64531707D01*
X123669710Y-64585582D01*
X123831335Y-64531707D01*
X124262333Y-64100709D01*
X124316208Y-63939084D01*
X124262333Y-63777460D01*
X124046834Y-63561961D01*
X123885209Y-63508086D01*
X123723585Y-63561961D01*
X123615835Y-63669710D01*
X124046834Y-64316208D01*
X122646089Y-63669710D02*
X123400336Y-62915463D01*
X123184837Y-63130962D02*
X123238712Y-62969338D01*
X123238712Y-62861588D01*
X123184837Y-62699964D01*
X123077087Y-62592214D01*
D11*
X60231266Y-114574780D02*
X60802695Y-114574780D01*
X60516980Y-114574780D02*
X60516980Y-113574780D01*
X60612219Y-113717638D01*
X60707457Y-113812876D01*
X60802695Y-113860495D01*
X59850314Y-114527161D02*
X59707457Y-114574780D01*
X59469361Y-114574780D01*
X59374123Y-114527161D01*
X59326504Y-114479542D01*
X59278885Y-114384304D01*
X59278885Y-114289066D01*
X59326504Y-114193828D01*
X59374123Y-114146209D01*
X59469361Y-114098590D01*
X59659838Y-114050971D01*
X59755076Y-114003352D01*
X59802695Y-113955733D01*
X59850314Y-113860495D01*
X59850314Y-113765257D01*
X59802695Y-113670019D01*
X59755076Y-113622400D01*
X59659838Y-113574780D01*
X59421742Y-113574780D01*
X59278885Y-113622400D01*
X57612219Y-114574780D02*
X58088409Y-114574780D01*
X58088409Y-113574780D01*
X57278885Y-114574780D02*
X57278885Y-113908114D01*
X57278885Y-113574780D02*
X57326504Y-113622400D01*
X57278885Y-113670019D01*
X57231266Y-113622400D01*
X57278885Y-113574780D01*
X57278885Y-113670019D01*
X56802695Y-114574780D02*
X56802695Y-113574780D01*
X56421742Y-113574780D01*
X56326504Y-113622400D01*
X56278885Y-113670019D01*
X56231266Y-113765257D01*
X56231266Y-113908114D01*
X56278885Y-114003352D01*
X56326504Y-114050971D01*
X56421742Y-114098590D01*
X56802695Y-114098590D01*
X55659838Y-114574780D02*
X55755076Y-114527161D01*
X55802695Y-114479542D01*
X55850314Y-114384304D01*
X55850314Y-114098590D01*
X55802695Y-114003352D01*
X55755076Y-113955733D01*
X55659838Y-113908114D01*
X55516980Y-113908114D01*
X55421742Y-113955733D01*
X55374123Y-114003352D01*
X55326504Y-114098590D01*
X55326504Y-114384304D01*
X55374123Y-114479542D01*
X55421742Y-114527161D01*
X55516980Y-114574780D01*
X55659838Y-114574780D01*
D13*
X141395200Y-63978810D02*
X141233576Y-63897998D01*
X141152764Y-63897998D01*
X141031546Y-63938404D01*
X140910327Y-64059622D01*
X140869921Y-64180841D01*
X140869921Y-64261653D01*
X140910327Y-64382871D01*
X141233576Y-64706120D01*
X142082104Y-63857592D01*
X141799261Y-63574749D01*
X141678043Y-63534343D01*
X141597231Y-63534343D01*
X141476013Y-63574749D01*
X141395200Y-63655561D01*
X141354794Y-63776780D01*
X141354794Y-63857592D01*
X141395200Y-63978810D01*
X141678043Y-64261653D01*
X140021393Y-63493937D02*
X140465860Y-63049470D01*
X140587078Y-63009064D01*
X140708297Y-63049470D01*
X140869921Y-63211094D01*
X140910327Y-63332312D01*
X140061799Y-63453531D02*
X140102205Y-63574749D01*
X140304236Y-63776780D01*
X140425454Y-63817186D01*
X140546672Y-63776780D01*
X140627484Y-63695967D01*
X140667891Y-63574749D01*
X140627484Y-63453531D01*
X140425454Y-63251500D01*
X140385048Y-63130282D01*
X139253677Y-62726221D02*
X140102205Y-61877693D01*
X139294083Y-62685815D02*
X139334489Y-62807033D01*
X139496114Y-62968658D01*
X139617332Y-63009064D01*
X139698144Y-63009064D01*
X139819362Y-62968658D01*
X140061799Y-62726221D01*
X140102205Y-62605003D01*
X140102205Y-62524190D01*
X140061799Y-62402972D01*
X139900175Y-62241348D01*
X139778956Y-62200942D01*
X139051647Y-61392820D02*
X138364743Y-62079723D01*
X138324337Y-62200942D01*
X138324337Y-62281754D01*
X138364743Y-62402972D01*
X138485961Y-62524190D01*
X138607179Y-62564597D01*
X138526367Y-61918099D02*
X138566773Y-62039317D01*
X138728398Y-62200942D01*
X138849616Y-62241348D01*
X138930428Y-62241348D01*
X139051647Y-62200942D01*
X139294083Y-61958505D01*
X139334489Y-61837287D01*
X139334489Y-61756475D01*
X139294083Y-61635256D01*
X139132459Y-61473632D01*
X139011240Y-61433226D01*
X137799057Y-61190789D02*
X137839463Y-61312007D01*
X138001088Y-61473632D01*
X138122306Y-61514038D01*
X138243524Y-61473632D01*
X138566773Y-61150383D01*
X138607179Y-61029165D01*
X138566773Y-60907946D01*
X138405149Y-60746322D01*
X138283931Y-60705916D01*
X138162712Y-60746322D01*
X138081900Y-60827134D01*
X138405149Y-61312007D01*
X136708093Y-60180637D02*
X137556621Y-59332108D01*
X137233372Y-59655357D02*
X137192966Y-59534139D01*
X137031341Y-59372515D01*
X136910123Y-59332108D01*
X136829311Y-59332108D01*
X136708093Y-59372515D01*
X136465656Y-59614951D01*
X136425250Y-59736169D01*
X136425250Y-59816982D01*
X136465656Y-59938200D01*
X136627280Y-60099824D01*
X136748499Y-60140230D01*
X136586874Y-58928047D02*
X135819158Y-59291702D01*
X136182813Y-58523986D02*
X135819158Y-59291702D01*
X135697940Y-59574545D01*
X135697940Y-59655357D01*
X135738346Y-59776576D01*
X135374691Y-58685611D02*
X135293879Y-58685611D01*
X135293879Y-58766423D01*
X135374691Y-58766423D01*
X135374691Y-58685611D01*
X135293879Y-58766423D01*
X135819158Y-58241144D02*
X135738346Y-58241144D01*
X135738346Y-58321956D01*
X135819158Y-58321956D01*
X135819158Y-58241144D01*
X135738346Y-58321956D01*
X139620161Y-70158114D02*
X139296912Y-69834866D01*
X138933258Y-70602581D02*
X139660567Y-69875272D01*
X139700973Y-69754053D01*
X139660567Y-69632835D01*
X139579755Y-69552023D01*
X138327166Y-69996490D02*
X138448384Y-70036896D01*
X138529197Y-70036896D01*
X138650415Y-69996490D01*
X138892851Y-69754053D01*
X138933258Y-69632835D01*
X138933258Y-69552023D01*
X138892851Y-69430805D01*
X138771633Y-69309586D01*
X138650415Y-69269180D01*
X138569603Y-69269180D01*
X138448384Y-69309586D01*
X138205948Y-69552023D01*
X138165542Y-69673241D01*
X138165542Y-69754053D01*
X138205948Y-69875272D01*
X138327166Y-69996490D01*
X137680668Y-69349992D02*
X138246354Y-68784307D01*
X138084729Y-68945931D02*
X138125136Y-68824713D01*
X138125136Y-68743901D01*
X138084729Y-68622682D01*
X138003917Y-68541870D01*
X136508891Y-68178215D02*
X137357420Y-67329687D01*
X136024018Y-67693342D02*
X136872546Y-67572124D01*
X136872546Y-66844814D02*
X136872546Y-67814560D01*
X135660363Y-67329687D02*
X136226049Y-66764002D01*
X136508891Y-66481159D02*
X136508891Y-66561971D01*
X136428079Y-66561971D01*
X136428079Y-66481159D01*
X136508891Y-66481159D01*
X136428079Y-66561971D01*
X134852241Y-66359941D02*
X134852241Y-66440753D01*
X134933053Y-66602377D01*
X135013866Y-66683190D01*
X135175490Y-66764002D01*
X135337114Y-66764002D01*
X135458333Y-66723596D01*
X135660363Y-66602377D01*
X135781582Y-66481159D01*
X135902800Y-66279129D01*
X135943206Y-66157910D01*
X135943206Y-65996286D01*
X135862394Y-65834661D01*
X135781582Y-65753849D01*
X135619957Y-65673037D01*
X135539145Y-65673037D01*
X134286556Y-65955880D02*
X134407774Y-65996286D01*
X134488586Y-65996286D01*
X134609805Y-65955880D01*
X134852241Y-65713443D01*
X134892647Y-65592225D01*
X134892647Y-65511413D01*
X134852241Y-65390194D01*
X134731023Y-65268976D01*
X134609805Y-65228570D01*
X134528992Y-65228570D01*
X134407774Y-65268976D01*
X134165338Y-65511413D01*
X134124931Y-65632631D01*
X134124931Y-65713443D01*
X134165338Y-65834661D01*
X134286556Y-65955880D01*
X134205744Y-64743697D02*
X133640058Y-65309382D01*
X134124931Y-64824509D02*
X134124931Y-64743697D01*
X134084525Y-64622478D01*
X133963307Y-64501260D01*
X133842089Y-64460854D01*
X133720870Y-64501260D01*
X133276403Y-64945727D01*
X133033967Y-63167859D02*
X133033967Y-63087047D01*
X132993561Y-62965828D01*
X132791530Y-62763798D01*
X132670312Y-62723392D01*
X132589500Y-62723392D01*
X132468281Y-62763798D01*
X132387469Y-62844610D01*
X132306657Y-63006234D01*
X132306657Y-63975981D01*
X131781378Y-63450701D01*
X132104626Y-62076894D02*
X132023814Y-61996082D01*
X131902596Y-61955676D01*
X131821784Y-61955676D01*
X131700565Y-61996082D01*
X131498535Y-62117300D01*
X131296504Y-62319331D01*
X131175286Y-62521361D01*
X131134880Y-62642579D01*
X131134880Y-62723392D01*
X131175286Y-62844610D01*
X131256098Y-62925422D01*
X131377317Y-62965828D01*
X131458129Y-62965828D01*
X131579347Y-62925422D01*
X131781378Y-62804204D01*
X131983408Y-62602173D01*
X132104626Y-62400143D01*
X132145032Y-62278925D01*
X132145032Y-62198112D01*
X132104626Y-62076894D01*
X131417723Y-61551615D02*
X131417723Y-61470802D01*
X131377317Y-61349584D01*
X131175286Y-61147554D01*
X131054068Y-61107148D01*
X130973255Y-61107148D01*
X130852037Y-61147554D01*
X130771225Y-61228366D01*
X130690413Y-61389990D01*
X130690413Y-62359737D01*
X130165133Y-61834457D01*
X130488382Y-60460650D02*
X130407570Y-60379838D01*
X130286352Y-60339432D01*
X130205540Y-60339432D01*
X130084321Y-60379838D01*
X129882291Y-60501056D01*
X129680260Y-60703087D01*
X129559042Y-60905117D01*
X129518636Y-61026335D01*
X129518636Y-61107148D01*
X129559042Y-61228366D01*
X129639854Y-61309178D01*
X129761072Y-61349584D01*
X129841885Y-61349584D01*
X129963103Y-61309178D01*
X130165133Y-61187960D01*
X130367164Y-60985929D01*
X130488382Y-60783899D01*
X130528788Y-60662680D01*
X130528788Y-60581868D01*
X130488382Y-60460650D01*
X136281810Y-71718597D02*
X135796937Y-71233724D01*
X135190845Y-72324689D02*
X136039373Y-71476161D01*
X134382723Y-71435755D02*
X134423129Y-71556973D01*
X134584753Y-71718597D01*
X134705972Y-71759004D01*
X134827190Y-71718597D01*
X135150439Y-71395349D01*
X135190845Y-71274130D01*
X135150439Y-71152912D01*
X134988814Y-70991288D01*
X134867596Y-70950881D01*
X134746378Y-70991288D01*
X134665566Y-71072100D01*
X134988814Y-71556973D01*
X133938256Y-71072100D02*
X134503941Y-70506414D01*
X134423129Y-70587227D02*
X134423129Y-70506414D01*
X134382723Y-70385196D01*
X134261505Y-70263978D01*
X134140286Y-70223572D01*
X134019068Y-70263978D01*
X133574601Y-70708445D01*
X134019068Y-70263978D02*
X134059474Y-70142759D01*
X134019068Y-70021541D01*
X133897850Y-69900323D01*
X133776631Y-69859917D01*
X133655413Y-69900323D01*
X133210946Y-70344790D01*
X133372570Y-69375044D02*
X132524042Y-70223572D01*
X133332164Y-69415450D02*
X133291758Y-69294231D01*
X133130134Y-69132607D01*
X133008916Y-69092201D01*
X132928103Y-69092201D01*
X132806885Y-69132607D01*
X132564448Y-69375044D01*
X132524042Y-69496262D01*
X132524042Y-69577074D01*
X132564448Y-69698292D01*
X132726073Y-69859917D01*
X132847291Y-69900323D01*
X131917951Y-69051795D02*
X132039169Y-69092201D01*
X132160387Y-69051795D01*
X132887697Y-68324485D01*
X131231047Y-68364891D02*
X131675514Y-67920424D01*
X131796732Y-67880018D01*
X131917951Y-67920424D01*
X132079575Y-68082048D01*
X132119981Y-68203267D01*
X131271453Y-68324485D02*
X131311859Y-68445703D01*
X131513890Y-68647734D01*
X131635108Y-68688140D01*
X131756326Y-68647734D01*
X131837139Y-68566921D01*
X131877545Y-68445703D01*
X131837139Y-68324485D01*
X131635108Y-68122454D01*
X131594702Y-68001236D01*
X131513890Y-67516363D02*
X131190641Y-67193114D01*
X131675514Y-67112302D02*
X130948204Y-67839612D01*
X130826986Y-67880018D01*
X130705768Y-67839612D01*
X130624955Y-67758799D01*
X130059270Y-67112302D02*
X130099676Y-67233520D01*
X130261301Y-67395145D01*
X130382519Y-67435551D01*
X130503737Y-67395145D01*
X130826986Y-67071896D01*
X130867392Y-66950677D01*
X130826986Y-66829459D01*
X130665362Y-66667835D01*
X130544143Y-66627429D01*
X130422925Y-66667835D01*
X130342113Y-66748647D01*
X130665362Y-67233520D01*
X128968305Y-66102149D02*
X129816833Y-65253621D01*
X129493585Y-65576870D02*
X129453179Y-65455652D01*
X129291554Y-65294027D01*
X129170336Y-65253621D01*
X129089524Y-65253621D01*
X128968305Y-65294027D01*
X128725869Y-65536464D01*
X128685463Y-65657682D01*
X128685463Y-65738494D01*
X128725869Y-65859713D01*
X128887493Y-66021337D01*
X129008711Y-66061743D01*
X128847087Y-64849560D02*
X128079371Y-65213215D01*
X128443026Y-64445499D02*
X128079371Y-65213215D01*
X127958153Y-65496058D01*
X127958153Y-65576870D01*
X127998559Y-65698088D01*
X127634904Y-64607123D02*
X127554092Y-64607123D01*
X127554092Y-64687936D01*
X127634904Y-64687936D01*
X127634904Y-64607123D01*
X127554092Y-64687936D01*
X128079371Y-64162656D02*
X127998559Y-64162656D01*
X127998559Y-64243469D01*
X128079371Y-64243469D01*
X128079371Y-64162656D01*
X127998559Y-64243469D01*
X131092455Y-75291708D02*
X130486363Y-74685617D01*
X131213673Y-74685617D02*
X130365145Y-76019018D01*
X130203521Y-75130084D02*
X130809612Y-75736175D01*
X130082302Y-75736175D02*
X130930831Y-74402774D01*
X129637835Y-74968459D02*
X130486363Y-74119931D01*
X130163115Y-74443180D02*
X130122709Y-74321962D01*
X129961084Y-74160337D01*
X129839866Y-74119931D01*
X129759054Y-74119931D01*
X129637835Y-74160337D01*
X129395399Y-74402774D01*
X129354993Y-74523992D01*
X129354993Y-74604804D01*
X129395399Y-74726023D01*
X129557023Y-74887647D01*
X129678241Y-74928053D01*
X128506464Y-73837088D02*
X128950932Y-73392621D01*
X129072150Y-73352215D01*
X129193368Y-73392621D01*
X129354993Y-73554246D01*
X129395399Y-73675464D01*
X128546871Y-73796682D02*
X128587277Y-73917901D01*
X128789307Y-74119931D01*
X128910526Y-74160337D01*
X129031744Y-74119931D01*
X129112556Y-74039119D01*
X129152962Y-73917901D01*
X129112556Y-73796682D01*
X128910526Y-73594652D01*
X128870119Y-73473434D01*
X127738749Y-73069372D02*
X128587277Y-72220844D01*
X127779155Y-73028966D02*
X127819561Y-73150185D01*
X127981185Y-73311809D01*
X128102403Y-73352215D01*
X128183216Y-73352215D01*
X128304434Y-73311809D01*
X128546871Y-73069372D01*
X128587277Y-72948154D01*
X128587277Y-72867342D01*
X128546871Y-72746124D01*
X128385246Y-72584499D01*
X128264028Y-72544093D01*
X127536718Y-71735971D02*
X126849814Y-72422875D01*
X126809408Y-72544093D01*
X126809408Y-72624905D01*
X126849814Y-72746124D01*
X126971033Y-72867342D01*
X127092251Y-72907748D01*
X127011439Y-72261250D02*
X127051845Y-72382469D01*
X127213469Y-72544093D01*
X127334688Y-72584499D01*
X127415500Y-72584499D01*
X127536718Y-72544093D01*
X127779155Y-72301657D01*
X127819561Y-72180438D01*
X127819561Y-72099626D01*
X127779155Y-71978408D01*
X127617530Y-71816783D01*
X127496312Y-71776377D01*
X126284129Y-71533941D02*
X126324535Y-71655159D01*
X126486159Y-71816783D01*
X126607378Y-71857189D01*
X126728596Y-71816783D01*
X127051845Y-71493535D01*
X127092251Y-71372316D01*
X127051845Y-71251098D01*
X126890220Y-71089473D01*
X126769002Y-71049067D01*
X126647784Y-71089473D01*
X126566972Y-71170286D01*
X126890220Y-71655159D01*
X125718443Y-71049067D02*
X125839662Y-71089473D01*
X125960880Y-71049067D01*
X126688190Y-70321758D01*
X125395195Y-70725819D02*
X125960880Y-70160133D01*
X126243723Y-69877290D02*
X126243723Y-69958103D01*
X126162911Y-69958103D01*
X126162911Y-69877290D01*
X126243723Y-69877290D01*
X126162911Y-69958103D01*
X125678037Y-69877290D02*
X125354789Y-69554042D01*
X124991134Y-70321758D02*
X125718443Y-69594448D01*
X125758850Y-69473229D01*
X125718443Y-69352011D01*
X125637631Y-69271199D01*
X124223418Y-69473229D02*
X124263824Y-69594448D01*
X124425448Y-69756072D01*
X124546667Y-69796478D01*
X124667885Y-69756072D01*
X124991134Y-69432823D01*
X125031540Y-69311605D01*
X124991134Y-69190387D01*
X124829509Y-69028762D01*
X124708291Y-68988356D01*
X124587073Y-69028762D01*
X124506260Y-69109575D01*
X124829509Y-69594448D01*
X128817188Y-76718447D02*
X128817188Y-76799259D01*
X128898000Y-76960884D01*
X128978812Y-77041696D01*
X129140437Y-77122508D01*
X129302061Y-77122508D01*
X129423279Y-77082102D01*
X129625310Y-76960884D01*
X129746528Y-76839666D01*
X129867746Y-76637635D01*
X129908152Y-76516417D01*
X129908152Y-76354792D01*
X129827340Y-76193168D01*
X129746528Y-76112356D01*
X129584904Y-76031544D01*
X129504091Y-76031544D01*
X127968660Y-75869919D02*
X127968660Y-75950731D01*
X128049472Y-76112356D01*
X128130284Y-76193168D01*
X128291908Y-76273980D01*
X128453533Y-76273980D01*
X128574751Y-76233574D01*
X128776782Y-76112356D01*
X128898000Y-75991137D01*
X129019218Y-75789107D01*
X129059624Y-75667889D01*
X129059624Y-75506264D01*
X128978812Y-75344640D01*
X128898000Y-75263828D01*
X128736376Y-75183015D01*
X128655563Y-75183015D01*
X127847441Y-75263828D02*
X127200944Y-74617330D01*
X126635258Y-73809208D02*
X126473634Y-73728396D01*
X126392822Y-73728396D01*
X126271603Y-73768802D01*
X126150385Y-73890020D01*
X126109979Y-74011238D01*
X126109979Y-74092051D01*
X126150385Y-74213269D01*
X126473634Y-74536518D01*
X127322162Y-73687990D01*
X127039319Y-73405147D01*
X126918101Y-73364741D01*
X126837289Y-73364741D01*
X126716070Y-73405147D01*
X126635258Y-73485959D01*
X126594852Y-73607177D01*
X126594852Y-73687990D01*
X126635258Y-73809208D01*
X126918101Y-74092051D01*
X125867542Y-73122304D02*
X125463481Y-73526365D01*
X126594852Y-72960680D02*
X125867542Y-73122304D01*
X126029167Y-72394994D01*
X125221045Y-72637431D02*
X124574547Y-71990933D01*
X123928049Y-71910121D02*
X123766425Y-71829309D01*
X123564394Y-71627278D01*
X123523988Y-71506060D01*
X123523988Y-71425248D01*
X123564394Y-71304030D01*
X123645207Y-71223217D01*
X123766425Y-71182811D01*
X123847237Y-71182811D01*
X123968455Y-71223217D01*
X124170486Y-71344436D01*
X124291704Y-71384842D01*
X124372517Y-71384842D01*
X124493735Y-71344436D01*
X124574547Y-71263623D01*
X124614953Y-71142405D01*
X124614953Y-71061593D01*
X124574547Y-70940375D01*
X124372517Y-70738344D01*
X124210892Y-70657532D01*
X123321958Y-70899969D02*
X122917897Y-70495908D01*
X123160333Y-71223217D02*
X123726019Y-70091847D01*
X122594648Y-70657532D01*
D11*
X59334552Y-103348028D02*
X58572647Y-103348028D01*
X58953600Y-103728980D02*
X58953600Y-102967076D01*
X94200800Y-143837495D02*
X94248419Y-143932733D01*
X94248419Y-144075590D01*
X94200800Y-144218447D01*
X94105561Y-144313685D01*
X94010323Y-144361304D01*
X93819847Y-144408923D01*
X93676990Y-144408923D01*
X93486514Y-144361304D01*
X93391276Y-144313685D01*
X93296038Y-144218447D01*
X93248419Y-144075590D01*
X93248419Y-143980352D01*
X93296038Y-143837495D01*
X93343657Y-143789876D01*
X93676990Y-143789876D01*
X93676990Y-143980352D01*
X93248419Y-143361304D02*
X94248419Y-143361304D01*
X93248419Y-142789876D01*
X94248419Y-142789876D01*
X93248419Y-142313685D02*
X94248419Y-142313685D01*
X94248419Y-142075590D01*
X94200800Y-141932733D01*
X94105561Y-141837495D01*
X94010323Y-141789876D01*
X93819847Y-141742257D01*
X93676990Y-141742257D01*
X93486514Y-141789876D01*
X93391276Y-141837495D01*
X93296038Y-141932733D01*
X93248419Y-142075590D01*
X93248419Y-142313685D01*
D13*
G04 #@! TO.C,X1*
X93261426Y-108001263D02*
X93160411Y-107950756D01*
X93034142Y-107824487D01*
X93008888Y-107748725D01*
X93008888Y-107698217D01*
X93034142Y-107622456D01*
X93084650Y-107571948D01*
X93160411Y-107546695D01*
X93210919Y-107546695D01*
X93286680Y-107571948D01*
X93412949Y-107647710D01*
X93488711Y-107672964D01*
X93539218Y-107672964D01*
X93614980Y-107647710D01*
X93665487Y-107597202D01*
X93690741Y-107521441D01*
X93690741Y-107470933D01*
X93665487Y-107395172D01*
X93539218Y-107268903D01*
X93438203Y-107218395D01*
X92453304Y-107142634D02*
X92453304Y-107193141D01*
X92503812Y-107294156D01*
X92554320Y-107344664D01*
X92655335Y-107395172D01*
X92756350Y-107395172D01*
X92832112Y-107369918D01*
X92958381Y-107294156D01*
X93034142Y-107218395D01*
X93109904Y-107092126D01*
X93135157Y-107016365D01*
X93135157Y-106915349D01*
X93084650Y-106814334D01*
X93034142Y-106763826D01*
X92933127Y-106713319D01*
X92882619Y-106713319D01*
X91922974Y-106713319D02*
X92175512Y-106965857D01*
X92705843Y-106435527D01*
X96177130Y-101644979D02*
X95470023Y-101998533D01*
X95823577Y-101291426D01*
X94863932Y-101291426D02*
X94863932Y-101341934D01*
X94914439Y-101442949D01*
X94964947Y-101493457D01*
X95065962Y-101543964D01*
X95166978Y-101543964D01*
X95242739Y-101518710D01*
X95369008Y-101442949D01*
X95444770Y-101367187D01*
X95520531Y-101240918D01*
X95545785Y-101165157D01*
X95545785Y-101064142D01*
X95495277Y-100963126D01*
X95444770Y-100912619D01*
X95343754Y-100862111D01*
X95293247Y-100862111D01*
X94333602Y-100761096D02*
X94333602Y-100811604D01*
X94384109Y-100912619D01*
X94434617Y-100963126D01*
X94535632Y-101013634D01*
X94636648Y-101013634D01*
X94712409Y-100988380D01*
X94838678Y-100912619D01*
X94914439Y-100836857D01*
X94990201Y-100710588D01*
X95015455Y-100634827D01*
X95015455Y-100533812D01*
X94964947Y-100432796D01*
X94914439Y-100382289D01*
X94813424Y-100331781D01*
X94762917Y-100331781D01*
X96676651Y-110456844D02*
X96752412Y-110482097D01*
X96828174Y-110557859D01*
X96878681Y-110658874D01*
X96878681Y-110759889D01*
X96853427Y-110835651D01*
X96777666Y-110961920D01*
X96701905Y-111037681D01*
X96575636Y-111113443D01*
X96499874Y-111138697D01*
X96398859Y-111138697D01*
X96297844Y-111088189D01*
X96247336Y-111037681D01*
X96196828Y-110936666D01*
X96196828Y-110886159D01*
X96373605Y-110709382D01*
X96474620Y-110810397D01*
X95919036Y-110709382D02*
X96449366Y-110179052D01*
X96247336Y-109977021D01*
X96171574Y-109951767D01*
X96121067Y-109951767D01*
X96045305Y-109977021D01*
X95969544Y-110052783D01*
X95944290Y-110128544D01*
X95944290Y-110179052D01*
X95969544Y-110254813D01*
X96171574Y-110456844D01*
X95388706Y-110179052D02*
X95919036Y-109648722D01*
X95565483Y-109295168D02*
X95464468Y-109194153D01*
X95388706Y-109168899D01*
X95287691Y-109168899D01*
X95161422Y-109244661D01*
X94984645Y-109421437D01*
X94908884Y-109547706D01*
X94908884Y-109648722D01*
X94934138Y-109724483D01*
X95035153Y-109825498D01*
X95110914Y-109850752D01*
X95211930Y-109850752D01*
X95338199Y-109774991D01*
X95514975Y-109598214D01*
X95590737Y-109471945D01*
X95590737Y-109370930D01*
X95565483Y-109295168D01*
X95085661Y-108916361D02*
X95085661Y-108865853D01*
X95060407Y-108790092D01*
X94934138Y-108663823D01*
X94858376Y-108638569D01*
X94807869Y-108638569D01*
X94732107Y-108663823D01*
X94681599Y-108714331D01*
X94631092Y-108815346D01*
X94631092Y-109421437D01*
X94302792Y-109093138D01*
X91717913Y-105498105D02*
X91793674Y-105523359D01*
X91869435Y-105599121D01*
X91919943Y-105700136D01*
X91919943Y-105801151D01*
X91894689Y-105876913D01*
X91818928Y-106003182D01*
X91743166Y-106078943D01*
X91616897Y-106154705D01*
X91541136Y-106179958D01*
X91440121Y-106179958D01*
X91339105Y-106129451D01*
X91288598Y-106078943D01*
X91238090Y-105977928D01*
X91238090Y-105927420D01*
X91414867Y-105750644D01*
X91515882Y-105851659D01*
X90960298Y-105750644D02*
X91490628Y-105220314D01*
X90657252Y-105447598D01*
X91187582Y-104917268D01*
X90404714Y-105195060D02*
X90935044Y-104664730D01*
X90808775Y-104538461D01*
X90707760Y-104487953D01*
X90606745Y-104487953D01*
X90530983Y-104513207D01*
X90404714Y-104588968D01*
X90328953Y-104664730D01*
X90253191Y-104790999D01*
X90227938Y-104866760D01*
X90227938Y-104967775D01*
X90278445Y-105068791D01*
X90404714Y-105195060D01*
X97404970Y-103882973D02*
X97303955Y-103832466D01*
X97177686Y-103706196D01*
X97152432Y-103630435D01*
X97152432Y-103579927D01*
X97177686Y-103504166D01*
X97228194Y-103453658D01*
X97303955Y-103428405D01*
X97354463Y-103428405D01*
X97430224Y-103453658D01*
X97556493Y-103529420D01*
X97632255Y-103554674D01*
X97682762Y-103554674D01*
X97758524Y-103529420D01*
X97809031Y-103478912D01*
X97834285Y-103403151D01*
X97834285Y-103352643D01*
X97809031Y-103276882D01*
X97682762Y-103150613D01*
X97581747Y-103100105D01*
X96849386Y-103377897D02*
X97379717Y-102847567D01*
X97253447Y-102721298D01*
X97152432Y-102670790D01*
X97051417Y-102670790D01*
X96975655Y-102696044D01*
X96849386Y-102771805D01*
X96773625Y-102847567D01*
X96697864Y-102973836D01*
X96672610Y-103049597D01*
X96672610Y-103150613D01*
X96723117Y-103251628D01*
X96849386Y-103377897D01*
X96495833Y-102721298D02*
X96243295Y-102468760D01*
X96394818Y-102923328D02*
X96748371Y-102216221D01*
X96041264Y-102569775D01*
X100807569Y-106325926D02*
X100883330Y-106351179D01*
X100959092Y-106426941D01*
X101009599Y-106527956D01*
X101009599Y-106628971D01*
X100984345Y-106704733D01*
X100908584Y-106831002D01*
X100832823Y-106906763D01*
X100706554Y-106982525D01*
X100630792Y-107007779D01*
X100529777Y-107007779D01*
X100428762Y-106957271D01*
X100378254Y-106906763D01*
X100327746Y-106805748D01*
X100327746Y-106755241D01*
X100504523Y-106578464D01*
X100605538Y-106679479D01*
X100049954Y-106578464D02*
X100580284Y-106048134D01*
X100378254Y-105846103D01*
X100302492Y-105820849D01*
X100251985Y-105820849D01*
X100176223Y-105846103D01*
X100100462Y-105921865D01*
X100075208Y-105997626D01*
X100075208Y-106048134D01*
X100100462Y-106123895D01*
X100302492Y-106325926D01*
X99519624Y-106048134D02*
X100049954Y-105517804D01*
X99696401Y-105164250D02*
X99595386Y-105063235D01*
X99519624Y-105037981D01*
X99418609Y-105037981D01*
X99292340Y-105113743D01*
X99115563Y-105290519D01*
X99039802Y-105416788D01*
X99039802Y-105517804D01*
X99065056Y-105593565D01*
X99166071Y-105694580D01*
X99241832Y-105719834D01*
X99342848Y-105719834D01*
X99469117Y-105644073D01*
X99645893Y-105467296D01*
X99721655Y-105341027D01*
X99721655Y-105240012D01*
X99696401Y-105164250D01*
X98433710Y-104962220D02*
X98736756Y-105265266D01*
X98585233Y-105113743D02*
X99115563Y-104583413D01*
X99090309Y-104709682D01*
X99090309Y-104810697D01*
X99115563Y-104886458D01*
D14*
G04 #@! TO.C,J3*
X61400000Y-105200000D02*
X62000000Y-105200000D01*
X54000000Y-109700000D02*
X54000000Y-105200000D01*
X60800000Y-111900000D02*
X60100000Y-111900000D01*
X60800000Y-112800000D02*
X60800000Y-111900000D01*
X54600000Y-105200000D02*
X54600000Y-106800000D01*
X62000000Y-105200000D02*
X62000000Y-109700000D01*
X54600000Y-106800000D02*
X61400000Y-106800000D01*
X54700000Y-112800000D02*
X61300000Y-112800000D01*
X60100000Y-111900000D02*
X60100000Y-112800000D01*
X54000000Y-105200000D02*
X54600000Y-105200000D01*
X61400000Y-106800000D02*
X61400000Y-105200000D01*
G04 #@! TD*
%LPC*%
D15*
G04 #@! TO.C,REF\u002A\u002A*
X107620000Y-93650000D03*
G04 #@! TD*
G04 #@! TO.C,REF\u002A\u002A*
X122860000Y-91110000D03*
G04 #@! TD*
G04 #@! TO.C,REF\u002A\u002A*
X110160000Y-93650000D03*
G04 #@! TD*
G04 #@! TO.C,REF\u002A\u002A*
X105080000Y-80950000D03*
G04 #@! TD*
G04 #@! TO.C,REF\u002A\u002A*
X112700000Y-78410000D03*
G04 #@! TD*
G04 #@! TO.C,REF\u002A\u002A*
X107620000Y-91110000D03*
G04 #@! TD*
G04 #@! TO.C,REF\u002A\u002A*
X115240000Y-93650000D03*
G04 #@! TD*
G04 #@! TO.C,REF\u002A\u002A*
X107620000Y-88570000D03*
G04 #@! TD*
G04 #@! TO.C,REF\u002A\u002A*
X110160000Y-80950000D03*
G04 #@! TD*
G04 #@! TO.C,REF\u002A\u002A*
X105080000Y-91110000D03*
G04 #@! TD*
G04 #@! TO.C,REF\u002A\u002A*
X107620000Y-78410000D03*
G04 #@! TD*
G04 #@! TO.C,REF\u002A\u002A*
X105080000Y-93650000D03*
G04 #@! TD*
G04 #@! TO.C,REF\u002A\u002A*
X105080000Y-88570000D03*
G04 #@! TD*
G04 #@! TO.C,REF\u002A\u002A*
X107620000Y-96190000D03*
G04 #@! TD*
G04 #@! TO.C,REF\u002A\u002A*
X117780000Y-80950000D03*
G04 #@! TD*
G04 #@! TO.C,REF\u002A\u002A*
X107620000Y-83490000D03*
G04 #@! TD*
G04 #@! TO.C,REF\u002A\u002A*
X115240000Y-91110000D03*
G04 #@! TD*
G04 #@! TO.C,REF\u002A\u002A*
X105080000Y-83490000D03*
G04 #@! TD*
G04 #@! TO.C,REF\u002A\u002A*
X117780000Y-91110000D03*
G04 #@! TD*
G04 #@! TO.C,REF\u002A\u002A*
X105080000Y-78410000D03*
G04 #@! TD*
G04 #@! TO.C,REF\u002A\u002A*
X100000000Y-83490000D03*
G04 #@! TD*
G04 #@! TO.C,REF\u002A\u002A*
X107620000Y-80950000D03*
G04 #@! TD*
G04 #@! TO.C,REF\u002A\u002A*
X115240000Y-80950000D03*
G04 #@! TD*
G04 #@! TO.C,REF\u002A\u002A*
X112700000Y-80950000D03*
G04 #@! TD*
G04 #@! TO.C,REF\u002A\u002A*
X120320000Y-91110000D03*
G04 #@! TD*
G04 #@! TO.C,REF\u002A\u002A*
X112700000Y-93650000D03*
G04 #@! TD*
G04 #@! TO.C,REF\u002A\u002A*
X107620000Y-86030000D03*
G04 #@! TD*
G04 #@! TO.C,REF\u002A\u002A*
X112700000Y-75870000D03*
G04 #@! TD*
G04 #@! TO.C,REF\u002A\u002A*
X105080000Y-86030000D03*
G04 #@! TD*
G04 #@! TO.C,REF\u002A\u002A*
X112700000Y-91110000D03*
G04 #@! TD*
G04 #@! TO.C,REF\u002A\u002A*
X102540000Y-83490000D03*
G04 #@! TD*
G04 #@! TO.C,REF\u002A\u002A*
X125400000Y-91110000D03*
G04 #@! TD*
D16*
G04 #@! TO.C,J1*
X67760000Y-143740000D03*
X73540000Y-143740000D03*
D17*
X66330000Y-143240000D03*
D18*
X66330000Y-147420000D03*
D17*
X74970000Y-143240000D03*
D18*
X74970000Y-147420000D03*
G04 #@! TD*
G04 #@! TO.C,X1*
G36*
G01*
X94740916Y-101751835D02*
X94740916Y-101751835D01*
G75*
G02*
X94740916Y-102973149I-610657J-610657D01*
G01*
X94740916Y-102973149D01*
G75*
G02*
X93519602Y-102973149I-610657J610657D01*
G01*
X93519602Y-102973149D01*
G75*
G02*
X93519602Y-101751835I610657J610657D01*
G01*
X93519602Y-101751835D01*
G75*
G02*
X94740916Y-101751835I610657J-610657D01*
G01*
G37*
G36*
X92334207Y-102937228D02*
G01*
X93555522Y-104158543D01*
X92334207Y-105379858D01*
X91112892Y-104158543D01*
X92334207Y-102937228D01*
G37*
G36*
G01*
X96536967Y-103547886D02*
X96536967Y-103547886D01*
G75*
G02*
X96536967Y-104769200I-610657J-610657D01*
G01*
X96536967Y-104769200D01*
G75*
G02*
X95315653Y-104769200I-610657J610657D01*
G01*
X95315653Y-104769200D01*
G75*
G02*
X95315653Y-103547886I610657J610657D01*
G01*
X95315653Y-103547886D01*
G75*
G02*
X96536967Y-103547886I610657J-610657D01*
G01*
G37*
G36*
G01*
X94740916Y-105343937D02*
X94740916Y-105343937D01*
G75*
G02*
X94740916Y-106565251I-610657J-610657D01*
G01*
X94740916Y-106565251D01*
G75*
G02*
X93519602Y-106565251I-610657J610657D01*
G01*
X93519602Y-106565251D01*
G75*
G02*
X93519602Y-105343937I610657J610657D01*
G01*
X93519602Y-105343937D01*
G75*
G02*
X94740916Y-105343937I610657J-610657D01*
G01*
G37*
D15*
X97722361Y-105954594D03*
X95926310Y-107750645D03*
G04 #@! TD*
D19*
G04 #@! TO.C,REF\u002A\u002A*
X110795000Y-79045000D03*
G04 #@! TD*
G04 #@! TO.C,REF\u002A\u002A*
X103175000Y-99365000D03*
G04 #@! TD*
G04 #@! TO.C,REF\u002A\u002A*
X124765000Y-80315000D03*
G04 #@! TD*
G04 #@! TO.C,REF\u002A\u002A*
X120955000Y-104445000D03*
G04 #@! TD*
G04 #@! TO.C,REF\u002A\u002A*
X118415000Y-93015000D03*
G04 #@! TD*
G04 #@! TO.C,REF\u002A\u002A*
X112065000Y-59995000D03*
G04 #@! TD*
G04 #@! TO.C,REF\u002A\u002A*
X99365000Y-98095000D03*
G04 #@! TD*
G04 #@! TO.C,REF\u002A\u002A*
X106985000Y-61265000D03*
G04 #@! TD*
G04 #@! TO.C,REF\u002A\u002A*
X109525000Y-71425000D03*
G04 #@! TD*
G04 #@! TO.C,REF\u002A\u002A*
X101905000Y-77775000D03*
G04 #@! TD*
G04 #@! TO.C,REF\u002A\u002A*
X115875000Y-82855000D03*
G04 #@! TD*
G04 #@! TO.C,REF\u002A\u002A*
X136195000Y-91745000D03*
G04 #@! TD*
G04 #@! TO.C,REF\u002A\u002A*
X110795000Y-86665000D03*
G04 #@! TD*
G04 #@! TO.C,REF\u002A\u002A*
X109525000Y-91745000D03*
G04 #@! TD*
G04 #@! TO.C,REF\u002A\u002A*
X113335000Y-110795000D03*
G04 #@! TD*
G04 #@! TO.C,REF\u002A\u002A*
X122225000Y-85395000D03*
G04 #@! TD*
G04 #@! TO.C,REF\u002A\u002A*
X142545000Y-90475000D03*
G04 #@! TD*
G04 #@! TO.C,REF\u002A\u002A*
X118415000Y-79045000D03*
G04 #@! TD*
G04 #@! TO.C,REF\u002A\u002A*
X90475000Y-80315000D03*
G04 #@! TD*
G04 #@! TO.C,REF\u002A\u002A*
X128575000Y-95555000D03*
G04 #@! TD*
G04 #@! TO.C,REF\u002A\u002A*
X94285000Y-87935000D03*
G04 #@! TD*
G04 #@! TO.C,REF\u002A\u002A*
X95555000Y-93015000D03*
G04 #@! TD*
G04 #@! TO.C,REF\u002A\u002A*
X119685000Y-104445000D03*
G04 #@! TD*
G04 #@! TO.C,REF\u002A\u002A*
X114605000Y-77775000D03*
G04 #@! TD*
G04 #@! TO.C,J2*
G36*
G01*
X80405000Y-145150000D02*
X81595000Y-145150000D01*
G75*
G02*
X81850000Y-145405000I0J-255000D01*
G01*
X81850000Y-146595000D01*
G75*
G02*
X81595000Y-146850000I-255000J0D01*
G01*
X80405000Y-146850000D01*
G75*
G02*
X80150000Y-146595000I0J255000D01*
G01*
X80150000Y-145405000D01*
G75*
G02*
X80405000Y-145150000I255000J0D01*
G01*
G37*
G36*
G01*
X82945000Y-145150000D02*
X84135000Y-145150000D01*
G75*
G02*
X84390000Y-145405000I0J-255000D01*
G01*
X84390000Y-146595000D01*
G75*
G02*
X84135000Y-146850000I-255000J0D01*
G01*
X82945000Y-146850000D01*
G75*
G02*
X82690000Y-146595000I0J255000D01*
G01*
X82690000Y-145405000D01*
G75*
G02*
X82945000Y-145150000I255000J0D01*
G01*
G37*
G36*
G01*
X85485000Y-145150000D02*
X86675000Y-145150000D01*
G75*
G02*
X86930000Y-145405000I0J-255000D01*
G01*
X86930000Y-146595000D01*
G75*
G02*
X86675000Y-146850000I-255000J0D01*
G01*
X85485000Y-146850000D01*
G75*
G02*
X85230000Y-146595000I0J255000D01*
G01*
X85230000Y-145405000D01*
G75*
G02*
X85485000Y-145150000I255000J0D01*
G01*
G37*
G36*
G01*
X88025000Y-145150000D02*
X89215000Y-145150000D01*
G75*
G02*
X89470000Y-145405000I0J-255000D01*
G01*
X89470000Y-146595000D01*
G75*
G02*
X89215000Y-146850000I-255000J0D01*
G01*
X88025000Y-146850000D01*
G75*
G02*
X87770000Y-146595000I0J255000D01*
G01*
X87770000Y-145405000D01*
G75*
G02*
X88025000Y-145150000I255000J0D01*
G01*
G37*
G36*
G01*
X90565000Y-145150000D02*
X91755000Y-145150000D01*
G75*
G02*
X92010000Y-145405000I0J-255000D01*
G01*
X92010000Y-146595000D01*
G75*
G02*
X91755000Y-146850000I-255000J0D01*
G01*
X90565000Y-146850000D01*
G75*
G02*
X90310000Y-146595000I0J255000D01*
G01*
X90310000Y-145405000D01*
G75*
G02*
X90565000Y-145150000I255000J0D01*
G01*
G37*
G36*
G01*
X93105000Y-145150000D02*
X94295000Y-145150000D01*
G75*
G02*
X94550000Y-145405000I0J-255000D01*
G01*
X94550000Y-146595000D01*
G75*
G02*
X94295000Y-146850000I-255000J0D01*
G01*
X93105000Y-146850000D01*
G75*
G02*
X92850000Y-146595000I0J255000D01*
G01*
X92850000Y-145405000D01*
G75*
G02*
X93105000Y-145150000I255000J0D01*
G01*
G37*
G04 #@! TD*
G04 #@! TO.C,REF\u002A\u002A*
X120955000Y-87935000D03*
G04 #@! TD*
G04 #@! TO.C,REF\u002A\u002A*
X110795000Y-73965000D03*
G04 #@! TD*
G04 #@! TO.C,REF\u002A\u002A*
X99365000Y-79045000D03*
G04 #@! TD*
G04 #@! TO.C,REF\u002A\u002A*
X103175000Y-79045000D03*
G04 #@! TD*
G04 #@! TO.C,REF\u002A\u002A*
X112065000Y-61265000D03*
G04 #@! TD*
G04 #@! TO.C,REF\u002A\u002A*
X101905000Y-87935000D03*
G04 #@! TD*
G04 #@! TO.C,REF\u002A\u002A*
X95555000Y-90475000D03*
G04 #@! TD*
G04 #@! TO.C,REF\u002A\u002A*
X109525000Y-72695000D03*
G04 #@! TD*
G04 #@! TO.C,REF\u002A\u002A*
X109525000Y-63805000D03*
G04 #@! TD*
G04 #@! TO.C,REF\u002A\u002A*
X141275000Y-93015000D03*
G04 #@! TD*
G04 #@! TO.C,REF\u002A\u002A*
X110795000Y-106985000D03*
G04 #@! TD*
G04 #@! TO.C,REF\u002A\u002A*
X112065000Y-84125000D03*
G04 #@! TD*
G04 #@! TO.C,REF\u002A\u002A*
X95555000Y-85395000D03*
G04 #@! TD*
G04 #@! TO.C,REF\u002A\u002A*
X89205000Y-81585000D03*
G04 #@! TD*
G04 #@! TO.C,REF\u002A\u002A*
X117145000Y-110795000D03*
G04 #@! TD*
G04 #@! TO.C,REF\u002A\u002A*
X96825000Y-82855000D03*
G04 #@! TD*
G04 #@! TO.C,REF\u002A\u002A*
X103175000Y-68885000D03*
G04 #@! TD*
G04 #@! TO.C,REF\u002A\u002A*
X109525000Y-85395000D03*
G04 #@! TD*
G04 #@! TO.C,REF\u002A\u002A*
X122225000Y-95555000D03*
G04 #@! TD*
G04 #@! TO.C,REF\u002A\u002A*
X94285000Y-81585000D03*
G04 #@! TD*
G04 #@! TO.C,REF\u002A\u002A*
X113335000Y-95555000D03*
G04 #@! TD*
G04 #@! TO.C,REF\u002A\u002A*
X118415000Y-72695000D03*
G04 #@! TD*
G04 #@! TO.C,REF\u002A\u002A*
X104445000Y-72695000D03*
G04 #@! TD*
G04 #@! TO.C,REF\u002A\u002A*
X115875000Y-85395000D03*
G04 #@! TD*
G04 #@! TO.C,REF\u002A\u002A*
X105715000Y-72695000D03*
G04 #@! TD*
G04 #@! TO.C,REF\u002A\u002A*
X127305000Y-89205000D03*
G04 #@! TD*
G04 #@! TO.C,REF\u002A\u002A*
X90475000Y-81585000D03*
G04 #@! TD*
G04 #@! TO.C,REF\u002A\u002A*
X101905000Y-99365000D03*
G04 #@! TD*
G04 #@! TO.C,REF\u002A\u002A*
X113335000Y-73965000D03*
G04 #@! TD*
G04 #@! TO.C,REF\u002A\u002A*
X95555000Y-81585000D03*
G04 #@! TD*
G04 #@! TO.C,REF\u002A\u002A*
X131115000Y-89205000D03*
G04 #@! TD*
G04 #@! TO.C,REF\u002A\u002A*
X98095000Y-75235000D03*
G04 #@! TD*
G04 #@! TO.C,REF\u002A\u002A*
X103175000Y-89205000D03*
G04 #@! TD*
G04 #@! TO.C,REF\u002A\u002A*
X94285000Y-77775000D03*
G04 #@! TD*
G04 #@! TO.C,REF\u002A\u002A*
X131115000Y-86665000D03*
G04 #@! TD*
G04 #@! TO.C,REF\u002A\u002A*
X120955000Y-89205000D03*
G04 #@! TD*
G04 #@! TO.C,REF\u002A\u002A*
X127305000Y-96825000D03*
G04 #@! TD*
G04 #@! TO.C,REF\u002A\u002A*
X131115000Y-87935000D03*
G04 #@! TD*
G04 #@! TO.C,REF\u002A\u002A*
X103175000Y-72695000D03*
G04 #@! TD*
G04 #@! TO.C,REF\u002A\u002A*
X138735000Y-90475000D03*
G04 #@! TD*
G04 #@! TO.C,REF\u002A\u002A*
X113335000Y-96825000D03*
G04 #@! TD*
G04 #@! TO.C,REF\u002A\u002A*
X140005000Y-90475000D03*
G04 #@! TD*
G04 #@! TO.C,REF\u002A\u002A*
X115875000Y-77775000D03*
G04 #@! TD*
G04 #@! TO.C,REF\u002A\u002A*
X90475000Y-89205000D03*
G04 #@! TD*
G04 #@! TO.C,REF\u002A\u002A*
X115875000Y-106985000D03*
G04 #@! TD*
G04 #@! TO.C,REF\u002A\u002A*
X103175000Y-103175000D03*
G04 #@! TD*
G04 #@! TO.C,REF\u002A\u002A*
X93015000Y-82855000D03*
G04 #@! TD*
G04 #@! TO.C,REF\u002A\u002A*
X124765000Y-100635000D03*
G04 #@! TD*
G04 #@! TO.C,REF\u002A\u002A*
X93015000Y-90475000D03*
G04 #@! TD*
G04 #@! TO.C,REF\u002A\u002A*
X110795000Y-109525000D03*
G04 #@! TD*
G04 #@! TO.C,REF\u002A\u002A*
X94285000Y-90475000D03*
G04 #@! TD*
G04 #@! TO.C,REF\u002A\u002A*
X132385000Y-94285000D03*
G04 #@! TD*
G04 #@! TO.C,REF\u002A\u002A*
X96825000Y-91745000D03*
G04 #@! TD*
G04 #@! TO.C,REF\u002A\u002A*
X120955000Y-76505000D03*
G04 #@! TD*
G04 #@! TO.C,REF\u002A\u002A*
X115875000Y-112065000D03*
G04 #@! TD*
G04 #@! TO.C,REF\u002A\u002A*
X128575000Y-80315000D03*
G04 #@! TD*
G04 #@! TO.C,REF\u002A\u002A*
X109525000Y-87935000D03*
G04 #@! TD*
G04 #@! TO.C,REF\u002A\u002A*
X101905000Y-86665000D03*
G04 #@! TD*
G04 #@! TO.C,REF\u002A\u002A*
X99365000Y-90475000D03*
G04 #@! TD*
G04 #@! TO.C,REF\u002A\u002A*
X115875000Y-101905000D03*
G04 #@! TD*
G04 #@! TO.C,REF\u002A\u002A*
X128575000Y-93015000D03*
G04 #@! TD*
G04 #@! TO.C,REF\u002A\u002A*
X98095000Y-94285000D03*
G04 #@! TD*
G04 #@! TO.C,REF\u002A\u002A*
X113335000Y-99365000D03*
G04 #@! TD*
G04 #@! TO.C,REF\u002A\u002A*
X127305000Y-95555000D03*
G04 #@! TD*
G04 #@! TO.C,REF\u002A\u002A*
X132385000Y-89205000D03*
G04 #@! TD*
G04 #@! TO.C,REF\u002A\u002A*
X109525000Y-99365000D03*
G04 #@! TD*
G04 #@! TO.C,REF\u002A\u002A*
X96825000Y-81585000D03*
G04 #@! TD*
G04 #@! TO.C,REF\u002A\u002A*
X89205000Y-82855000D03*
G04 #@! TD*
G04 #@! TO.C,REF\u002A\u002A*
X120955000Y-105715000D03*
G04 #@! TD*
G04 #@! TO.C,REF\u002A\u002A*
X96825000Y-80315000D03*
G04 #@! TD*
G04 #@! TO.C,REF\u002A\u002A*
X124765000Y-87935000D03*
G04 #@! TD*
G04 #@! TO.C,REF\u002A\u002A*
X134925000Y-86665000D03*
G04 #@! TD*
G04 #@! TO.C,REF\u002A\u002A*
X101905000Y-100635000D03*
G04 #@! TD*
G04 #@! TO.C,REF\u002A\u002A*
X119685000Y-95555000D03*
G04 #@! TD*
G04 #@! TO.C,REF\u002A\u002A*
X99365000Y-95555000D03*
G04 #@! TD*
G04 #@! TO.C,REF\u002A\u002A*
X123495000Y-94285000D03*
G04 #@! TD*
G04 #@! TO.C,REF\u002A\u002A*
X105715000Y-76505000D03*
G04 #@! TD*
G04 #@! TO.C,REF\u002A\u002A*
X123495000Y-80315000D03*
G04 #@! TD*
G04 #@! TO.C,REF\u002A\u002A*
X100635000Y-95555000D03*
G04 #@! TD*
G04 #@! TO.C,REF\u002A\u002A*
X124765000Y-89205000D03*
G04 #@! TD*
G04 #@! TO.C,REF\u002A\u002A*
X109525000Y-105715000D03*
G04 #@! TD*
G04 #@! TO.C,REF\u002A\u002A*
X112065000Y-66345000D03*
G04 #@! TD*
G04 #@! TO.C,REF\u002A\u002A*
X87935000Y-84125000D03*
G04 #@! TD*
G04 #@! TO.C,REF\u002A\u002A*
X122225000Y-89205000D03*
G04 #@! TD*
G04 #@! TO.C,REF\u002A\u002A*
X126035000Y-95555000D03*
G04 #@! TD*
G04 #@! TO.C,REF\u002A\u002A*
X93015000Y-77775000D03*
G04 #@! TD*
G04 #@! TO.C,REF\u002A\u002A*
X138735000Y-87935000D03*
G04 #@! TD*
G04 #@! TO.C,REF\u002A\u002A*
X105715000Y-63805000D03*
G04 #@! TD*
G04 #@! TO.C,REF\u002A\u002A*
X98095000Y-70155000D03*
G04 #@! TD*
G04 #@! TO.C,REF\u002A\u002A*
X109525000Y-82855000D03*
G04 #@! TD*
G04 #@! TO.C,REF\u002A\u002A*
X101905000Y-76505000D03*
G04 #@! TD*
G04 #@! TO.C,REF\u002A\u002A*
X119685000Y-94285000D03*
G04 #@! TD*
G04 #@! TO.C,REF\u002A\u002A*
X114605000Y-104445000D03*
G04 #@! TD*
G04 #@! TO.C,REF\u002A\u002A*
X128575000Y-90475000D03*
G04 #@! TD*
G04 #@! TO.C,REF\u002A\u002A*
X99365000Y-93015000D03*
G04 #@! TD*
G04 #@! TO.C,REF\u002A\u002A*
X115875000Y-109525000D03*
G04 #@! TD*
G04 #@! TO.C,REF\u002A\u002A*
X131115000Y-93015000D03*
G04 #@! TD*
G04 #@! TO.C,REF\u002A\u002A*
X109525000Y-75235000D03*
G04 #@! TD*
G04 #@! TO.C,REF\u002A\u002A*
X103175000Y-93015000D03*
G04 #@! TD*
G04 #@! TO.C,REF\u002A\u002A*
X93015000Y-87935000D03*
G04 #@! TD*
G04 #@! TO.C,REF\u002A\u002A*
X124765000Y-101905000D03*
G04 #@! TD*
G04 #@! TO.C,REF\u002A\u002A*
X133655000Y-91745000D03*
G04 #@! TD*
G04 #@! TO.C,REF\u002A\u002A*
X122225000Y-104445000D03*
G04 #@! TD*
G04 #@! TO.C,REF\u002A\u002A*
X117145000Y-89205000D03*
G04 #@! TD*
G04 #@! TO.C,REF\u002A\u002A*
X94285000Y-75235000D03*
G04 #@! TD*
G04 #@! TO.C,REF\u002A\u002A*
X105715000Y-62535000D03*
G04 #@! TD*
G04 #@! TO.C,REF\u002A\u002A*
X117145000Y-86665000D03*
G04 #@! TD*
G04 #@! TO.C,REF\u002A\u002A*
X136195000Y-86665000D03*
G04 #@! TD*
G04 #@! TO.C,REF\u002A\u002A*
X109525000Y-76505000D03*
G04 #@! TD*
G04 #@! TO.C,REF\u002A\u002A*
X110795000Y-101905000D03*
G04 #@! TD*
G04 #@! TO.C,REF\u002A\u002A*
X117145000Y-95555000D03*
G04 #@! TD*
G04 #@! TO.C,REF\u002A\u002A*
X128575000Y-94285000D03*
G04 #@! TD*
G04 #@! TO.C,REF\u002A\u002A*
X94285000Y-85395000D03*
G04 #@! TD*
G04 #@! TO.C,REF\u002A\u002A*
X119685000Y-79045000D03*
G04 #@! TD*
G04 #@! TO.C,REF\u002A\u002A*
X129845000Y-85395000D03*
G04 #@! TD*
G04 #@! TO.C,REF\u002A\u002A*
X115875000Y-104445000D03*
G04 #@! TD*
G04 #@! TO.C,REF\u002A\u002A*
X87935000Y-87935000D03*
G04 #@! TD*
G04 #@! TO.C,REF\u002A\u002A*
X114605000Y-110795000D03*
G04 #@! TD*
G04 #@! TO.C,REF\u002A\u002A*
X90475000Y-85395000D03*
G04 #@! TD*
G04 #@! TO.C,REF\u002A\u002A*
X109525000Y-86665000D03*
G04 #@! TD*
G04 #@! TO.C,REF\u002A\u002A*
X103175000Y-100635000D03*
G04 #@! TD*
G04 #@! TO.C,REF\u002A\u002A*
X108255000Y-70155000D03*
G04 #@! TD*
G04 #@! TO.C,REF\u002A\u002A*
X103175000Y-86665000D03*
G04 #@! TD*
G04 #@! TO.C,REF\u002A\u002A*
X101905000Y-98095000D03*
G04 #@! TD*
G04 #@! TO.C,REF\u002A\u002A*
X96825000Y-75235000D03*
G04 #@! TD*
G04 #@! TO.C,REF\u002A\u002A*
X129845000Y-94285000D03*
G04 #@! TD*
G04 #@! TO.C,REF\u002A\u002A*
X108255000Y-99365000D03*
G04 #@! TD*
G04 #@! TO.C,REF\u002A\u002A*
X93015000Y-79045000D03*
G04 #@! TD*
G04 #@! TO.C,REF\u002A\u002A*
X118415000Y-85395000D03*
G04 #@! TD*
G04 #@! TO.C,REF\u002A\u002A*
X120955000Y-101905000D03*
G04 #@! TD*
G04 #@! TO.C,REF\u002A\u002A*
X112065000Y-85395000D03*
G04 #@! TD*
G04 #@! TO.C,REF\u002A\u002A*
X126035000Y-87935000D03*
G04 #@! TD*
G04 #@! TO.C,REF\u002A\u002A*
X112065000Y-67615000D03*
G04 #@! TD*
G04 #@! TO.C,REF\u002A\u002A*
X128575000Y-98095000D03*
G04 #@! TD*
G04 #@! TO.C,REF\u002A\u002A*
X113335000Y-68885000D03*
G04 #@! TD*
G04 #@! TO.C,REF\u002A\u002A*
X133655000Y-85395000D03*
G04 #@! TD*
G04 #@! TO.C,REF\u002A\u002A*
X104445000Y-73965000D03*
G04 #@! TD*
G04 #@! TO.C,REF\u002A\u002A*
X134925000Y-90475000D03*
G04 #@! TD*
G04 #@! TO.C,REF\u002A\u002A*
X119685000Y-76505000D03*
G04 #@! TD*
G04 #@! TO.C,REF\u002A\u002A*
X127305000Y-100635000D03*
G04 #@! TD*
G04 #@! TO.C,REF\u002A\u002A*
X127305000Y-98095000D03*
G04 #@! TD*
G04 #@! TO.C,REF\u002A\u002A*
X123495000Y-82855000D03*
G04 #@! TD*
G04 #@! TO.C,REF\u002A\u002A*
X141275000Y-91745000D03*
G04 #@! TD*
G04 #@! TO.C,REF\u002A\u002A*
X109525000Y-101905000D03*
G04 #@! TD*
G04 #@! TO.C,REF\u002A\u002A*
X98095000Y-72695000D03*
G04 #@! TD*
G04 #@! TO.C,REF\u002A\u002A*
X115875000Y-70155000D03*
G04 #@! TD*
G04 #@! TO.C,REF\u002A\u002A*
X128575000Y-84125000D03*
G04 #@! TD*
G04 #@! TO.C,REF\u002A\u002A*
X103175000Y-101905000D03*
G04 #@! TD*
G04 #@! TO.C,REF\u002A\u002A*
X115875000Y-95555000D03*
G04 #@! TD*
G04 #@! TO.C,REF\u002A\u002A*
X120955000Y-82855000D03*
G04 #@! TD*
G04 #@! TO.C,REF\u002A\u002A*
X109525000Y-66345000D03*
G04 #@! TD*
G04 #@! TO.C,REF\u002A\u002A*
X122225000Y-77775000D03*
G04 #@! TD*
G04 #@! TO.C,REF\u002A\u002A*
X98095000Y-85395000D03*
G04 #@! TD*
G04 #@! TO.C,REF\u002A\u002A*
X124765000Y-93015000D03*
G04 #@! TD*
G04 #@! TO.C,REF\u002A\u002A*
X115875000Y-67615000D03*
G04 #@! TD*
G04 #@! TO.C,REF\u002A\u002A*
X123495000Y-100635000D03*
G04 #@! TD*
G04 #@! TO.C,REF\u002A\u002A*
X100635000Y-96825000D03*
G04 #@! TD*
G04 #@! TO.C,REF\u002A\u002A*
X118415000Y-95555000D03*
G04 #@! TD*
G04 #@! TO.C,REF\u002A\u002A*
X104445000Y-96825000D03*
G04 #@! TD*
G04 #@! TO.C,REF\u002A\u002A*
X123495000Y-77775000D03*
G04 #@! TD*
G04 #@! TO.C,REF\u002A\u002A*
X124765000Y-99365000D03*
G04 #@! TD*
G04 #@! TO.C,REF\u002A\u002A*
X117145000Y-72695000D03*
G04 #@! TD*
G04 #@! TO.C,REF\u002A\u002A*
X99365000Y-70155000D03*
G04 #@! TD*
G04 #@! TO.C,REF\u002A\u002A*
X118415000Y-89205000D03*
G04 #@! TD*
G04 #@! TO.C,REF\u002A\u002A*
X118415000Y-98095000D03*
G04 #@! TD*
G04 #@! TO.C,REF\u002A\u002A*
X98095000Y-86665000D03*
G04 #@! TD*
G04 #@! TO.C,REF\u002A\u002A*
X127305000Y-87935000D03*
G04 #@! TD*
G04 #@! TO.C,REF\u002A\u002A*
X95555000Y-95555000D03*
G04 #@! TD*
G04 #@! TO.C,REF\u002A\u002A*
X117145000Y-98095000D03*
G04 #@! TD*
G04 #@! TO.C,REF\u002A\u002A*
X141275000Y-89205000D03*
G04 #@! TD*
G04 #@! TO.C,REF\u002A\u002A*
X114605000Y-68885000D03*
G04 #@! TD*
G04 #@! TO.C,REF\u002A\u002A*
X136195000Y-90475000D03*
G04 #@! TD*
G04 #@! TO.C,REF\u002A\u002A*
X117145000Y-101905000D03*
G04 #@! TD*
G04 #@! TO.C,REF\u002A\u002A*
X106985000Y-103175000D03*
G04 #@! TD*
G04 #@! TO.C,REF\u002A\u002A*
X138735000Y-89205000D03*
G04 #@! TD*
G04 #@! TO.C,REF\u002A\u002A*
X106985000Y-100635000D03*
G04 #@! TD*
G04 #@! TO.C,REF\u002A\u002A*
X115875000Y-100635000D03*
G04 #@! TD*
G04 #@! TO.C,REF\u002A\u002A*
X105715000Y-96825000D03*
G04 #@! TD*
G04 #@! TO.C,REF\u002A\u002A*
X109525000Y-104445000D03*
G04 #@! TD*
G04 #@! TO.C,REF\u002A\u002A*
X98095000Y-77775000D03*
G04 #@! TD*
G04 #@! TO.C,REF\u002A\u002A*
X101905000Y-65075000D03*
G04 #@! TD*
G04 #@! TO.C,REF\u002A\u002A*
X114605000Y-114605000D03*
G04 #@! TD*
G04 #@! TO.C,REF\u002A\u002A*
X114605000Y-72695000D03*
G04 #@! TD*
G04 #@! TO.C,REF\u002A\u002A*
X105715000Y-95555000D03*
G04 #@! TD*
G04 #@! TO.C,REF\u002A\u002A*
X127305000Y-84125000D03*
G04 #@! TD*
G04 #@! TO.C,REF\u002A\u002A*
X122225000Y-99365000D03*
G04 #@! TD*
G04 #@! TO.C,REF\u002A\u002A*
X94285000Y-84125000D03*
G04 #@! TD*
G04 #@! TO.C,REF\u002A\u002A*
X117145000Y-93015000D03*
G04 #@! TD*
G04 #@! TO.C,REF\u002A\u002A*
X110795000Y-68885000D03*
G04 #@! TD*
G04 #@! TO.C,REF\u002A\u002A*
X99365000Y-71425000D03*
G04 #@! TD*
G04 #@! TO.C,REF\u002A\u002A*
X100635000Y-91745000D03*
G04 #@! TD*
G04 #@! TO.C,REF\u002A\u002A*
X134925000Y-89205000D03*
G04 #@! TD*
G04 #@! TO.C,REF\u002A\u002A*
X96825000Y-93015000D03*
G04 #@! TD*
G04 #@! TO.C,REF\u002A\u002A*
X114605000Y-109525000D03*
G04 #@! TD*
G04 #@! TO.C,REF\u002A\u002A*
X105715000Y-75235000D03*
G04 #@! TD*
G04 #@! TO.C,REF\u002A\u002A*
X122225000Y-103175000D03*
G04 #@! TD*
G04 #@! TO.C,REF\u002A\u002A*
X96825000Y-85395000D03*
G04 #@! TD*
G04 #@! TO.C,REF\u002A\u002A*
X114605000Y-101905000D03*
G04 #@! TD*
G04 #@! TO.C,REF\u002A\u002A*
X103175000Y-95555000D03*
G04 #@! TD*
G04 #@! TO.C,REF\u002A\u002A*
X103175000Y-96825000D03*
G04 #@! TD*
G04 #@! TO.C,REF\u002A\u002A*
X100635000Y-98095000D03*
G04 #@! TD*
G04 #@! TO.C,REF\u002A\u002A*
X110795000Y-84125000D03*
G04 #@! TD*
G04 #@! TO.C,REF\u002A\u002A*
X101905000Y-75235000D03*
G04 #@! TD*
G04 #@! TO.C,REF\u002A\u002A*
X108255000Y-103175000D03*
G04 #@! TD*
G04 #@! TO.C,REF\u002A\u002A*
X127305000Y-79045000D03*
G04 #@! TD*
G04 #@! TO.C,REF\u002A\u002A*
X120955000Y-81585000D03*
G04 #@! TD*
G04 #@! TO.C,REF\u002A\u002A*
X118415000Y-84125000D03*
G04 #@! TD*
G04 #@! TO.C,REF\u002A\u002A*
X117145000Y-85395000D03*
G04 #@! TD*
G04 #@! TO.C,REF\u002A\u002A*
X126035000Y-93015000D03*
G04 #@! TD*
G04 #@! TO.C,REF\u002A\u002A*
X110795000Y-77775000D03*
G04 #@! TD*
G04 #@! TO.C,REF\u002A\u002A*
X103175000Y-70155000D03*
G04 #@! TD*
G04 #@! TO.C,REF\u002A\u002A*
X110795000Y-59995000D03*
G04 #@! TD*
G04 #@! TO.C,REF\u002A\u002A*
X119685000Y-85395000D03*
G04 #@! TD*
G04 #@! TO.C,REF\u002A\u002A*
X109525000Y-62535000D03*
G04 #@! TD*
G04 #@! TO.C,REF\u002A\u002A*
X123495000Y-93015000D03*
G04 #@! TD*
G04 #@! TO.C,REF\u002A\u002A*
X95555000Y-79045000D03*
G04 #@! TD*
G04 #@! TO.C,REF\u002A\u002A*
X129845000Y-89205000D03*
G04 #@! TD*
G04 #@! TO.C,REF\u002A\u002A*
X119685000Y-80315000D03*
G04 #@! TD*
G04 #@! TO.C,REF\u002A\u002A*
X117145000Y-106985000D03*
G04 #@! TD*
G04 #@! TO.C,REF\u002A\u002A*
X114605000Y-106985000D03*
G04 #@! TD*
G04 #@! TO.C,REF\u002A\u002A*
X106985000Y-65075000D03*
G04 #@! TD*
G04 #@! TO.C,REF\u002A\u002A*
X110795000Y-87935000D03*
G04 #@! TD*
G04 #@! TO.C,REF\u002A\u002A*
X98095000Y-76505000D03*
G04 #@! TD*
G04 #@! TO.C,REF\u002A\u002A*
X110795000Y-82855000D03*
G04 #@! TD*
G04 #@! TO.C,REF\u002A\u002A*
X101905000Y-73965000D03*
G04 #@! TD*
G04 #@! TO.C,REF\u002A\u002A*
X114605000Y-73965000D03*
G04 #@! TD*
G04 #@! TO.C,REF\u002A\u002A*
X96825000Y-86665000D03*
G04 #@! TD*
G04 #@! TO.C,REF\u002A\u002A*
X103175000Y-85395000D03*
G04 #@! TD*
G04 #@! TO.C,REF\u002A\u002A*
X109525000Y-77775000D03*
G04 #@! TD*
G04 #@! TO.C,REF\u002A\u002A*
X129845000Y-80315000D03*
G04 #@! TD*
G04 #@! TO.C,REF\u002A\u002A*
X106985000Y-75235000D03*
G04 #@! TD*
G04 #@! TO.C,REF\u002A\u002A*
X105715000Y-67615000D03*
G04 #@! TD*
G04 #@! TO.C,REF\u002A\u002A*
X110795000Y-66345000D03*
G04 #@! TD*
G04 #@! TO.C,REF\u002A\u002A*
X95555000Y-82855000D03*
G04 #@! TD*
G04 #@! TO.C,REF\u002A\u002A*
X98095000Y-80315000D03*
G04 #@! TD*
G04 #@! TO.C,REF\u002A\u002A*
X105715000Y-100635000D03*
G04 #@! TD*
G04 #@! TO.C,REF\u002A\u002A*
X134925000Y-85395000D03*
G04 #@! TD*
G04 #@! TO.C,REF\u002A\u002A*
X114605000Y-75235000D03*
G04 #@! TD*
G04 #@! TO.C,REF\u002A\u002A*
X118415000Y-86665000D03*
G04 #@! TD*
G04 #@! TO.C,REF\u002A\u002A*
X104445000Y-99365000D03*
G04 #@! TD*
G04 #@! TO.C,REF\u002A\u002A*
X120955000Y-103175000D03*
G04 #@! TD*
G04 #@! TO.C,REF\u002A\u002A*
X113335000Y-103175000D03*
G04 #@! TD*
G04 #@! TO.C,REF\u002A\u002A*
X95555000Y-76505000D03*
G04 #@! TD*
G04 #@! TO.C,REF\u002A\u002A*
X98095000Y-84125000D03*
G04 #@! TD*
G04 #@! TO.C,REF\u002A\u002A*
X119685000Y-77775000D03*
G04 #@! TD*
G04 #@! TO.C,REF\u002A\u002A*
X128575000Y-99365000D03*
G04 #@! TD*
G04 #@! TO.C,REF\u002A\u002A*
X100635000Y-90475000D03*
G04 #@! TD*
G04 #@! TO.C,REF\u002A\u002A*
X114605000Y-95555000D03*
G04 #@! TD*
G04 #@! TO.C,REF\u002A\u002A*
X129845000Y-79045000D03*
G04 #@! TD*
G04 #@! TO.C,REF\u002A\u002A*
X108255000Y-106985000D03*
G04 #@! TD*
G04 #@! TO.C,REF\u002A\u002A*
X99365000Y-81585000D03*
G04 #@! TD*
G04 #@! TO.C,REF\u002A\u002A*
X104445000Y-70155000D03*
G04 #@! TD*
G04 #@! TO.C,REF\u002A\u002A*
X129845000Y-95555000D03*
G04 #@! TD*
G04 #@! TO.C,REF\u002A\u002A*
X91745000Y-77775000D03*
G04 #@! TD*
G04 #@! TO.C,REF\u002A\u002A*
X124765000Y-79045000D03*
G04 #@! TD*
G04 #@! TO.C,REF\u002A\u002A*
X114605000Y-113335000D03*
G04 #@! TD*
G04 #@! TO.C,REF\u002A\u002A*
X118415000Y-87935000D03*
G04 #@! TD*
G04 #@! TO.C,REF\u002A\u002A*
X112065000Y-106985000D03*
G04 #@! TD*
G04 #@! TO.C,REF\u002A\u002A*
X109525000Y-68885000D03*
G04 #@! TD*
G04 #@! TO.C,REF\u002A\u002A*
X99365000Y-86665000D03*
G04 #@! TD*
G04 #@! TO.C,REF\u002A\u002A*
X126035000Y-98095000D03*
G04 #@! TD*
G04 #@! TO.C,REF\u002A\u002A*
X112065000Y-82855000D03*
G04 #@! TD*
G04 #@! TO.C,REF\u002A\u002A*
X129845000Y-91745000D03*
G04 #@! TD*
G04 #@! TO.C,REF\u002A\u002A*
X120955000Y-85395000D03*
G04 #@! TD*
G04 #@! TO.C,REF\u002A\u002A*
X110795000Y-70155000D03*
G04 #@! TD*
G04 #@! TO.C,REF\u002A\u002A*
X141275000Y-87935000D03*
G04 #@! TD*
G04 #@! TO.C,REF\u002A\u002A*
X117145000Y-79045000D03*
G04 #@! TD*
G04 #@! TO.C,REF\u002A\u002A*
X96825000Y-79045000D03*
G04 #@! TD*
G04 #@! TO.C,REF\u002A\u002A*
X126035000Y-79045000D03*
G04 #@! TD*
G04 #@! TO.C,REF\u002A\u002A*
X91745000Y-85395000D03*
G04 #@! TD*
G04 #@! TO.C,REF\u002A\u002A*
X119685000Y-103175000D03*
G04 #@! TD*
G04 #@! TO.C,REF\u002A\u002A*
X119685000Y-89205000D03*
G04 #@! TD*
G04 #@! TO.C,REF\u002A\u002A*
X104445000Y-65075000D03*
G04 #@! TD*
G04 #@! TO.C,REF\u002A\u002A*
X124765000Y-96825000D03*
G04 #@! TD*
G04 #@! TO.C,REF\u002A\u002A*
X119685000Y-84125000D03*
G04 #@! TD*
G04 #@! TO.C,REF\u002A\u002A*
X103175000Y-94285000D03*
G04 #@! TD*
G04 #@! TO.C,REF\u002A\u002A*
X133655000Y-86665000D03*
G04 #@! TD*
G04 #@! TO.C,REF\u002A\u002A*
X110795000Y-75235000D03*
G04 #@! TD*
G04 #@! TO.C,REF\u002A\u002A*
X120955000Y-80315000D03*
G04 #@! TD*
G04 #@! TO.C,REF\u002A\u002A*
X101905000Y-71425000D03*
G04 #@! TD*
G04 #@! TO.C,REF\u002A\u002A*
X117145000Y-94285000D03*
G04 #@! TD*
G04 #@! TO.C,REF\u002A\u002A*
X134925000Y-87935000D03*
G04 #@! TD*
G04 #@! TO.C,REF\u002A\u002A*
X109525000Y-67615000D03*
G04 #@! TD*
G04 #@! TO.C,REF\u002A\u002A*
X137465000Y-90475000D03*
G04 #@! TD*
G04 #@! TO.C,REF\u002A\u002A*
X122225000Y-84125000D03*
G04 #@! TD*
G04 #@! TO.C,REF\u002A\u002A*
X103175000Y-90475000D03*
G04 #@! TD*
G04 #@! TO.C,REF\u002A\u002A*
X90475000Y-90475000D03*
G04 #@! TD*
G04 #@! TO.C,REF\u002A\u002A*
X93015000Y-93015000D03*
G04 #@! TD*
G04 #@! TO.C,REF\u002A\u002A*
X90475000Y-86665000D03*
G04 #@! TD*
G04 #@! TO.C,REF\u002A\u002A*
X122225000Y-81585000D03*
G04 #@! TD*
G04 #@! TO.C,REF\u002A\u002A*
X99365000Y-89205000D03*
G04 #@! TD*
G04 #@! TO.C,REF\u002A\u002A*
X110795000Y-76505000D03*
G04 #@! TD*
G04 #@! TO.C,REF\u002A\u002A*
X123495000Y-84125000D03*
G04 #@! TD*
G04 #@! TO.C,REF\u002A\u002A*
X100635000Y-94285000D03*
G04 #@! TD*
G04 #@! TO.C,REF\u002A\u002A*
X112065000Y-101905000D03*
G04 #@! TD*
G04 #@! TO.C,REF\u002A\u002A*
X123495000Y-89205000D03*
G04 #@! TD*
G04 #@! TO.C,REF\u002A\u002A*
X126035000Y-99365000D03*
G04 #@! TD*
G04 #@! TO.C,REF\u002A\u002A*
X127305000Y-101905000D03*
G04 #@! TD*
G04 #@! TO.C,REF\u002A\u002A*
X118415000Y-103175000D03*
G04 #@! TD*
G04 #@! TO.C,REF\u002A\u002A*
X140005000Y-86665000D03*
G04 #@! TD*
G04 #@! TO.C,REF\u002A\u002A*
X126035000Y-94285000D03*
G04 #@! TD*
G04 #@! TO.C,REF\u002A\u002A*
X115875000Y-76505000D03*
G04 #@! TD*
G04 #@! TO.C,REF\u002A\u002A*
X126035000Y-82855000D03*
G04 #@! TD*
G04 #@! TO.C,REF\u002A\u002A*
X89205000Y-85395000D03*
G04 #@! TD*
G04 #@! TO.C,REF\u002A\u002A*
X100635000Y-93015000D03*
G04 #@! TD*
G04 #@! TO.C,REF\u002A\u002A*
X105715000Y-73965000D03*
G04 #@! TD*
G04 #@! TO.C,REF\u002A\u002A*
X104445000Y-95555000D03*
G04 #@! TD*
G04 #@! TO.C,REF\u002A\u002A*
X131115000Y-84125000D03*
G04 #@! TD*
G04 #@! TO.C,REF\u002A\u002A*
X108255000Y-66345000D03*
G04 #@! TD*
G04 #@! TO.C,REF\u002A\u002A*
X100635000Y-76505000D03*
G04 #@! TD*
G04 #@! TO.C,REF\u002A\u002A*
X105715000Y-66345000D03*
G04 #@! TD*
G04 #@! TO.C,REF\u002A\u002A*
X123495000Y-95555000D03*
G04 #@! TD*
G04 #@! TO.C,REF\u002A\u002A*
X119685000Y-108255000D03*
G04 #@! TD*
G04 #@! TO.C,REF\u002A\u002A*
X129845000Y-93015000D03*
G04 #@! TD*
G04 #@! TO.C,REF\u002A\u002A*
X132385000Y-85395000D03*
G04 #@! TD*
G04 #@! TO.C,REF\u002A\u002A*
X110795000Y-100635000D03*
G04 #@! TD*
G04 #@! TO.C,REF\u002A\u002A*
X96825000Y-73965000D03*
G04 #@! TD*
G04 #@! TO.C,REF\u002A\u002A*
X96825000Y-94285000D03*
G04 #@! TD*
G04 #@! TO.C,REF\u002A\u002A*
X123495000Y-86665000D03*
G04 #@! TD*
G04 #@! TO.C,REF\u002A\u002A*
X89205000Y-84125000D03*
G04 #@! TD*
G04 #@! TO.C,REF\u002A\u002A*
X106985000Y-66345000D03*
G04 #@! TD*
G04 #@! TO.C,REF\u002A\u002A*
X131115000Y-85395000D03*
G04 #@! TD*
G04 #@! TO.C,REF\u002A\u002A*
X114605000Y-105715000D03*
G04 #@! TD*
G04 #@! TO.C,REF\u002A\u002A*
X93015000Y-81585000D03*
G04 #@! TD*
G04 #@! TO.C,REF\u002A\u002A*
X115875000Y-89205000D03*
G04 #@! TD*
D20*
G04 #@! TO.C,J3*
X62000000Y-111500000D03*
X54000000Y-111500000D03*
D21*
X59000000Y-105150000D03*
X57000000Y-105150000D03*
G04 #@! TD*
D19*
G04 #@! TO.C,REF\u002A\u002A*
X104445000Y-98095000D03*
G04 #@! TD*
G04 #@! TO.C,REF\u002A\u002A*
X112065000Y-62535000D03*
G04 #@! TD*
G04 #@! TO.C,REF\u002A\u002A*
X109525000Y-65075000D03*
G04 #@! TD*
G04 #@! TO.C,REF\u002A\u002A*
X133655000Y-87935000D03*
G04 #@! TD*
G04 #@! TO.C,REF\u002A\u002A*
X115875000Y-103175000D03*
G04 #@! TD*
G04 #@! TO.C,REF\u002A\u002A*
X109525000Y-95555000D03*
G04 #@! TD*
G04 #@! TO.C,REF\u002A\u002A*
X100635000Y-89205000D03*
G04 #@! TD*
G04 #@! TO.C,REF\u002A\u002A*
X110795000Y-61265000D03*
G04 #@! TD*
G04 #@! TO.C,REF\u002A\u002A*
X115875000Y-72695000D03*
G04 #@! TD*
G04 #@! TO.C,REF\u002A\u002A*
X112065000Y-103175000D03*
G04 #@! TD*
G04 #@! TO.C,REF\u002A\u002A*
X113335000Y-87935000D03*
G04 #@! TD*
G04 #@! TO.C,REF\u002A\u002A*
X100635000Y-71425000D03*
G04 #@! TD*
G04 #@! TO.C,REF\u002A\u002A*
X105715000Y-105715000D03*
G04 #@! TD*
G04 #@! TO.C,REF\u002A\u002A*
X113335000Y-101905000D03*
G04 #@! TD*
G04 #@! TO.C,REF\u002A\u002A*
X96825000Y-89205000D03*
G04 #@! TD*
G04 #@! TO.C,REF\u002A\u002A*
X112065000Y-109525000D03*
G04 #@! TD*
G04 #@! TO.C,REF\u002A\u002A*
X117145000Y-87935000D03*
G04 #@! TD*
G04 #@! TO.C,REF\u002A\u002A*
X133655000Y-89205000D03*
G04 #@! TD*
G04 #@! TO.C,REF\u002A\u002A*
X140005000Y-89205000D03*
G04 #@! TD*
G04 #@! TO.C,REF\u002A\u002A*
X126035000Y-84125000D03*
G04 #@! TD*
G04 #@! TO.C,REF\u002A\u002A*
X113335000Y-67615000D03*
G04 #@! TD*
G04 #@! TO.C,REF\u002A\u002A*
X113335000Y-105715000D03*
G04 #@! TD*
G04 #@! TO.C,REF\u002A\u002A*
X112065000Y-95555000D03*
G04 #@! TD*
G04 #@! TO.C,REF\u002A\u002A*
X113335000Y-89205000D03*
G04 #@! TD*
G04 #@! TO.C,REF\u002A\u002A*
X100635000Y-86665000D03*
G04 #@! TD*
G04 #@! TO.C,REF\u002A\u002A*
X124765000Y-84125000D03*
G04 #@! TD*
G04 #@! TO.C,REF\u002A\u002A*
X96825000Y-76505000D03*
G04 #@! TD*
G04 #@! TO.C,REF\u002A\u002A*
X136195000Y-89205000D03*
G04 #@! TD*
G04 #@! TO.C,REF\u002A\u002A*
X106985000Y-73965000D03*
G04 #@! TD*
G04 #@! TO.C,REF\u002A\u002A*
X96825000Y-95555000D03*
G04 #@! TD*
G04 #@! TO.C,REF\u002A\u002A*
X127305000Y-93015000D03*
G04 #@! TD*
G04 #@! TO.C,REF\u002A\u002A*
X122225000Y-94285000D03*
G04 #@! TD*
G04 #@! TO.C,REF\u002A\u002A*
X94285000Y-94285000D03*
G04 #@! TD*
G04 #@! TO.C,REF\u002A\u002A*
X94285000Y-91745000D03*
G04 #@! TD*
G04 #@! TO.C,REF\u002A\u002A*
X105715000Y-99365000D03*
G04 #@! TD*
G04 #@! TO.C,REF\u002A\u002A*
X94285000Y-79045000D03*
G04 #@! TD*
G04 #@! TO.C,REF\u002A\u002A*
X101905000Y-96825000D03*
G04 #@! TD*
G04 #@! TO.C,REF\u002A\u002A*
X124765000Y-94285000D03*
G04 #@! TD*
G04 #@! TO.C,REF\u002A\u002A*
X99365000Y-96825000D03*
G04 #@! TD*
G04 #@! TO.C,REF\u002A\u002A*
X113335000Y-113335000D03*
G04 #@! TD*
G04 #@! TO.C,REF\u002A\u002A*
X112065000Y-96825000D03*
G04 #@! TD*
G04 #@! TO.C,REF\u002A\u002A*
X103175000Y-75235000D03*
G04 #@! TD*
G04 #@! TO.C,REF\u002A\u002A*
X136195000Y-85395000D03*
G04 #@! TD*
G04 #@! TO.C,REF\u002A\u002A*
X93015000Y-89205000D03*
G04 #@! TD*
G04 #@! TO.C,REF\u002A\u002A*
X132385000Y-87935000D03*
G04 #@! TD*
G04 #@! TO.C,REF\u002A\u002A*
X117145000Y-103175000D03*
G04 #@! TD*
G04 #@! TO.C,REF\u002A\u002A*
X100635000Y-80315000D03*
G04 #@! TD*
G04 #@! TO.C,REF\u002A\u002A*
X128575000Y-96825000D03*
G04 #@! TD*
G04 #@! TO.C,REF\u002A\u002A*
X99365000Y-75235000D03*
G04 #@! TD*
G04 #@! TO.C,REF\u002A\u002A*
X126035000Y-85395000D03*
G04 #@! TD*
G04 #@! TO.C,REF\u002A\u002A*
X124765000Y-85395000D03*
G04 #@! TD*
G04 #@! TO.C,REF\u002A\u002A*
X113335000Y-82855000D03*
G04 #@! TD*
G04 #@! TO.C,REF\u002A\u002A*
X119685000Y-82855000D03*
G04 #@! TD*
G04 #@! TO.C,REF\u002A\u002A*
X109525000Y-84125000D03*
G04 #@! TD*
G04 #@! TO.C,REF\u002A\u002A*
X90475000Y-82855000D03*
G04 #@! TD*
G04 #@! TO.C,REF\u002A\u002A*
X106985000Y-106985000D03*
G04 #@! TD*
G04 #@! TO.C,REF\u002A\u002A*
X105715000Y-103175000D03*
G04 #@! TD*
G04 #@! TO.C,REF\u002A\u002A*
X114605000Y-70155000D03*
G04 #@! TD*
G04 #@! TO.C,REF\u002A\u002A*
X109525000Y-106985000D03*
G04 #@! TD*
G04 #@! TO.C,REF\u002A\u002A*
X104445000Y-72695000D03*
G04 #@! TD*
G04 #@! TO.C,REF\u002A\u002A*
X101905000Y-66345000D03*
G04 #@! TD*
G04 #@! TO.C,REF\u002A\u002A*
X140005000Y-87935000D03*
G04 #@! TD*
G04 #@! TO.C,REF\u002A\u002A*
X118415000Y-96825000D03*
G04 #@! TD*
G04 #@! TO.C,REF\u002A\u002A*
X136195000Y-87935000D03*
G04 #@! TD*
G04 #@! TO.C,REF\u002A\u002A*
X131115000Y-90475000D03*
G04 #@! TD*
G04 #@! TO.C,REF\u002A\u002A*
X110795000Y-72695000D03*
G04 #@! TD*
G04 #@! TO.C,REF\u002A\u002A*
X99365000Y-91745000D03*
G04 #@! TD*
G04 #@! TO.C,REF\u002A\u002A*
X115875000Y-79045000D03*
G04 #@! TD*
G04 #@! TO.C,REF\u002A\u002A*
X114605000Y-79045000D03*
G04 #@! TD*
G04 #@! TO.C,REF\u002A\u002A*
X114605000Y-112065000D03*
G04 #@! TD*
G04 #@! TO.C,REF\u002A\u002A*
X132385000Y-95555000D03*
G04 #@! TD*
G04 #@! TO.C,REF\u002A\u002A*
X114605000Y-71425000D03*
G04 #@! TD*
G04 #@! TO.C,REF\u002A\u002A*
X127305000Y-94285000D03*
G04 #@! TD*
G04 #@! TO.C,REF\u002A\u002A*
X101905000Y-95555000D03*
G04 #@! TD*
G04 #@! TO.C,REF\u002A\u002A*
X98095000Y-91745000D03*
G04 #@! TD*
G04 #@! TO.C,REF\u002A\u002A*
X101905000Y-79045000D03*
G04 #@! TD*
G04 #@! TO.C,REF\u002A\u002A*
X105715000Y-101905000D03*
G04 #@! TD*
G04 #@! TO.C,REF\u002A\u002A*
X104445000Y-67615000D03*
G04 #@! TD*
G04 #@! TO.C,REF\u002A\u002A*
X137465000Y-89205000D03*
G04 #@! TD*
G04 #@! TO.C,REF\u002A\u002A*
X98095000Y-81585000D03*
G04 #@! TD*
G04 #@! TO.C,REF\u002A\u002A*
X120955000Y-84125000D03*
G04 #@! TD*
G04 #@! TO.C,REF\u002A\u002A*
X114605000Y-98095000D03*
G04 #@! TD*
G04 #@! TO.C,REF\u002A\u002A*
X109525000Y-70155000D03*
G04 #@! TD*
G04 #@! TO.C,REF\u002A\u002A*
X91745000Y-80315000D03*
G04 #@! TD*
G04 #@! TO.C,REF\u002A\u002A*
X126035000Y-81585000D03*
G04 #@! TD*
G04 #@! TO.C,REF\u002A\u002A*
X98095000Y-98095000D03*
G04 #@! TD*
G04 #@! TO.C,REF\u002A\u002A*
X98095000Y-95555000D03*
G04 #@! TD*
G04 #@! TO.C,REF\u002A\u002A*
X132385000Y-84125000D03*
G04 #@! TD*
G04 #@! TO.C,REF\u002A\u002A*
X113335000Y-71425000D03*
G04 #@! TD*
G04 #@! TO.C,REF\u002A\u002A*
X112065000Y-73965000D03*
G04 #@! TD*
G04 #@! TO.C,REF\u002A\u002A*
X106985000Y-101905000D03*
G04 #@! TD*
G04 #@! TO.C,REF\u002A\u002A*
X117145000Y-109525000D03*
G04 #@! TD*
G04 #@! TO.C,REF\u002A\u002A*
X118415000Y-100635000D03*
G04 #@! TD*
G04 #@! TO.C,REF\u002A\u002A*
X128575000Y-89205000D03*
G04 #@! TD*
G04 #@! TO.C,REF\u002A\u002A*
X112065000Y-71425000D03*
G04 #@! TD*
G04 #@! TO.C,REF\u002A\u002A*
X119685000Y-100635000D03*
G04 #@! TD*
G04 #@! TO.C,REF\u002A\u002A*
X91745000Y-90475000D03*
G04 #@! TD*
G04 #@! TO.C,REF\u002A\u002A*
X110795000Y-89205000D03*
G04 #@! TD*
G04 #@! TO.C,REF\u002A\u002A*
X89205000Y-79045000D03*
G04 #@! TD*
G04 #@! TO.C,REF\u002A\u002A*
X106985000Y-71425000D03*
G04 #@! TD*
G04 #@! TO.C,REF\u002A\u002A*
X96825000Y-90475000D03*
G04 #@! TD*
G04 #@! TO.C,REF\u002A\u002A*
X96825000Y-87935000D03*
G04 #@! TD*
G04 #@! TO.C,REF\u002A\u002A*
X112065000Y-65075000D03*
G04 #@! TD*
G04 #@! TO.C,REF\u002A\u002A*
X127305000Y-99365000D03*
G04 #@! TD*
G04 #@! TO.C,REF\u002A\u002A*
X120955000Y-94285000D03*
G04 #@! TD*
G04 #@! TO.C,REF\u002A\u002A*
X119685000Y-99365000D03*
G04 #@! TD*
G04 #@! TO.C,REF\u002A\u002A*
X114605000Y-82855000D03*
G04 #@! TD*
G04 #@! TO.C,REF\u002A\u002A*
X113335000Y-100635000D03*
G04 #@! TD*
G04 #@! TO.C,REF\u002A\u002A*
X122225000Y-101905000D03*
G04 #@! TD*
G04 #@! TO.C,REF\u002A\u002A*
X112065000Y-86665000D03*
G04 #@! TD*
G04 #@! TO.C,REF\u002A\u002A*
X120955000Y-77775000D03*
G04 #@! TD*
G04 #@! TO.C,REF\u002A\u002A*
X95555000Y-86665000D03*
G04 #@! TD*
G04 #@! TO.C,REF\u002A\u002A*
X108255000Y-98095000D03*
G04 #@! TD*
G04 #@! TO.C,REF\u002A\u002A*
X123495000Y-99365000D03*
G04 #@! TD*
G04 #@! TO.C,REF\u002A\u002A*
X100635000Y-99365000D03*
G04 #@! TD*
G04 #@! TO.C,REF\u002A\u002A*
X108255000Y-67615000D03*
G04 #@! TD*
G04 #@! TO.C,REF\u002A\u002A*
X110795000Y-96825000D03*
G04 #@! TD*
G04 #@! TO.C,REF\u002A\u002A*
X110795000Y-105715000D03*
G04 #@! TD*
G04 #@! TO.C,REF\u002A\u002A*
X103175000Y-73965000D03*
G04 #@! TD*
G04 #@! TO.C,REF\u002A\u002A*
X123495000Y-101905000D03*
G04 #@! TD*
G04 #@! TO.C,REF\u002A\u002A*
X131115000Y-98095000D03*
G04 #@! TD*
G04 #@! TO.C,REF\u002A\u002A*
X110795000Y-98095000D03*
G04 #@! TD*
G04 #@! TO.C,REF\u002A\u002A*
X115875000Y-75235000D03*
G04 #@! TD*
G04 #@! TO.C,REF\u002A\u002A*
X106985000Y-72695000D03*
G04 #@! TD*
G04 #@! TO.C,REF\u002A\u002A*
X120955000Y-100635000D03*
G04 #@! TD*
G04 #@! TO.C,REF\u002A\u002A*
X117145000Y-75235000D03*
G04 #@! TD*
G04 #@! TO.C,REF\u002A\u002A*
X127305000Y-91745000D03*
G04 #@! TD*
G04 #@! TO.C,REF\u002A\u002A*
X136195000Y-93015000D03*
G04 #@! TD*
G04 #@! TO.C,REF\u002A\u002A*
X114605000Y-76505000D03*
G04 #@! TD*
G04 #@! TO.C,REF\u002A\u002A*
X103175000Y-66345000D03*
G04 #@! TD*
G04 #@! TO.C,REF\u002A\u002A*
X128575000Y-91745000D03*
G04 #@! TD*
G04 #@! TO.C,REF\u002A\u002A*
X94285000Y-93015000D03*
G04 #@! TD*
G04 #@! TO.C,REF\u002A\u002A*
X100635000Y-81585000D03*
G04 #@! TD*
G04 #@! TO.C,REF\u002A\u002A*
X86665000Y-87935000D03*
G04 #@! TD*
G04 #@! TO.C,REF\u002A\u002A*
X113335000Y-109525000D03*
G04 #@! TD*
G04 #@! TO.C,REF\u002A\u002A*
X113335000Y-62535000D03*
G04 #@! TD*
G04 #@! TO.C,REF\u002A\u002A*
X110795000Y-85395000D03*
G04 #@! TD*
G04 #@! TO.C,REF\u002A\u002A*
X120955000Y-79045000D03*
G04 #@! TD*
G04 #@! TO.C,REF\u002A\u002A*
X103175000Y-77775000D03*
G04 #@! TD*
G04 #@! TO.C,REF\u002A\u002A*
X101905000Y-93015000D03*
G04 #@! TD*
G04 #@! TO.C,REF\u002A\u002A*
X117145000Y-84125000D03*
G04 #@! TD*
G04 #@! TO.C,REF\u002A\u002A*
X100635000Y-85395000D03*
G04 #@! TD*
G04 #@! TO.C,REF\u002A\u002A*
X95555000Y-89205000D03*
G04 #@! TD*
G04 #@! TO.C,REF\u002A\u002A*
X104445000Y-101905000D03*
G04 #@! TD*
G04 #@! TO.C,REF\u002A\u002A*
X118415000Y-99365000D03*
G04 #@! TD*
G04 #@! TO.C,REF\u002A\u002A*
X95555000Y-94285000D03*
G04 #@! TD*
G04 #@! TO.C,REF\u002A\u002A*
X123495000Y-96825000D03*
G04 #@! TD*
G04 #@! TO.C,REF\u002A\u002A*
X132385000Y-86665000D03*
G04 #@! TD*
G04 #@! TO.C,REF\u002A\u002A*
X133655000Y-90475000D03*
G04 #@! TD*
G04 #@! TO.C,REF\u002A\u002A*
X117145000Y-100635000D03*
G04 #@! TD*
G04 #@! TO.C,REF\u002A\u002A*
X99365000Y-85395000D03*
G04 #@! TD*
G04 #@! TO.C,REF\u002A\u002A*
X90475000Y-79045000D03*
G04 #@! TD*
G04 #@! TO.C,REF\u002A\u002A*
X127305000Y-90475000D03*
G04 #@! TD*
G04 #@! TO.C,REF\u002A\u002A*
X117145000Y-67615000D03*
G04 #@! TD*
G04 #@! TO.C,REF\u002A\u002A*
X95555000Y-84125000D03*
G04 #@! TD*
G04 #@! TO.C,REF\u002A\u002A*
X101905000Y-89205000D03*
G04 #@! TD*
G04 #@! TO.C,REF\u002A\u002A*
X109525000Y-96825000D03*
G04 #@! TD*
G04 #@! TO.C,REF\u002A\u002A*
X117145000Y-96825000D03*
G04 #@! TD*
G04 #@! TO.C,REF\u002A\u002A*
X114605000Y-89205000D03*
G04 #@! TD*
G04 #@! TO.C,REF\u002A\u002A*
X129845000Y-100635000D03*
G04 #@! TD*
G04 #@! TO.C,REF\u002A\u002A*
X122225000Y-100635000D03*
G04 #@! TD*
G04 #@! TO.C,REF\u002A\u002A*
X98095000Y-73965000D03*
G04 #@! TD*
G04 #@! TO.C,REF\u002A\u002A*
X106985000Y-105715000D03*
G04 #@! TD*
G04 #@! TO.C,REF\u002A\u002A*
X91745000Y-86665000D03*
G04 #@! TD*
G04 #@! TO.C,REF\u002A\u002A*
X114605000Y-115875000D03*
G04 #@! TD*
G04 #@! TO.C,REF\u002A\u002A*
X123495000Y-87935000D03*
G04 #@! TD*
G04 #@! TO.C,REF\u002A\u002A*
X140005000Y-91745000D03*
G04 #@! TD*
G04 #@! TO.C,REF\u002A\u002A*
X122225000Y-93015000D03*
G04 #@! TD*
G04 #@! TO.C,REF\u002A\u002A*
X119685000Y-101905000D03*
G04 #@! TD*
G04 #@! TO.C,REF\u002A\u002A*
X122225000Y-82855000D03*
G04 #@! TD*
G04 #@! TO.C,REF\u002A\u002A*
X109525000Y-103175000D03*
G04 #@! TD*
G04 #@! TO.C,REF\u002A\u002A*
X119685000Y-81585000D03*
G04 #@! TD*
G04 #@! TO.C,REF\u002A\u002A*
X100635000Y-73965000D03*
G04 #@! TD*
G04 #@! TO.C,REF\u002A\u002A*
X132385000Y-93015000D03*
G04 #@! TD*
G04 #@! TO.C,REF\u002A\u002A*
X103175000Y-87935000D03*
G04 #@! TD*
G04 #@! TO.C,REF\u002A\u002A*
X126035000Y-100635000D03*
G04 #@! TD*
G04 #@! TO.C,REF\u002A\u002A*
X115875000Y-87935000D03*
G04 #@! TD*
G04 #@! TO.C,REF\u002A\u002A*
X109525000Y-98095000D03*
G04 #@! TD*
G04 #@! TO.C,REF\u002A\u002A*
X110795000Y-99365000D03*
G04 #@! TD*
G04 #@! TO.C,REF\u002A\u002A*
X115875000Y-71425000D03*
G04 #@! TD*
G04 #@! TO.C,REF\u002A\u002A*
X126035000Y-80315000D03*
G04 #@! TD*
G04 #@! TO.C,REF\u002A\u002A*
X129845000Y-84125000D03*
G04 #@! TD*
G04 #@! TO.C,REF\u002A\u002A*
X138735000Y-91745000D03*
G04 #@! TD*
G04 #@! TO.C,REF\u002A\u002A*
X109525000Y-100635000D03*
G04 #@! TD*
G04 #@! TO.C,REF\u002A\u002A*
X91745000Y-84125000D03*
G04 #@! TD*
G04 #@! TO.C,REF\u002A\u002A*
X100635000Y-87935000D03*
G04 #@! TD*
G04 #@! TO.C,REF\u002A\u002A*
X99365000Y-80315000D03*
G04 #@! TD*
G04 #@! TO.C,REF\u002A\u002A*
X123495000Y-81585000D03*
G04 #@! TD*
G04 #@! TO.C,REF\u002A\u002A*
X113335000Y-85395000D03*
G04 #@! TD*
G04 #@! TO.C,REF\u002A\u002A*
X101905000Y-81585000D03*
G04 #@! TD*
G04 #@! TO.C,REF\u002A\u002A*
X103175000Y-91745000D03*
G04 #@! TD*
G04 #@! TO.C,REF\u002A\u002A*
X137465000Y-93015000D03*
G04 #@! TD*
G04 #@! TO.C,REF\u002A\u002A*
X98095000Y-96825000D03*
G04 #@! TD*
G04 #@! TO.C,REF\u002A\u002A*
X131115000Y-91745000D03*
G04 #@! TD*
G04 #@! TO.C,REF\u002A\u002A*
X87935000Y-86665000D03*
G04 #@! TD*
G04 #@! TO.C,REF\u002A\u002A*
X123495000Y-85395000D03*
G04 #@! TD*
G04 #@! TO.C,REF\u002A\u002A*
X119685000Y-106985000D03*
G04 #@! TD*
G04 #@! TO.C,REF\u002A\u002A*
X85395000Y-84125000D03*
G04 #@! TD*
G04 #@! TO.C,REF\u002A\u002A*
X101905000Y-94285000D03*
G04 #@! TD*
G04 #@! TO.C,REF\u002A\u002A*
X127305000Y-80315000D03*
G04 #@! TD*
G04 #@! TO.C,REF\u002A\u002A*
X112065000Y-89205000D03*
G04 #@! TD*
G04 #@! TO.C,REF\u002A\u002A*
X122225000Y-96825000D03*
G04 #@! TD*
G04 #@! TO.C,REF\u002A\u002A*
X99365000Y-72695000D03*
G04 #@! TD*
G04 #@! TO.C,REF\u002A\u002A*
X103175000Y-76505000D03*
G04 #@! TD*
G04 #@! TO.C,REF\u002A\u002A*
X89205000Y-80315000D03*
G04 #@! TD*
G04 #@! TO.C,REF\u002A\u002A*
X114605000Y-87935000D03*
G04 #@! TD*
G04 #@! TO.C,REF\u002A\u002A*
X113335000Y-112065000D03*
G04 #@! TD*
G04 #@! TO.C,REF\u002A\u002A*
X117145000Y-77775000D03*
G04 #@! TD*
G04 #@! TO.C,REF\u002A\u002A*
X117145000Y-76505000D03*
G04 #@! TD*
G04 #@! TO.C,REF\u002A\u002A*
X108255000Y-76505000D03*
G04 #@! TD*
G04 #@! TO.C,REF\u002A\u002A*
X104445000Y-103175000D03*
G04 #@! TD*
G04 #@! TO.C,REF\u002A\u002A*
X91745000Y-79045000D03*
G04 #@! TD*
G04 #@! TO.C,REF\u002A\u002A*
X100635000Y-79045000D03*
G04 #@! TD*
G04 #@! TO.C,REF\u002A\u002A*
X98095000Y-79045000D03*
G04 #@! TD*
G04 #@! TO.C,REF\u002A\u002A*
X95555000Y-91745000D03*
G04 #@! TD*
G04 #@! TO.C,REF\u002A\u002A*
X133655000Y-95555000D03*
G04 #@! TD*
G04 #@! TO.C,REF\u002A\u002A*
X115875000Y-105715000D03*
G04 #@! TD*
G04 #@! TO.C,REF\u002A\u002A*
X128575000Y-86665000D03*
G04 #@! TD*
G04 #@! TO.C,REF\u002A\u002A*
X113335000Y-66345000D03*
G04 #@! TD*
G04 #@! TO.C,REF\u002A\u002A*
X113335000Y-63805000D03*
G04 #@! TD*
G04 #@! TO.C,REF\u002A\u002A*
X114605000Y-86665000D03*
G04 #@! TD*
G04 #@! TO.C,REF\u002A\u002A*
X113335000Y-108255000D03*
G04 #@! TD*
G04 #@! TO.C,REF\u002A\u002A*
X124765000Y-81585000D03*
G04 #@! TD*
G04 #@! TO.C,REF\u002A\u002A*
X91745000Y-89205000D03*
G04 #@! TD*
G04 #@! TO.C,REF\u002A\u002A*
X109525000Y-59995000D03*
G04 #@! TD*
G04 #@! TO.C,REF\u002A\u002A*
X109525000Y-79045000D03*
G04 #@! TD*
G04 #@! TO.C,REF\u002A\u002A*
X110795000Y-91745000D03*
G04 #@! TD*
G04 #@! TO.C,REF\u002A\u002A*
X108255000Y-105715000D03*
G04 #@! TD*
G04 #@! TO.C,REF\u002A\u002A*
X100635000Y-100635000D03*
G04 #@! TD*
G04 #@! TO.C,REF\u002A\u002A*
X93015000Y-86665000D03*
G04 #@! TD*
G04 #@! TO.C,REF\u002A\u002A*
X115875000Y-96825000D03*
G04 #@! TD*
G04 #@! TO.C,REF\u002A\u002A*
X87935000Y-81585000D03*
G04 #@! TD*
G04 #@! TO.C,REF\u002A\u002A*
X100635000Y-72695000D03*
G04 #@! TD*
G04 #@! TO.C,REF\u002A\u002A*
X108255000Y-68885000D03*
G04 #@! TD*
G04 #@! TO.C,REF\u002A\u002A*
X112065000Y-98095000D03*
G04 #@! TD*
G04 #@! TO.C,REF\u002A\u002A*
X94285000Y-89205000D03*
G04 #@! TD*
G04 #@! TO.C,REF\u002A\u002A*
X128575000Y-81585000D03*
G04 #@! TD*
G04 #@! TO.C,REF\u002A\u002A*
X115875000Y-99365000D03*
G04 #@! TD*
G04 #@! TO.C,REF\u002A\u002A*
X118415000Y-94285000D03*
G04 #@! TD*
G04 #@! TO.C,REF\u002A\u002A*
X100635000Y-70155000D03*
G04 #@! TD*
G04 #@! TO.C,REF\u002A\u002A*
X122225000Y-79045000D03*
G04 #@! TD*
G04 #@! TO.C,REF\u002A\u002A*
X113335000Y-106985000D03*
G04 #@! TD*
G04 #@! TO.C,REF\u002A\u002A*
X117145000Y-108255000D03*
G04 #@! TD*
G04 #@! TO.C,REF\u002A\u002A*
X91745000Y-87935000D03*
G04 #@! TD*
G04 #@! TO.C,REF\u002A\u002A*
X109525000Y-58725000D03*
G04 #@! TD*
G04 #@! TO.C,REF\u002A\u002A*
X129845000Y-87935000D03*
G04 #@! TD*
G04 #@! TO.C,REF\u002A\u002A*
X106985000Y-68885000D03*
G04 #@! TD*
G04 #@! TO.C,REF\u002A\u002A*
X86665000Y-84125000D03*
G04 #@! TD*
G04 #@! TO.C,REF\u002A\u002A*
X103175000Y-71425000D03*
G04 #@! TD*
G04 #@! TO.C,REF\u002A\u002A*
X113335000Y-104445000D03*
G04 #@! TD*
G04 #@! TO.C,REF\u002A\u002A*
X100635000Y-75235000D03*
G04 #@! TD*
G04 #@! TO.C,REF\u002A\u002A*
X123495000Y-79045000D03*
G04 #@! TD*
G04 #@! TO.C,REF\u002A\u002A*
X118415000Y-101905000D03*
G04 #@! TD*
G04 #@! TO.C,REF\u002A\u002A*
X110795000Y-62535000D03*
G04 #@! TD*
G04 #@! TO.C,REF\u002A\u002A*
X109525000Y-89205000D03*
G04 #@! TD*
G04 #@! TO.C,REF\u002A\u002A*
X112065000Y-108255000D03*
G04 #@! TD*
G04 #@! TO.C,REF\u002A\u002A*
X110795000Y-67615000D03*
G04 #@! TD*
G04 #@! TO.C,REF\u002A\u002A*
X93015000Y-75235000D03*
G04 #@! TD*
G04 #@! TO.C,REF\u002A\u002A*
X109525000Y-108255000D03*
G04 #@! TD*
G04 #@! TO.C,REF\u002A\u002A*
X112065000Y-72695000D03*
G04 #@! TD*
G04 #@! TO.C,REF\u002A\u002A*
X101905000Y-67615000D03*
G04 #@! TD*
G04 #@! TO.C,REF\u002A\u002A*
X112065000Y-87935000D03*
G04 #@! TD*
G04 #@! TO.C,REF\u002A\u002A*
X117145000Y-105715000D03*
G04 #@! TD*
G04 #@! TO.C,REF\u002A\u002A*
X101905000Y-91745000D03*
G04 #@! TD*
G04 #@! TO.C,REF\u002A\u002A*
X91745000Y-82855000D03*
G04 #@! TD*
G04 #@! TO.C,REF\u002A\u002A*
X87935000Y-82855000D03*
G04 #@! TD*
G04 #@! TO.C,REF\u002A\u002A*
X108255000Y-100635000D03*
G04 #@! TD*
G04 #@! TO.C,REF\u002A\u002A*
X112065000Y-100635000D03*
G04 #@! TD*
G04 #@! TO.C,REF\u002A\u002A*
X106985000Y-76505000D03*
G04 #@! TD*
G04 #@! TO.C,REF\u002A\u002A*
X104445000Y-75235000D03*
G04 #@! TD*
G04 #@! TO.C,REF\u002A\u002A*
X126035000Y-89205000D03*
G04 #@! TD*
G04 #@! TO.C,REF\u002A\u002A*
X110795000Y-63805000D03*
G04 #@! TD*
G04 #@! TO.C,REF\u002A\u002A*
X113335000Y-86665000D03*
G04 #@! TD*
G04 #@! TO.C,REF\u002A\u002A*
X98095000Y-93015000D03*
G04 #@! TD*
G04 #@! TO.C,REF\u002A\u002A*
X142545000Y-89205000D03*
G04 #@! TD*
G04 #@! TO.C,REF\u002A\u002A*
X108255000Y-108255000D03*
G04 #@! TD*
G04 #@! TO.C,REF\u002A\u002A*
X99365000Y-73965000D03*
G04 #@! TD*
G04 #@! TO.C,REF\u002A\u002A*
X117145000Y-99365000D03*
G04 #@! TD*
G04 #@! TO.C,REF\u002A\u002A*
X119685000Y-96825000D03*
G04 #@! TD*
G04 #@! TO.C,REF\u002A\u002A*
X108255000Y-65075000D03*
G04 #@! TD*
G04 #@! TO.C,REF\u002A\u002A*
X106985000Y-62535000D03*
G04 #@! TD*
G04 #@! TO.C,REF\u002A\u002A*
X106985000Y-99365000D03*
G04 #@! TD*
G04 #@! TO.C,REF\u002A\u002A*
X93015000Y-91745000D03*
G04 #@! TD*
G04 #@! TO.C,REF\u002A\u002A*
X115875000Y-86665000D03*
G04 #@! TD*
G04 #@! TO.C,REF\u002A\u002A*
X108255000Y-101905000D03*
G04 #@! TD*
G04 #@! TO.C,REF\u002A\u002A*
X129845000Y-90475000D03*
G04 #@! TD*
G04 #@! TO.C,REF\u002A\u002A*
X138735000Y-86665000D03*
G04 #@! TD*
G04 #@! TO.C,REF\u002A\u002A*
X123495000Y-105715000D03*
G04 #@! TD*
G04 #@! TO.C,REF\u002A\u002A*
X113335000Y-72695000D03*
G04 #@! TD*
G04 #@! TO.C,REF\u002A\u002A*
X113335000Y-98095000D03*
G04 #@! TD*
G04 #@! TO.C,REF\u002A\u002A*
X100635000Y-68885000D03*
G04 #@! TD*
G04 #@! TO.C,REF\u002A\u002A*
X104445000Y-71425000D03*
G04 #@! TD*
G04 #@! TO.C,REF\u002A\u002A*
X112065000Y-68885000D03*
G04 #@! TD*
G04 #@! TO.C,REF\u002A\u002A*
X124765000Y-86665000D03*
G04 #@! TD*
G04 #@! TO.C,REF\u002A\u002A*
X87935000Y-80315000D03*
G04 #@! TD*
G04 #@! TO.C,REF\u002A\u002A*
X129845000Y-98095000D03*
G04 #@! TD*
G04 #@! TO.C,REF\u002A\u002A*
X133655000Y-93015000D03*
G04 #@! TD*
G04 #@! TO.C,REF\u002A\u002A*
X101905000Y-80315000D03*
G04 #@! TD*
G04 #@! TO.C,REF\u002A\u002A*
X110795000Y-90475000D03*
G04 #@! TD*
G04 #@! TO.C,REF\u002A\u002A*
X113335000Y-84125000D03*
G04 #@! TD*
G04 #@! TO.C,REF\u002A\u002A*
X93015000Y-85395000D03*
G04 #@! TD*
G04 #@! TO.C,REF\u002A\u002A*
X119685000Y-86665000D03*
G04 #@! TD*
G04 #@! TO.C,REF\u002A\u002A*
X95555000Y-80315000D03*
G04 #@! TD*
G04 #@! TO.C,REF\u002A\u002A*
X117145000Y-104445000D03*
G04 #@! TD*
G04 #@! TO.C,REF\u002A\u002A*
X120955000Y-99365000D03*
G04 #@! TD*
G04 #@! TO.C,REF\u002A\u002A*
X122225000Y-86665000D03*
G04 #@! TD*
G04 #@! TO.C,REF\u002A\u002A*
X105715000Y-68885000D03*
G04 #@! TD*
G04 #@! TO.C,REF\u002A\u002A*
X110795000Y-95555000D03*
G04 #@! TD*
G04 #@! TO.C,REF\u002A\u002A*
X98095000Y-89205000D03*
G04 #@! TD*
G04 #@! TO.C,REF\u002A\u002A*
X115875000Y-98095000D03*
G04 #@! TD*
G04 #@! TO.C,REF\u002A\u002A*
X104445000Y-76505000D03*
G04 #@! TD*
G04 #@! TO.C,REF\u002A\u002A*
X132385000Y-90475000D03*
G04 #@! TD*
G04 #@! TO.C,REF\u002A\u002A*
X120955000Y-95555000D03*
G04 #@! TD*
G04 #@! TO.C,REF\u002A\u002A*
X137465000Y-87935000D03*
G04 #@! TD*
G04 #@! TO.C,REF\u002A\u002A*
X114605000Y-96825000D03*
G04 #@! TD*
G04 #@! TO.C,REF\u002A\u002A*
X103175000Y-98095000D03*
G04 #@! TD*
G04 #@! TO.C,REF\u002A\u002A*
X108255000Y-63805000D03*
G04 #@! TD*
G04 #@! TO.C,REF\u002A\u002A*
X106985000Y-63805000D03*
G04 #@! TD*
G04 #@! TO.C,REF\u002A\u002A*
X128575000Y-87935000D03*
G04 #@! TD*
G04 #@! TO.C,REF\u002A\u002A*
X98095000Y-90475000D03*
G04 #@! TD*
G04 #@! TO.C,REF\u002A\u002A*
X108255000Y-104445000D03*
G04 #@! TD*
G04 #@! TO.C,REF\u002A\u002A*
X110795000Y-71425000D03*
G04 #@! TD*
G04 #@! TO.C,REF\u002A\u002A*
X87935000Y-85395000D03*
G04 #@! TD*
G04 #@! TO.C,REF\u002A\u002A*
X96825000Y-77775000D03*
G04 #@! TD*
G04 #@! TO.C,REF\u002A\u002A*
X137465000Y-86665000D03*
G04 #@! TD*
G04 #@! TO.C,REF\u002A\u002A*
X105715000Y-98095000D03*
G04 #@! TD*
G04 #@! TO.C,REF\u002A\u002A*
X118415000Y-76505000D03*
G04 #@! TD*
G04 #@! TO.C,REF\u002A\u002A*
X98095000Y-87935000D03*
G04 #@! TD*
G04 #@! TO.C,REF\u002A\u002A*
X94285000Y-86665000D03*
G04 #@! TD*
G04 #@! TO.C,REF\u002A\u002A*
X105715000Y-70155000D03*
G04 #@! TD*
G04 #@! TO.C,REF\u002A\u002A*
X99365000Y-87935000D03*
G04 #@! TD*
G04 #@! TO.C,REF\u002A\u002A*
X114605000Y-67615000D03*
G04 #@! TD*
G04 #@! TO.C,REF\u002A\u002A*
X89205000Y-87935000D03*
G04 #@! TD*
G04 #@! TO.C,REF\u002A\u002A*
X131115000Y-94285000D03*
G04 #@! TD*
G04 #@! TO.C,REF\u002A\u002A*
X94285000Y-82855000D03*
G04 #@! TD*
G04 #@! TO.C,REF\u002A\u002A*
X138735000Y-93015000D03*
G04 #@! TD*
G04 #@! TO.C,REF\u002A\u002A*
X106985000Y-67615000D03*
G04 #@! TD*
G04 #@! TO.C,REF\u002A\u002A*
X131115000Y-95555000D03*
G04 #@! TD*
G04 #@! TO.C,REF\u002A\u002A*
X104445000Y-66345000D03*
G04 #@! TD*
G04 #@! TO.C,REF\u002A\u002A*
X119685000Y-87935000D03*
G04 #@! TD*
G04 #@! TO.C,REF\u002A\u002A*
X99365000Y-77775000D03*
G04 #@! TD*
G04 #@! TO.C,REF\u002A\u002A*
X100635000Y-77775000D03*
G04 #@! TD*
G04 #@! TO.C,REF\u002A\u002A*
X115875000Y-110795000D03*
G04 #@! TD*
G04 #@! TO.C,REF\u002A\u002A*
X133655000Y-94285000D03*
G04 #@! TD*
G04 #@! TO.C,REF\u002A\u002A*
X91745000Y-91745000D03*
G04 #@! TD*
G04 #@! TO.C,REF\u002A\u002A*
X93015000Y-84125000D03*
G04 #@! TD*
G04 #@! TO.C,REF\u002A\u002A*
X132385000Y-96825000D03*
G04 #@! TD*
G04 #@! TO.C,REF\u002A\u002A*
X96825000Y-84125000D03*
G04 #@! TD*
G04 #@! TO.C,REF\u002A\u002A*
X90475000Y-84125000D03*
G04 #@! TD*
G04 #@! TO.C,REF\u002A\u002A*
X132385000Y-91745000D03*
G04 #@! TD*
G04 #@! TO.C,REF\u002A\u002A*
X122225000Y-105715000D03*
G04 #@! TD*
G04 #@! TO.C,REF\u002A\u002A*
X119685000Y-105715000D03*
G04 #@! TD*
G04 #@! TO.C,REF\u002A\u002A*
X119685000Y-98095000D03*
G04 #@! TD*
G04 #@! TO.C,REF\u002A\u002A*
X126035000Y-96825000D03*
G04 #@! TD*
G04 #@! TO.C,REF\u002A\u002A*
X94285000Y-80315000D03*
G04 #@! TD*
G04 #@! TO.C,REF\u002A\u002A*
X134925000Y-95555000D03*
G04 #@! TD*
G04 #@! TO.C,REF\u002A\u002A*
X103175000Y-80315000D03*
G04 #@! TD*
G04 #@! TO.C,REF\u002A\u002A*
X101905000Y-101905000D03*
G04 #@! TD*
G04 #@! TO.C,REF\u002A\u002A*
X99365000Y-99365000D03*
G04 #@! TD*
G04 #@! TO.C,REF\u002A\u002A*
X86665000Y-85395000D03*
G04 #@! TD*
G04 #@! TO.C,REF\u002A\u002A*
X104445000Y-68885000D03*
G04 #@! TD*
G04 #@! TO.C,REF\u002A\u002A*
X95555000Y-73965000D03*
G04 #@! TD*
G04 #@! TO.C,REF\u002A\u002A*
X122225000Y-80315000D03*
G04 #@! TD*
G04 #@! TO.C,REF\u002A\u002A*
X95555000Y-77775000D03*
G04 #@! TD*
G04 #@! TO.C,REF\u002A\u002A*
X99365000Y-94285000D03*
G04 #@! TD*
G04 #@! TO.C,REF\u002A\u002A*
X95555000Y-75235000D03*
G04 #@! TD*
G04 #@! TO.C,REF\u002A\u002A*
X113335000Y-70155000D03*
G04 #@! TD*
G04 #@! TO.C,REF\u002A\u002A*
X117145000Y-82855000D03*
G04 #@! TD*
G04 #@! TO.C,REF\u002A\u002A*
X101905000Y-90475000D03*
G04 #@! TD*
G04 #@! TO.C,REF\u002A\u002A*
X137465000Y-91745000D03*
G04 #@! TD*
G04 #@! TO.C,REF\u002A\u002A*
X108255000Y-73965000D03*
G04 #@! TD*
G04 #@! TO.C,REF\u002A\u002A*
X129845000Y-96825000D03*
G04 #@! TD*
G04 #@! TO.C,REF\u002A\u002A*
X109525000Y-61265000D03*
G04 #@! TD*
G04 #@! TO.C,REF\u002A\u002A*
X96825000Y-96825000D03*
G04 #@! TD*
G04 #@! TO.C,REF\u002A\u002A*
X104445000Y-100635000D03*
G04 #@! TD*
G04 #@! TO.C,REF\u002A\u002A*
X110795000Y-65075000D03*
G04 #@! TD*
G04 #@! TO.C,REF\u002A\u002A*
X115875000Y-84125000D03*
G04 #@! TD*
G04 #@! TO.C,REF\u002A\u002A*
X114605000Y-84125000D03*
G04 #@! TD*
G04 #@! TO.C,REF\u002A\u002A*
X99365000Y-76505000D03*
G04 #@! TD*
G04 #@! TO.C,REF\u002A\u002A*
X105715000Y-71425000D03*
G04 #@! TD*
G04 #@! TO.C,REF\u002A\u002A*
X128575000Y-85395000D03*
G04 #@! TD*
G04 #@! TO.C,REF\u002A\u002A*
X104445000Y-63805000D03*
G04 #@! TD*
G04 #@! TO.C,REF\u002A\u002A*
X106985000Y-98095000D03*
G04 #@! TD*
G04 #@! TO.C,REF\u002A\u002A*
X112065000Y-104445000D03*
G04 #@! TD*
G04 #@! TO.C,REF\u002A\u002A*
X129845000Y-86665000D03*
G04 #@! TD*
G04 #@! TO.C,REF\u002A\u002A*
X142545000Y-87935000D03*
G04 #@! TD*
G04 #@! TO.C,REF\u002A\u002A*
X141275000Y-86665000D03*
G04 #@! TD*
G04 #@! TO.C,REF\u002A\u002A*
X140005000Y-93015000D03*
G04 #@! TD*
G04 #@! TO.C,REF\u002A\u002A*
X112065000Y-105715000D03*
G04 #@! TD*
G04 #@! TO.C,REF\u002A\u002A*
X108255000Y-72695000D03*
G04 #@! TD*
G04 #@! TO.C,REF\u002A\u002A*
X118415000Y-104445000D03*
G04 #@! TD*
G04 #@! TO.C,REF\u002A\u002A*
X131115000Y-96825000D03*
G04 #@! TD*
G04 #@! TO.C,REF\u002A\u002A*
X110795000Y-104445000D03*
G04 #@! TD*
G04 #@! TO.C,REF\u002A\u002A*
X101905000Y-68885000D03*
G04 #@! TD*
G04 #@! TO.C,REF\u002A\u002A*
X114605000Y-99365000D03*
G04 #@! TD*
G04 #@! TO.C,REF\u002A\u002A*
X133655000Y-84125000D03*
G04 #@! TD*
G04 #@! TO.C,REF\u002A\u002A*
X110795000Y-103175000D03*
G04 #@! TD*
G04 #@! TO.C,REF\u002A\u002A*
X109525000Y-90475000D03*
G04 #@! TD*
G04 #@! TO.C,REF\u002A\u002A*
X109525000Y-73965000D03*
G04 #@! TD*
G04 #@! TO.C,REF\u002A\u002A*
X108255000Y-71425000D03*
G04 #@! TD*
G04 #@! TO.C,REF\u002A\u002A*
X128575000Y-100635000D03*
G04 #@! TD*
G04 #@! TO.C,REF\u002A\u002A*
X113335000Y-65075000D03*
G04 #@! TD*
G04 #@! TO.C,REF\u002A\u002A*
X122225000Y-87935000D03*
G04 #@! TD*
G04 #@! TO.C,REF\u002A\u002A*
X118415000Y-106985000D03*
G04 #@! TD*
G04 #@! TO.C,REF\u002A\u002A*
X118415000Y-105715000D03*
G04 #@! TD*
G04 #@! TO.C,REF\u002A\u002A*
X114605000Y-85395000D03*
G04 #@! TD*
G04 #@! TO.C,REF\u002A\u002A*
X122225000Y-98095000D03*
G04 #@! TD*
G04 #@! TO.C,REF\u002A\u002A*
X115875000Y-73965000D03*
G04 #@! TD*
G04 #@! TO.C,REF\u002A\u002A*
X103175000Y-81585000D03*
G04 #@! TD*
G04 #@! TO.C,REF\u002A\u002A*
X112065000Y-70155000D03*
G04 #@! TD*
G04 #@! TO.C,REF\u002A\u002A*
X124765000Y-95555000D03*
G04 #@! TD*
G04 #@! TO.C,REF\u002A\u002A*
X118415000Y-82855000D03*
G04 #@! TD*
G04 #@! TO.C,REF\u002A\u002A*
X106985000Y-104445000D03*
G04 #@! TD*
G04 #@! TO.C,REF\u002A\u002A*
X126035000Y-86665000D03*
G04 #@! TD*
G04 #@! TO.C,REF\u002A\u002A*
X123495000Y-103175000D03*
G04 #@! TD*
G04 #@! TO.C,REF\u002A\u002A*
X134925000Y-93015000D03*
G04 #@! TD*
G04 #@! TO.C,REF\u002A\u002A*
X120955000Y-98095000D03*
G04 #@! TD*
G04 #@! TO.C,REF\u002A\u002A*
X101905000Y-85395000D03*
G04 #@! TD*
G04 #@! TO.C,REF\u002A\u002A*
X112065000Y-99365000D03*
G04 #@! TD*
G04 #@! TO.C,REF\u002A\u002A*
X120955000Y-96825000D03*
G04 #@! TD*
G04 #@! TO.C,REF\u002A\u002A*
X128575000Y-79045000D03*
G04 #@! TD*
G04 #@! TO.C,REF\u002A\u002A*
X112065000Y-63805000D03*
G04 #@! TD*
G04 #@! TO.C,REF\u002A\u002A*
X93015000Y-80315000D03*
G04 #@! TD*
G04 #@! TO.C,REF\u002A\u002A*
X89205000Y-86665000D03*
G04 #@! TD*
G04 #@! TO.C,REF\u002A\u002A*
X108255000Y-75235000D03*
G04 #@! TD*
G04 #@! TO.C,REF\u002A\u002A*
X118415000Y-77775000D03*
G04 #@! TD*
G04 #@! TO.C,REF\u002A\u002A*
X114605000Y-103175000D03*
G04 #@! TD*
G04 #@! TO.C,REF\u002A\u002A*
X105715000Y-65075000D03*
G04 #@! TD*
G04 #@! TO.C,REF\u002A\u002A*
X95555000Y-87935000D03*
G04 #@! TD*
G04 #@! TO.C,REF\u002A\u002A*
X91745000Y-81585000D03*
G04 #@! TD*
G04 #@! TO.C,REF\u002A\u002A*
X126035000Y-101905000D03*
G04 #@! TD*
G04 #@! TO.C,REF\u002A\u002A*
X127305000Y-85395000D03*
G04 #@! TD*
G04 #@! TO.C,REF\u002A\u002A*
X106985000Y-70155000D03*
G04 #@! TD*
G04 #@! TO.C,REF\u002A\u002A*
X101905000Y-70155000D03*
G04 #@! TD*
G04 #@! TO.C,REF\u002A\u002A*
X127305000Y-81585000D03*
G04 #@! TD*
G04 #@! TO.C,REF\u002A\u002A*
X114605000Y-108255000D03*
G04 #@! TD*
G04 #@! TO.C,REF\u002A\u002A*
X123495000Y-98095000D03*
G04 #@! TD*
G04 #@! TO.C,REF\u002A\u002A*
X89205000Y-89205000D03*
G04 #@! TD*
G04 #@! TO.C,REF\u002A\u002A*
X110795000Y-108255000D03*
G04 #@! TD*
G04 #@! TO.C,REF\u002A\u002A*
X143815000Y-90475000D03*
G04 #@! TD*
G04 #@! TO.C,REF\u002A\u002A*
X124765000Y-98095000D03*
G04 #@! TD*
G04 #@! TO.C,REF\u002A\u002A*
X90475000Y-87935000D03*
G04 #@! TD*
G04 #@! TO.C,REF\u002A\u002A*
X108255000Y-62535000D03*
G04 #@! TD*
G04 #@! TO.C,REF\u002A\u002A*
X101905000Y-72695000D03*
G04 #@! TD*
G04 #@! TO.C,REF\u002A\u002A*
X124765000Y-82855000D03*
G04 #@! TD*
G04 #@! TO.C,REF\u002A\u002A*
X105715000Y-104445000D03*
G04 #@! TD*
G04 #@! TO.C,REF\u002A\u002A*
X115875000Y-113335000D03*
G04 #@! TD*
G04 #@! TO.C,REF\u002A\u002A*
X127305000Y-86665000D03*
G04 #@! TD*
G04 #@! TO.C,REF\u002A\u002A*
X134925000Y-91745000D03*
G04 #@! TD*
G04 #@! TO.C,REF\u002A\u002A*
X141275000Y-90475000D03*
G04 #@! TD*
G04 #@! TO.C,REF\u002A\u002A*
X98095000Y-82855000D03*
G04 #@! TD*
G04 #@! TO.C,REF\u002A\u002A*
X84125000Y-84125000D03*
G04 #@! TD*
G04 #@! TO.C,REF\u002A\u002A*
X114605000Y-100635000D03*
G04 #@! TD*
G04 #@! TO.C,REF\u002A\u002A*
X104445000Y-104445000D03*
G04 #@! TD*
G04 #@! TO.C,REF\u002A\u002A*
X142545000Y-91745000D03*
G04 #@! TD*
G04 #@! TO.C,REF\u002A\u002A*
X103175000Y-67615000D03*
G04 #@! TD*
G04 #@! TO.C,REF\u002A\u002A*
X114605000Y-66345000D03*
G04 #@! TD*
G04 #@! TO.C,REF\u002A\u002A*
X120955000Y-86665000D03*
G04 #@! TD*
G04 #@! TO.C,REF\u002A\u002A*
X119685000Y-93015000D03*
G04 #@! TD*
G04 #@! TO.C,REF\u002A\u002A*
X120955000Y-93015000D03*
G04 #@! TD*
G04 #@! TO.C,REF\u002A\u002A*
X115875000Y-108255000D03*
G04 #@! TD*
M02*
