M48
; DRILL file {KiCad (5.99.0-3349-g91c4a681c)} date Sunday, September 20, 2020 at 10:46:29 PM
; FORMAT={-:-/ absolute / inch / decimal}
; #@! TF.CreationDate,2020-09-20T22:46:29+02:00
; #@! TF.GenerationSoftware,Kicad,Pcbnew,(5.99.0-3349-g91c4a681c)
; #@! TF.FileFunction,Plated,1,2,PTH
FMAT,2
INCH
T1C0.0118
T2C0.0157
T3C0.0197
T4C0.0236
T5C0.0400
%
G90
G05
T1
X2.326Y-4.0224
X2.6075Y-5.0346
X2.6327Y-5.1311
X2.6626Y-5.032
X2.6642Y-3.7713
X2.6894Y-5.0839
X2.7106Y-4.8533
X2.7139Y-4.8218
X2.7193Y-5.0323
X2.7232Y-5.0795
X2.7294Y-4.7869
X2.7303Y-4.8906
X2.7437Y-5.0094
X2.7437Y-5.0492
X2.7567Y-5.2343
X2.7795Y-4.7142
X2.8457Y-5.3579
X2.8531Y-5.2039
X2.8594Y-4.5248
X2.872Y-4.5992
X2.8826Y-5.202
X2.8827Y-5.2425
X2.8827Y-4.7488
X2.922Y-5.197
X2.9429Y-5.1823
X2.9579Y-4.6803
X2.9598Y-4.7441
X2.9984Y-5.3673
X2.9988Y-5.3177
X3.0039Y-5.148
X3.0154Y-3.6484
X3.0484Y-4.7181
X3.0791Y-4.7441
X3.0795Y-5.1323
X3.1028Y-4.978
X3.1945Y-4.9295
X3.2063Y-3.8413
X3.2217Y-4.0732
X3.2331Y-3.6244
X3.2406Y-3.9074
X3.2512Y-5.0996
X3.2622Y-5.0303
X3.2661Y-3.9087
X3.2665Y-5.4185
X3.2665Y-5.4693
X3.2736Y-4.7909
X3.2858Y-5.102
X3.2866Y-4.0732
X3.3094Y-3.8957
X3.3469Y-3.6811
X3.3469Y-3.7996
X3.3823Y-3.9094
X3.3906Y-5.6634
X3.4614Y-3.6244
X3.4689Y-5.585
X3.4833Y-5.6332
X3.5811Y-4.2614
X3.676Y-4.337
X3.6787Y-4.4169
X3.6957Y-4.3961
X3.8768Y-4.4579
X3.9063Y-4.3787
X3.9547Y-4.5331
X4.0272Y-4.4114
X4.0307Y-4.6732
X4.0382Y-5.2874
X4.0736Y-4.5276
X4.1933Y-4.5276
X4.25Y-4.415
X4.2508Y-4.6445
X4.2929Y-4.9602
T2
X2.3815Y-4.3701
X2.4343Y-4.1992
X2.5197Y-4.5232
X2.6298Y-5.5014
X2.6606Y-4.6238
X2.6996Y-4.9138
X2.7835Y-5.7161
X2.9232Y-4.7512
X3.0945Y-5.2067
X3.1504Y-4.8157
X3.1504Y-4.9283
X3.1882Y-5.6638
X3.9329Y-4.4617
X4.3854Y-4.9559
T5
X4.437Y-3.087
X4.137Y-3.287
X4.137Y-3.587
X4.237Y-3.087
X4.237Y-3.487
X4.537Y-3.187
X4.437Y-3.687
X4.237Y-3.787
X4.737Y-3.587
X4.437Y-2.987
X4.237Y-3.187
X4.137Y-3.387
X4.837Y-3.587
X4.137Y-3.687
X4.237Y-3.287
X4.237Y-3.587
X4.637Y-3.587
X3.6352Y-4.1007
X3.7059Y-4.03
X3.7059Y-4.1714
X3.7766Y-4.1007
X3.7766Y-4.2422
X3.8473Y-4.1714
X4.537Y-3.587
X3.937Y-3.287
X4.937Y-3.587
X4.237Y-3.387
X4.337Y-3.687
X4.437Y-3.187
X4.037Y-3.287
X4.137Y-3.087
X4.537Y-3.687
X4.637Y-3.187
X4.137Y-3.487
X4.437Y-3.587
X4.337Y-3.187
X4.237Y-3.687
X4.137Y-3.187
T3
G00X2.6114Y-5.6157
M15
G01X2.6114Y-5.663
M16
G05
G00X2.9516Y-5.6157
M15
G01X2.9516Y-5.663
M16
G05
T4
G00X2.6114Y-5.7882
M15
G01X2.6114Y-5.8197
M16
G05
G00X2.9516Y-5.7882
M15
G01X2.9516Y-5.8197
M16
G05
T0
M30
